<svg xmlns="http://www.w3.org/2000/svg" id="bwHQvQ" width="123.514" height="123.522" viewBox="0 0 123.514 123.522"><g id="Grupo_37" data-name="Grupo 37" transform="translate(0 0)"><path id="Trazado_68" data-name="Trazado 68" d="M4596.383,2262h-10.12c-2.18-.316-4.377-.545-6.538-.96a61.8,61.8,0,0,1-49.345-71.06c5.835-34.557,39.193-57.527,73.428-50.106,24.278,5.263,39.906,20.517,47.175,44.278a63.637,63.637,0,0,1,2.022,11.106v10.12c-.29,2.021-.457,4.069-.888,6.059q-8.066,37.169-44.4,48.48A62.9,62.9,0,0,1,4596.383,2262Zm48.812-61.545c-.156-29.478-23.433-53.83-53.732-53.952a53.813,53.813,0,1,0-.28,107.626C4620.68,2254.25,4644.793,2230.746,4645.195,2200.45Z" transform="translate(-4529.492 -2138.473)" fill="#fff"></path><path id="Trazado_69" data-name="Trazado 69" d="M4681.873,2473.4c-13.721-.476-24.524-6.116-32.026-17.721a5.916,5.916,0,0,1-1.118-2.506,3.971,3.971,0,0,1,7.3-2.668,36.072,36.072,0,0,0,4.091,5.5,29.767,29.767,0,0,0,46.9-4.655c.793-1.264,1.646-2.407,3.234-2.64a3.8,3.8,0,0,1,3.917,1.568,3.872,3.872,0,0,1,.227,4.323,31.974,31.974,0,0,1-4.328,6.068,36.675,36.675,0,0,1-25.6,12.522C4683.593,2473.25,4682.714,2473.331,4681.873,2473.4Z" transform="translate(-4619.975 -2373.898)" fill="#fff"></path><path id="Trazado_70" data-name="Trazado 70" d="M4688.029,2315.319a7.8,7.8,0,1,1-.087-15.608,7.8,7.8,0,1,1,.087,15.608Z" transform="translate(-4643.817 -2260.861)" fill="#fff"></path><path id="Trazado_71" data-name="Trazado 71" d="M4834.961,2315.323a7.8,7.8,0,1,1,7.818-7.812A7.811,7.811,0,0,1,4834.961,2315.323Z" transform="translate(-4755.35 -2260.865)" fill="#fff"></path></g></svg>