<svg xmlns="http://www.w3.org/2000/svg" width="713.563" height="151.586" viewBox="0 0 713.563 151.586"><g id="Group_87" data-name="Group 87" transform="translate(-4453.609 -439.024)"><path id="Path_134" data-name="Path 134" d="M41.689,18.32a.77.77,0,1,0,1.54,0V7.88l4.46,6.56a.805.805,0,0,0,.68.4.774.774,0,0,0,.66-.4l4.48-6.58V18.3a.816.816,0,0,0,.8.8.8.8,0,0,0,.78-.8V5.72a.794.794,0,0,0-.78-.78h-.18a.848.848,0,0,0-.74.42l-5,7.52-5-7.52a.866.866,0,0,0-.74-.42h-.18a.794.794,0,0,0-.78.78Zm20.18.9a4.531,4.531,0,0,0,3.74-1.78v.94a.71.71,0,0,0,.74.72.731.731,0,0,0,.74-.76V12.68a4.081,4.081,0,0,0-1.06-3.02,4.537,4.537,0,0,0-3.34-1.14,8.154,8.154,0,0,0-3.38.7.705.705,0,0,0-.42.64.683.683,0,0,0,.68.66.785.785,0,0,0,.28-.06,6.456,6.456,0,0,1,2.68-.58c1.94,0,3.08.96,3.08,2.82v.36a10.979,10.979,0,0,0-3.18-.44c-2.62,0-4.42,1.16-4.42,3.34V16C58.009,18.12,59.949,19.22,61.869,19.22Zm.3-1.22c-1.4,0-2.6-.76-2.6-2.06V15.9c0-1.3,1.08-2.14,3.02-2.14a10.786,10.786,0,0,1,3.04.44v1C65.629,16.84,64.069,18,62.169,18Zm8.2.32a.768.768,0,0,0,.78.78.752.752,0,0,0,.76-.78V13.08a3.042,3.042,0,0,1,3.1-3.24c1.82,0,2.86,1.2,2.86,3.12v5.36a.77.77,0,1,0,1.54,0V12.58c0-2.46-1.46-4.14-3.96-4.14a3.916,3.916,0,0,0-3.54,2.02V9.34a.768.768,0,0,0-.78-.78.777.777,0,0,0-.76.78Zm21.18-8.98a.764.764,0,0,0-.76-.78.752.752,0,0,0-.76.78v5.24a3.053,3.053,0,0,1-3.1,3.24c-1.82,0-2.86-1.2-2.86-3.12V9.34a.781.781,0,0,0-.78-.78.752.752,0,0,0-.76.78v5.74c0,2.46,1.46,4.14,3.96,4.14a3.939,3.939,0,0,0,3.54-2.02v1.12a.76.76,0,1,0,1.52,0Zm4.04,8.98a.781.781,0,0,0,.78.78.764.764,0,0,0,.76-.78v-8.3h2.66a.67.67,0,0,0,.68-.66.658.658,0,0,0-.68-.66h-2.68V7.86c0-1.48.6-2.2,1.8-2.2a5.37,5.37,0,0,1,.84.1.663.663,0,0,0,.74-.66.686.686,0,0,0-.56-.66,5.231,5.231,0,0,0-1.22-.12,3.044,3.044,0,0,0-2.22.8,3.649,3.649,0,0,0-.9,2.66v.9h-.84a.666.666,0,0,0-.66.66.658.658,0,0,0,.66.68h.84Zm9.54.9a4.531,4.531,0,0,0,3.74-1.78v.94a.71.71,0,0,0,.74.72.731.731,0,0,0,.74-.76V12.68a4.081,4.081,0,0,0-1.06-3.02,4.537,4.537,0,0,0-3.34-1.14,8.154,8.154,0,0,0-3.38.7.705.705,0,0,0-.42.64.683.683,0,0,0,.68.66.785.785,0,0,0,.28-.06,6.456,6.456,0,0,1,2.68-.58c1.94,0,3.08.96,3.08,2.82v.36a10.979,10.979,0,0,0-3.18-.44c-2.62,0-4.42,1.16-4.42,3.34V16C101.269,18.12,103.209,19.22,105.129,19.22Zm.3-1.22c-1.4,0-2.6-.76-2.6-2.06V15.9c0-1.3,1.08-2.14,3.02-2.14a10.786,10.786,0,0,1,3.04.44v1C108.889,16.84,107.329,18,105.429,18Zm12.86,1.24a5.2,5.2,0,0,0,3.9-1.66.7.7,0,0,0,.2-.48.722.722,0,0,0-.7-.7.61.61,0,0,0-.44.2,4.132,4.132,0,0,1-2.88,1.26,3.863,3.863,0,0,1-3.8-4.02V13.8a3.816,3.816,0,0,1,3.7-4,3.988,3.988,0,0,1,2.82,1.24.8.8,0,0,0,.5.18.738.738,0,0,0,.74-.74.724.724,0,0,0-.24-.54,5.375,5.375,0,0,0-9.1,3.9v.04A5.309,5.309,0,0,0,118.289,19.24Zm10.22-.06a3.89,3.89,0,0,0,1.52-.28.643.643,0,0,0,.44-.6.666.666,0,0,0-.66-.66,4.357,4.357,0,0,1-.94.14,1.53,1.53,0,0,1-1.74-1.72V10.02h2.68a.692.692,0,0,0,.7-.68.7.7,0,0,0-.7-.68h-2.68V6.22a.794.794,0,0,0-.78-.78.764.764,0,0,0-.76.78V8.66h-.84a.687.687,0,0,0-.68.68.7.7,0,0,0,.68.68h.84v6.24A2.632,2.632,0,0,0,128.509,19.18Zm13.48-9.84a.764.764,0,0,0-.76-.78.752.752,0,0,0-.76.78v5.24a3.053,3.053,0,0,1-3.1,3.24c-1.82,0-2.86-1.2-2.86-3.12V9.34a.781.781,0,0,0-.78-.78.752.752,0,0,0-.76.78v5.74c0,2.46,1.46,4.14,3.96,4.14a3.939,3.939,0,0,0,3.54-2.02v1.12a.76.76,0,1,0,1.52,0Zm3.46,8.98a.77.77,0,1,0,1.54,0V14.8c0-2.98,1.64-4.48,3.64-4.72a.764.764,0,0,0,.68-.78.74.74,0,0,0-.76-.78,4.282,4.282,0,0,0-3.56,2.76V9.34a.768.768,0,0,0-.78-.78.777.777,0,0,0-.76.78Zm8.1-12.64a.915.915,0,0,0,1.82,0V5.42a.915.915,0,0,0-1.82,0Zm.14,12.64a.768.768,0,0,0,.78.78.752.752,0,0,0,.76-.78V9.34a.768.768,0,0,0-.78-.78.777.777,0,0,0-.76.78Zm5.12,0a.768.768,0,0,0,.78.78.752.752,0,0,0,.76-.78V13.08a3.042,3.042,0,0,1,3.1-3.24c1.82,0,2.86,1.2,2.86,3.12v5.36a.77.77,0,1,0,1.54,0V12.58c0-2.46-1.46-4.14-3.96-4.14a3.916,3.916,0,0,0-3.54,2.02V9.34a.768.768,0,0,0-.78-.78.777.777,0,0,0-.76.78Zm16.9,3.92a5.437,5.437,0,0,0,3.94-1.38,4.981,4.981,0,0,0,1.32-3.66V9.34a.781.781,0,0,0-.78-.78.764.764,0,0,0-.76.78v1.18a4.9,4.9,0,0,0-8.9,2.8v.04a4.781,4.781,0,0,0,4.86,4.84,4.9,4.9,0,0,0,4.06-2.18v1.22c0,2.42-1.48,3.68-3.76,3.68a6.53,6.53,0,0,1-3.66-1.12.62.62,0,0,0-.34-.1.734.734,0,0,0-.7.68.713.713,0,0,0,.4.64A8.1,8.1,0,0,0,175.709,22.24Zm-.02-5.4a3.5,3.5,0,0,1-3.58-3.52v-.04a3.42,3.42,0,0,1,3.58-3.48,3.623,3.623,0,0,1,3.8,3.5v.04A3.649,3.649,0,0,1,175.689,16.84Z" transform="translate(4597.959 568.37)" fill="#fff"></path><path id="Path_135" data-name="Path 135" d="M-67.59-.7a.8.8,0,0,0,.78.8.8.8,0,0,0,.8-.8V-5.44h4.02l3.94,5.12a.921.921,0,0,0,.74.42.826.826,0,0,0,.8-.78.859.859,0,0,0-.26-.58l-3.48-4.48c2.18-.42,3.74-1.76,3.74-4.06v-.04a3.867,3.867,0,0,0-1.08-2.76A5.52,5.52,0,0,0-61.57-14h-5.24a.8.8,0,0,0-.78.8Zm1.58-6.16v-5.68h4.32c2.26,0,3.58,1.04,3.58,2.76v.04c0,1.8-1.5,2.88-3.6,2.88ZM-50.31.22a4.531,4.531,0,0,0,3.74-1.78v.94a.71.71,0,0,0,.74.72.731.731,0,0,0,.74-.76V-6.32a4.081,4.081,0,0,0-1.06-3.02,4.537,4.537,0,0,0-3.34-1.14,8.154,8.154,0,0,0-3.38.7.705.705,0,0,0-.42.64.683.683,0,0,0,.68.66.785.785,0,0,0,.28-.06,6.456,6.456,0,0,1,2.68-.58c1.94,0,3.08.96,3.08,2.82v.36a10.979,10.979,0,0,0-3.18-.44c-2.62,0-4.42,1.16-4.42,3.34V-3C-54.17-.88-52.23.22-50.31.22Zm.3-1.22c-1.4,0-2.6-.76-2.6-2.06V-3.1c0-1.3,1.08-2.14,3.02-2.14a10.786,10.786,0,0,1,3.04.44v1C-46.55-2.16-48.11-1-50.01-1ZM-38.77.16h.04a.862.862,0,0,0,.84-.7l2.6-7.54,2.58,7.54a.862.862,0,0,0,.84.7h.06a.912.912,0,0,0,.84-.7l3.16-8.76a1.435,1.435,0,0,0,.1-.42.739.739,0,0,0-.76-.72.756.756,0,0,0-.74.6l-2.64,7.8-2.6-7.78a.817.817,0,0,0-.8-.62h-.08a.789.789,0,0,0-.76.62l-2.62,7.78-2.6-7.76a.808.808,0,0,0-.78-.64.76.76,0,0,0-.78.74,1.435,1.435,0,0,0,.1.42l3.14,8.74A.916.916,0,0,0-38.77.16Zm19.78-.84a.768.768,0,0,0,.78.78.752.752,0,0,0,.76-.78V-5.9a3,3,0,0,1,2.88-3.26c1.64,0,2.66,1.14,2.66,3.08v5.4a.764.764,0,0,0,.76.78.768.768,0,0,0,.78-.78V-5.96a2.881,2.881,0,0,1,2.84-3.2c1.68,0,2.68,1.12,2.68,3.12V-.68A.768.768,0,0,0-4.07.1a.764.764,0,0,0,.76-.78V-6.4c0-2.56-1.46-4.16-3.84-4.16A4.121,4.121,0,0,0-10.79-8.5a3.513,3.513,0,0,0-3.32-2.06A3.777,3.777,0,0,0-17.45-8.6V-9.66a.768.768,0,0,0-.78-.78.777.777,0,0,0-.76.78Zm22.1.9A4.531,4.531,0,0,0,6.85-1.56v.94A.71.71,0,0,0,7.59.1a.731.731,0,0,0,.74-.76V-6.32A4.081,4.081,0,0,0,7.27-9.34a4.537,4.537,0,0,0-3.34-1.14,8.154,8.154,0,0,0-3.38.7.705.705,0,0,0-.42.64.683.683,0,0,0,.68.66.785.785,0,0,0,.28-.06,6.456,6.456,0,0,1,2.68-.58c1.94,0,3.08.96,3.08,2.82v.36a10.979,10.979,0,0,0-3.18-.44C1.05-6.38-.75-5.22-.75-3.04V-3C-.75-.88,1.19.22,3.11.22ZM3.41-1C2.01-1,.81-1.76.81-3.06V-3.1c0-1.3,1.08-2.14,3.02-2.14a10.786,10.786,0,0,1,3.04.44v1C6.87-2.16,5.31-1,3.41-1ZM14.97.18A3.89,3.89,0,0,0,16.49-.1a.643.643,0,0,0,.44-.6.666.666,0,0,0-.66-.66,4.357,4.357,0,0,1-.94.14,1.53,1.53,0,0,1-1.74-1.72V-8.98h2.68a.692.692,0,0,0,.7-.68.7.7,0,0,0-.7-.68H13.59v-2.44a.794.794,0,0,0-.78-.78.764.764,0,0,0-.76.78v2.44h-.84a.687.687,0,0,0-.68.68.7.7,0,0,0,.68.68h.84v6.24A2.632,2.632,0,0,0,14.97.18Zm5.24-5.92a3.565,3.565,0,0,1,3.36-3.52c2.06,0,3.14,1.64,3.3,3.52Zm7.5,4.42a.664.664,0,0,0,.24-.5.67.67,0,0,0-.68-.66.675.675,0,0,0-.44.18,4.226,4.226,0,0,1-2.98,1.2,3.611,3.611,0,0,1-3.64-3.5h7.48a.717.717,0,0,0,.72-.72c0-2.74-1.74-5.24-4.8-5.24a5.1,5.1,0,0,0-4.96,5.38v.04A5.139,5.139,0,0,0,23.81.24,5.256,5.256,0,0,0,27.71-1.32Zm3.42.64a.768.768,0,0,0,.78.78.764.764,0,0,0,.76-.78V-4.2c0-2.98,1.64-4.48,3.64-4.72a.764.764,0,0,0,.68-.78.74.74,0,0,0-.76-.78,4.282,4.282,0,0,0-3.56,2.76V-9.66a.768.768,0,0,0-.78-.78.777.777,0,0,0-.76.78Zm8.1-12.64a.844.844,0,0,0,.9.82.85.85,0,0,0,.92-.82v-.26a.838.838,0,0,0-.92-.82.832.832,0,0,0-.9.82ZM39.37-.68a.768.768,0,0,0,.78.78.752.752,0,0,0,.76-.78V-9.66a.768.768,0,0,0-.78-.78.777.777,0,0,0-.76.78Zm8.2.9a4.531,4.531,0,0,0,3.74-1.78v.94a.71.71,0,0,0,.74.72.731.731,0,0,0,.74-.76V-6.32a4.081,4.081,0,0,0-1.06-3.02,4.537,4.537,0,0,0-3.34-1.14,8.154,8.154,0,0,0-3.38.7.705.705,0,0,0-.42.64.683.683,0,0,0,.68.66.785.785,0,0,0,.28-.06,6.456,6.456,0,0,1,2.68-.58c1.94,0,3.08.96,3.08,2.82v.36a10.979,10.979,0,0,0-3.18-.44c-2.62,0-4.42,1.16-4.42,3.34V-3C43.71-.88,45.65.22,47.57.22ZM47.87-1c-1.4,0-2.6-.76-2.6-2.06V-3.1c0-1.3,1.08-2.14,3.02-2.14a10.786,10.786,0,0,1,3.04.44v1C51.33-2.16,49.77-1,47.87-1Zm8.34.32a.768.768,0,0,0,.78.78.752.752,0,0,0,.76-.78V-13.92a.781.781,0,0,0-.78-.78.777.777,0,0,0-.76.78ZM64.75.2c2.06,0,3.68-1.14,3.68-3.1v-.04c0-1.86-1.72-2.48-3.32-2.96-1.38-.42-2.66-.8-2.66-1.78v-.04c0-.86.78-1.5,2-1.5a5.6,5.6,0,0,1,2.7.8.773.773,0,0,0,.34.08A.67.67,0,0,0,68.17-9a.748.748,0,0,0-.38-.64,7.2,7.2,0,0,0-3.3-.88c-2.04,0-3.52,1.18-3.52,2.96v.04c0,1.9,1.8,2.46,3.42,2.92,1.36.38,2.58.78,2.58,1.82v.04c0,1-.9,1.64-2.14,1.64a5.809,5.809,0,0,1-3.28-1.1.615.615,0,0,0-.38-.12.67.67,0,0,0-.68.66.7.7,0,0,0,.28.56A7.155,7.155,0,0,0,64.75.2Z" transform="translate(4521.199 584.37)" fill="#fff"></path><path id="Path_132" data-name="Path 132" d="M79.129,19.2c2.78,0,4.78-1.56,4.78-3.96V15.2c0-2.14-1.44-3.28-4.56-3.96-3.08-.66-3.8-1.4-3.8-2.72V8.48c0-1.26,1.16-2.26,2.98-2.26a5.855,5.855,0,0,1,3.62,1.22.738.738,0,0,0,.46.14.76.76,0,0,0,.76-.76.813.813,0,0,0-.34-.64,7.14,7.14,0,0,0-4.46-1.38c-2.66,0-4.6,1.62-4.6,3.82v.04c0,2.3,1.48,3.34,4.7,4.04,2.94.62,3.64,1.36,3.64,2.66v.04c0,1.38-1.24,2.38-3.12,2.38a6.367,6.367,0,0,1-4.42-1.66.7.7,0,0,0-.48-.18.764.764,0,0,0-.76.78.711.711,0,0,0,.3.6A8.18,8.18,0,0,0,79.129,19.2Zm11.1-.02a3.89,3.89,0,0,0,1.52-.28.643.643,0,0,0,.44-.6.666.666,0,0,0-.66-.66,4.357,4.357,0,0,1-.94.14,1.53,1.53,0,0,1-1.74-1.72V10.02h2.68a.692.692,0,0,0,.7-.68.7.7,0,0,0-.7-.68h-2.68V6.22a.794.794,0,0,0-.78-.78.764.764,0,0,0-.76.78V8.66h-.84a.687.687,0,0,0-.68.68.7.7,0,0,0,.68.68h.84v6.24A2.632,2.632,0,0,0,90.229,19.18Zm9.04.06a5.369,5.369,0,0,0,5.42-5.4V13.8a5.39,5.39,0,0,0-10.78.04v.04A5.3,5.3,0,0,0,99.269,19.24Zm.04-1.38a3.879,3.879,0,0,1-3.82-4.02V13.8a3.816,3.816,0,0,1,3.78-4,3.913,3.913,0,0,1,3.84,4.04v.04A3.815,3.815,0,0,1,99.309,17.86Zm8.16.46a.77.77,0,1,0,1.54,0V14.8c0-2.98,1.64-4.48,3.64-4.72a.764.764,0,0,0,.68-.78.74.74,0,0,0-.76-.78,4.281,4.281,0,0,0-3.56,2.76V9.34a.768.768,0,0,0-.78-.78.777.777,0,0,0-.76.78Zm10.68.9a4.531,4.531,0,0,0,3.74-1.78v.94a.71.71,0,0,0,.74.72.731.731,0,0,0,.74-.76V12.68a4.081,4.081,0,0,0-1.06-3.02,4.537,4.537,0,0,0-3.34-1.14,8.154,8.154,0,0,0-3.38.7.705.705,0,0,0-.42.64.683.683,0,0,0,.68.66.785.785,0,0,0,.28-.06,6.456,6.456,0,0,1,2.68-.58c1.94,0,3.08.96,3.08,2.82v.36a10.979,10.979,0,0,0-3.18-.44c-2.62,0-4.42,1.16-4.42,3.34V16C114.289,18.12,116.229,19.22,118.149,19.22Zm.3-1.22c-1.4,0-2.6-.76-2.6-2.06V15.9c0-1.3,1.08-2.14,3.02-2.14a10.786,10.786,0,0,1,3.04.44v1C121.909,16.84,120.349,18,118.449,18Zm12.78,4.24a5.437,5.437,0,0,0,3.94-1.38,4.981,4.981,0,0,0,1.32-3.66V9.34a.781.781,0,0,0-.78-.78.764.764,0,0,0-.76.78v1.18a4.9,4.9,0,0,0-8.9,2.8v.04a4.781,4.781,0,0,0,4.86,4.84,4.9,4.9,0,0,0,4.06-2.18v1.22c0,2.42-1.48,3.68-3.76,3.68a6.53,6.53,0,0,1-3.66-1.12.62.62,0,0,0-.34-.1.734.734,0,0,0-.7.68.713.713,0,0,0,.4.64A8.1,8.1,0,0,0,131.229,22.24Zm-.02-5.4a3.5,3.5,0,0,1-3.58-3.52v-.04a3.42,3.42,0,0,1,3.58-3.48,3.623,3.623,0,0,1,3.8,3.5v.04A3.649,3.649,0,0,1,131.209,16.84Zm9.64-3.58a3.565,3.565,0,0,1,3.36-3.52c2.06,0,3.14,1.64,3.3,3.52Zm7.5,4.42a.654.654,0,0,0-.44-1.16.675.675,0,0,0-.44.18,4.226,4.226,0,0,1-2.98,1.2,3.611,3.611,0,0,1-3.64-3.5h7.48a.717.717,0,0,0,.72-.72c0-2.74-1.74-5.24-4.8-5.24a5.1,5.1,0,0,0-4.96,5.38v.04a5.139,5.139,0,0,0,5.16,5.38A5.256,5.256,0,0,0,148.349,17.68Z" transform="translate(4800.896 568)" fill="#fff"></path><path id="Path_133" data-name="Path 133" d="M74.079,19.2c2.78,0,4.78-1.56,4.78-3.96V15.2c0-2.14-1.44-3.28-4.56-3.96-3.08-.66-3.8-1.4-3.8-2.72V8.48c0-1.26,1.16-2.26,2.98-2.26A5.855,5.855,0,0,1,77.1,7.44a.738.738,0,0,0,.46.14.76.76,0,0,0,.76-.76.813.813,0,0,0-.34-.64,7.14,7.14,0,0,0-4.46-1.38c-2.66,0-4.6,1.62-4.6,3.82v.04c0,2.3,1.48,3.34,4.7,4.04,2.94.62,3.64,1.36,3.64,2.66v.04c0,1.38-1.24,2.38-3.12,2.38a6.367,6.367,0,0,1-4.42-1.66.7.7,0,0,0-.48-.18.764.764,0,0,0-.76.78.711.711,0,0,0,.3.6A8.18,8.18,0,0,0,74.079,19.2Zm7.74-.88a.768.768,0,0,0,.78.78.752.752,0,0,0,.76-.78V13.08a3.042,3.042,0,0,1,3.1-3.24c1.82,0,2.86,1.2,2.86,3.12v5.36a.77.77,0,1,0,1.54,0V12.58c0-2.46-1.46-4.14-3.96-4.14a3.916,3.916,0,0,0-3.54,2.02V5.08a.77.77,0,1,0-1.54,0ZM94.139,5.68a.915.915,0,0,0,1.82,0V5.42a.915.915,0,0,0-1.82,0Zm.14,12.64a.768.768,0,0,0,.78.78.752.752,0,0,0,.76-.78V9.34a.768.768,0,0,0-.78-.78.777.777,0,0,0-.76.78Zm5.12,3.2a.768.768,0,0,0,.78.78.752.752,0,0,0,.76-.78v-4.5a4.665,4.665,0,0,0,3.96,2.2,5.062,5.062,0,0,0,4.94-5.38V13.8a5.043,5.043,0,0,0-4.94-5.36,4.649,4.649,0,0,0-3.96,2.3V9.34a.77.77,0,1,0-1.54,0Zm5.22-3.68a3.848,3.848,0,0,1-3.74-4V13.8a3.856,3.856,0,0,1,3.74-3.98,3.723,3.723,0,0,1,3.64,4v.04A3.649,3.649,0,0,1,104.619,17.84Zm8.06,3.68a.768.768,0,0,0,.78.78.752.752,0,0,0,.76-.78v-4.5a4.665,4.665,0,0,0,3.96,2.2,5.062,5.062,0,0,0,4.94-5.38V13.8a5.043,5.043,0,0,0-4.94-5.36,4.649,4.649,0,0,0-3.96,2.3V9.34a.77.77,0,1,0-1.54,0Zm5.22-3.68a3.848,3.848,0,0,1-3.74-4V13.8a3.856,3.856,0,0,1,3.74-3.98,3.723,3.723,0,0,1,3.64,4v.04A3.649,3.649,0,0,1,117.9,17.84Zm8.06-12.16a.915.915,0,0,0,1.82,0V5.42a.915.915,0,0,0-1.82,0Zm.14,12.64a.768.768,0,0,0,.78.78.752.752,0,0,0,.76-.78V9.34a.768.768,0,0,0-.78-.78.777.777,0,0,0-.76.78Zm5.12,0a.768.768,0,0,0,.78.78.752.752,0,0,0,.76-.78V13.08a3.042,3.042,0,0,1,3.1-3.24c1.82,0,2.86,1.2,2.86,3.12v5.36a.77.77,0,1,0,1.54,0V12.58c0-2.46-1.46-4.14-3.96-4.14a3.916,3.916,0,0,0-3.54,2.02V9.34a.768.768,0,0,0-.78-.78.777.777,0,0,0-.76.78Zm16.9,3.92a5.437,5.437,0,0,0,3.94-1.38,4.981,4.981,0,0,0,1.32-3.66V9.34a.781.781,0,0,0-.78-.78.764.764,0,0,0-.76.78v1.18a4.9,4.9,0,0,0-8.9,2.8v.04a4.781,4.781,0,0,0,4.86,4.84,4.9,4.9,0,0,0,4.06-2.18v1.22c0,2.42-1.48,3.68-3.76,3.68a6.53,6.53,0,0,1-3.66-1.12.62.62,0,0,0-.34-.1.734.734,0,0,0-.7.68.713.713,0,0,0,.4.64A8.1,8.1,0,0,0,148.119,22.24Zm-.02-5.4a3.5,3.5,0,0,1-3.58-3.52v-.04A3.42,3.42,0,0,1,148.1,9.8a3.623,3.623,0,0,1,3.8,3.5v.04A3.649,3.649,0,0,1,148.1,16.84Z" transform="translate(4993.856 568)" fill="#fff"></path><g id="CeBwSz" transform="translate(4472.117 439.024)"><g id="Group_76" data-name="Group 76" transform="translate(0 0)"><path id="Path_94" data-name="Path 94" d="M4981.034-140.043c-.722,0-1.354-.018-1.987,0a2.06,2.06,0,0,1-2.11-.971,2.125,2.125,0,0,1,.343-2.4c.879-1.3,1.747-2.612,2.618-3.919q4.046-6.068,8.094-12.136c1.268-1.9,2.669-1.908,3.929-.024q5.331,7.977,10.643,15.965a3.178,3.178,0,0,1,.68,1.689c1.363-2.047,2.6-3.881,3.81-5.736.335-.515-.1-.546-.453-.549-1.085-.008-2.17.014-3.255-.011-1.832-.042-2.688-1.559-1.669-3.1q7.025-10.622,14.129-21.193a1.889,1.889,0,0,1,3.4.026q7.1,10.574,14.127,21.2c1.008,1.525.122,3.033-1.722,3.071-1.046.022-2.094.01-3.142.005-.506,0-.87.072-.464.683,1.2,1.8,2.395,3.6,3.71,5.573a3.852,3.852,0,0,1,.79-1.777q5.26-7.889,10.523-15.776c1.308-1.959,2.686-1.965,3.991-.013q5.3,7.931,10.585,15.869c.539.8.994,1.609.43,2.59-.538.934-1.432.961-2.355.936-.555-.015-1.111,0-1.676,0-.079.552.287.824.5,1.147q3.157,4.773,6.342,9.526c.514.769.989,1.543.492,2.488a2.42,2.42,0,0,1-2.492,1.151c-.823-.016-1.646-.018-2.468.005-.315.009-.742-.16-.905.227-.126.3.185.542.345.784q2.7,4.066,5.413,8.124c1.017,1.525,2.049,3.04,3.041,4.58,1.1,1.712.314,3.224-1.736,3.319-1.082.05-2.168.006-3.252.022-.285,0-.657-.13-.828.172s.155.547.311.782c2.294,3.461,4.637,6.889,6.885,10.379a5.467,5.467,0,0,1-3,8.271,5.8,5.8,0,0,1-1.774.2c-2.02,0-4.042.05-6.06-.018-1.015-.034-1.359.257-1.347,1.316.05,5.311.024,10.623.021,15.935,0,1.979-.546,2.516-2.54,2.521q-2.862.006-5.724,0c-2.159,0-2.664-.5-2.666-2.619,0-3.815-.029-7.631.018-11.446.012-.948-.217-1.105-1.04-.686a4.932,4.932,0,0,1-2.3.39c-4.974-.009-9.949.027-14.924-.029-1.1-.012-1.389.347-1.372,1.407.059,3.553.029,7.107.02,10.66,0,1.7-.612,2.31-2.29,2.319-2.169.011-4.34.016-6.509,0-1.463-.013-2.119-.667-2.124-2.139-.016-3.553-.006-7.107-.007-10.661,0-1.556,0-1.559-1.508-1.559-4.864,0-9.726-.009-14.589.006a5.793,5.793,0,0,1-2.731-.488c-.777-.4-.771.031-.771.6q.015,5.779,0,11.559c0,2.2-.486,2.685-2.71,2.687q-2.806,0-5.612,0c-2.08,0-2.606-.516-2.607-2.564,0-5.274-.029-10.549.022-15.822.01-1.084-.307-1.429-1.392-1.388-2.054.078-4.113.015-6.17.022a5.158,5.158,0,0,1-4.856-2.862,5.256,5.256,0,0,1,.25-5.645c2.234-3.41,4.516-6.788,6.764-10.189.193-.29.633-.581.387-.964-.184-.288-.626-.138-.953-.143-.973-.013-1.946,0-2.918-.009a2.252,2.252,0,0,1-2.2-1.061,2.179,2.179,0,0,1,.353-2.4q4.154-6.2,8.278-12.418c.2-.3.618-.594.427-.966s-.677-.188-1.033-.2c-.9-.024-1.8.015-2.692-.017-2.108-.075-2.937-1.62-1.782-3.374,2.137-3.25,4.313-6.475,6.462-9.717A2.262,2.262,0,0,0,4981.034-140.043Zm17.494,27.679c2.443,0,4.642-.031,6.838.01a1.873,1.873,0,0,1,1.663,3.039c-.189.322-.408.626-.616.938q-5.851,8.777-11.7,17.554a8.8,8.8,0,0,0-.648,1.049,1.618,1.618,0,0,0,1.111,2.433,5.881,5.881,0,0,0,1.445.11q20.875.008,41.749,0a6.981,6.981,0,0,0,1.231-.049,1.678,1.678,0,0,0,1.275-2.594,10.831,10.831,0,0,0-.658-1.043q-6-9.012-12.015-18.02a2.183,2.183,0,0,1-.427-2.391,2.2,2.2,0,0,1,2.3-1.047c1.757.022,3.516.015,5.274,0,.308,0,.674.154.962-.235-.215-.336-.426-.684-.652-1.023q-5.569-8.358-11.144-16.712c-.536-.8-1-1.6-.459-2.591.519-.946,1.4-.993,2.329-.985,1.931.018,3.861.005,5.972.005-.294-.483-.471-.8-.671-1.1q-4.259-6.4-8.523-12.794c-.617-.926-1.449-1.821-.82-3.057.649-1.277,1.885-.954,2.98-1.012.887-.046,2.257.391,2.541-.179.366-.737-.735-1.558-1.234-2.315-2.794-4.25-5.647-8.463-8.438-12.715-.546-.831-.871-.86-1.38,0-.571.964-1.234,1.874-1.857,2.807q-3.827,5.742-7.65,11.488c-.153.23-.484.465-.274.782.157.237.484.129.737.132,1.085.011,2.172-.032,3.254.022a1.857,1.857,0,0,1,1.6,2.818,9.1,9.1,0,0,1-.6.947q-3.887,5.837-7.776,11.674c-.51.767-1,1.545-1.51,2.328a1.772,1.772,0,0,0,1.161.167c1.8.016,3.593-.03,5.386.027a1.847,1.847,0,0,1,1.662,2.78,8.62,8.62,0,0,1-.651,1.046q-5.477,8.218-10.955,16.434C4999.111-113.3,4998.9-112.948,4998.527-112.363Zm54.322-31.427c-2.591-3.889-5.021-7.522-7.433-11.167-.335-.505-.541-.362-.8.044-.32.505-.662,1-.994,1.494q-2.893,4.34-5.781,8.684c-.156.235-.482.473-.3.781s.546.149.83.157c.636.02,1.272.032,1.907,0,1.058-.052,1.979.169,2.341,1.29a2.128,2.128,0,0,1-1.074,2.475c-1.647,1.233-3.255,2.515-4.916,3.727-.632.461-.692.865-.231,1.472a13.189,13.189,0,0,1,1.16,1.785,1.855,1.855,0,0,1-1.615,2.873c-.447.027-.9.009-1.346.009h-5.289c.344.548.552.894.775,1.229q5.6,8.4,11.2,16.8c.512.767.986,1.53.482,2.485-.523.994-1.44,1.053-2.413,1.041-1.795-.021-3.589.013-5.384-.014-.792-.012-.813.23-.417.821q4.871,7.269,9.71,14.557a1.216,1.216,0,0,0,1.093.637c5.459-.013,10.919.018,16.377-.026,1.757-.014,2.442-1.344,1.572-2.845-.168-.291-.366-.565-.553-.844q-4.291-6.44-8.589-12.878a2.183,2.183,0,0,1-.306-2.318,2.059,2.059,0,0,1,2.075-1.05c.973.007,1.946.021,2.917-.01.386-.012.919.222,1.125-.213.162-.342-.26-.66-.461-.962q-4.156-6.26-8.331-12.51a2.062,2.062,0,0,1-.324-2.3,2.146,2.146,0,0,1,2.08-1.064c.9.007,1.8.022,2.693-.011.387-.014.92.231,1.13-.189.172-.344-.284-.645-.483-.945q-3.22-4.863-6.46-9.714a2.087,2.087,0,0,1-.307-2.307,2.043,2.043,0,0,1,2.094-1C5051.265-143.774,5051.928-143.791,5052.85-143.791Zm-47.124,13.622c-2.347,0-4.429.025-6.512-.008a1.885,1.885,0,0,1-1.7-3.025,9.661,9.661,0,0,1,.931-1.4c.644-.769.56-1.283-.292-1.885-1.739-1.228-3.4-2.566-5.085-3.872a1.845,1.845,0,0,1-.674-2.2,1.81,1.81,0,0,1,1.929-1.235c.747.017,1.5.019,2.243-.007.314-.011.744.179.912-.2.127-.285-.19-.538-.35-.78-2.195-3.3-4.414-6.584-6.577-9.9-.516-.793-.751-.626-1.189.042-2.195,3.345-4.428,6.664-6.64,10-.152.23-.434.433-.267.864.8,0,1.618-.044,2.434.01a1.83,1.83,0,0,1,1.589,2.736,10.948,10.948,0,0,1-.816,1.339c-2.007,3.02-4.025,6.034-6.027,9.057-.175.264-.573.534-.368.865.186.3.621.132.945.137,1.008.019,2.019-.024,3.027.02a1.941,1.941,0,0,1,1.72,3.125c-.17.29-.368.564-.554.844-2.406,3.609-4.824,7.208-7.206,10.833-.436.665-1.407,1.382-1.073,2.046.273.546,1.442.151,2.214.191.709.037,1.424-.03,2.129.03a1.9,1.9,0,0,1,1.608,2.917,10.318,10.318,0,0,1-.656,1.043q-4.291,6.441-8.581,12.882c-.417.627-.818,1.281-.38,2.077a2.039,2.039,0,0,0,1.984,1.012q8.021,0,16.04.009a1.3,1.3,0,0,0,1.228-.6q4.871-7.335,9.77-14.65c.378-.565.3-.771-.4-.764-1.98.018-3.963.03-5.944,0-1.855-.031-2.642-1.5-1.69-3.091.155-.256.329-.5.494-.749l9.52-14.278C5004.152-127.8,5004.852-128.856,5005.726-130.168Zm-20.474,49.3c0,1.945-.014,3.89,0,5.835.021,2.455-.352,2.112,2.238,2.189.945.028,1.217-.306,1.208-1.225-.038-4.152,0-8.3-.023-12.456-.017-2.65.465-2.291-2.407-2.35-.79-.016-1.043.28-1.031,1.05C4985.275-85.508,4985.252-83.188,4985.252-80.869Zm64.487.006c0-1.945.014-3.891,0-5.836-.022-2.449.35-2.105-2.245-2.183-.952-.029-1.209.318-1.2,1.229.039,4.152,0,8.3.024,12.457.017,2.644-.467,2.286,2.41,2.346.8.016,1.038-.291,1.027-1.055C5049.716-76.224,5049.737-78.544,5049.739-80.863Zm-30.528,2.606c0-.973.013-1.945,0-2.918-.041-2.607.418-2.252-2.334-2.315-.821-.019-1.127.243-1.112,1.088.043,2.393-.005,4.788.02,7.182.031,2.674-.459,2.311,2.389,2.369.768.016,1.076-.237,1.052-1.03C5019.179-75.338,5019.211-76.8,5019.211-78.257Z" transform="translate(-4968.404 173.476)" fill="#fff"></path></g></g><g id="zM86AM" transform="translate(4648.388 449.133)"><g id="Group_77" data-name="Group 77" transform="translate(0 0)"><path id="Path_95" data-name="Path 95" d="M4252.422,36.748a3.023,3.023,0,0,1-2.63,1.049c-2.172-.058-4.348-.006-6.521-.023-1.629-.013-2.294-.684-2.314-2.314-.015-1.383-.033-2.768.007-4.15.022-.788-.2-1.15-1.065-1.135-2.411.042-4.823.034-7.235,0-.764-.01-1.063.26-1.043,1.034.039,1.422.022,2.846,0,4.269-.02,1.575-.686,2.276-2.218,2.29q-3.555.033-7.114,0a1.94,1.94,0,0,1-2.208-2.177c-.025-1.462-.036-2.926,0-4.387.02-.78-.29-1.035-1.049-1.029-3.043.027-6.087.034-9.131,0-.866-.011-1.082.357-1.061,1.14.04,1.422.028,2.846,0,4.269a1.94,1.94,0,0,1-2.2,2.188q-3.559.034-7.115,0c-1.539-.014-2.208-.71-2.228-2.279-.017-1.423-.032-2.847,0-4.269.02-.764-.256-1.056-1.032-1.046-2.411.032-4.823.038-7.233,0-.849-.014-1.1.323-1.078,1.123.043,1.3.017,2.609.009,3.913-.009,1.947-.613,2.565-2.545,2.566q-16.363.006-32.729,0-9.606,0-19.211,0c-2.021,0-2.611-.592-2.611-2.616q-.006-21.168,0-42.336c0-2.091.574-2.653,2.688-2.657,2.648,0,5.3-.038,7.945.018.935.02,1.291-.328,1.53-1.207a155.282,155.282,0,0,0,4.736-24.993c.316-3.064.577-6.131.7-9.209.074-1.876.789-2.562,2.637-2.562q14.645-.007,29.29,0c1.875,0,2.532.682,2.574,2.589a128.768,128.768,0,0,0,1.572,17.682,2.1,2.1,0,0,1-1.533,2.657c-1.3.241-2.282-.529-2.5-2.044a129.308,129.308,0,0,1-1.484-15.315c-.034-1.518-.128-1.607-1.632-1.608q-11.682,0-23.361,0c-1.465,0-1.567.117-1.652,1.62a153.232,153.232,0,0,1-5.05,30.8c-.417,1.569-.43,1.567,1.146,1.567,3.083,0,6.167-.032,9.25.02a2,2,0,0,0,1.924-1.052c1.958-3.017,3.994-5.984,5.957-9a2.747,2.747,0,0,1,2.55-1.373c6.087.035,12.175-.013,18.262.043,1.066.01,1.441-.371,1.617-1.351,1.31-7.31,2.329-14.653,2.92-22.061.284-3.545.3-7.1.637-10.64a1.932,1.932,0,0,1,2.248-2.026q20.632-.012,41.268,0a1.917,1.917,0,0,1,2.2,2.072c.249,3.346.426,6.7.665,10.044a209.478,209.478,0,0,0,4.115,28.58,220.315,220.315,0,0,0,9.787,33.154c.155.4.353.792.532,1.188Zm-37.953-20.01q15.893,0,31.784.018c1.044,0,1.3-.181.91-1.246a226.2,226.2,0,0,1-9.891-35.582,229.7,229.7,0,0,1-3.842-31.839c-.06-1.174-.45-1.433-1.541-1.424-5.495.048-10.989.022-16.484.022-6.207,0-12.413.015-18.62-.016-.911,0-1.283.261-1.262,1.206s-.137,1.889-.178,2.836a188.793,188.793,0,0,1-2.236,21.192,220.85,220.85,0,0,1-11.251,43.4c-.539,1.428-.535,1.432.946,1.432ZM4159.626-5.869h-23.241c-1.537,0-1.54,0-1.541,1.582q0,9.13,0,18.261c0,6.205.015,12.411-.015,18.616,0,.906.232,1.312,1.2,1.242a18.645,18.645,0,0,1,2.961,0c1.114.1,1.409-.33,1.4-1.411-.048-5.573-.023-11.146-.021-16.719,0-2.208.542-2.761,2.7-2.762q10.672,0,21.344,0c2.112,0,2.688.568,2.688,2.657,0,5.652.021,11.3-.017,16.956-.007.99.312,1.3,1.29,1.279,2.251-.059,4.507-.071,6.757,0,1.088.037,1.324-.38,1.313-1.38-.045-4.308-.012-8.616-.026-12.924a6.481,6.481,0,0,1,.435-2.423,206.086,206.086,0,0,0,7.082-21.61c.364-1.362.354-1.369-1.071-1.369Q4171.247-5.87,4159.626-5.869Zm54.83,26.569c-10.907,0-21.815.012-32.723-.02-1.019,0-1.387.259-1.366,1.327.064,3.121,0,6.244.031,9.366.025,2.768-.5,2.394,2.569,2.457.864.018,1.084-.351,1.064-1.136-.039-1.461-.034-2.925,0-4.386a1.878,1.878,0,0,1,2.068-2.068q6.52-.036,13.042,0a1.916,1.916,0,0,1,2.117,2.145c.024.988-.01,1.976.011,2.964.059,2.794-.56,2.435,2.666,2.478.722.009.979-.28.968-.985q-.042-2.252,0-4.505a1.881,1.881,0,0,1,2.043-2.094q7.528-.036,15.057,0a1.866,1.866,0,0,1,2.021,2c.039,1.026,0,2.055.016,3.082.058,2.828-.545,2.455,2.638,2.508.811.014,1.012-.351,1-1.078-.03-1.5-.033-3,.005-4.505a1.857,1.857,0,0,1,2.012-2q6.58-.04,13.16,0a1.888,1.888,0,0,1,2.051,2.088c.029,1.027,0,2.055.012,3.082.043,2.725-.445,2.352,2.492,2.421.9.021,1.157-.312,1.147-1.175-.036-3.438-.014-6.876-.014-10.315,0-1.639,0-1.641-1.6-1.642Zm-50.5-30.751c.185.119.247.195.309.195q10.122.016,20.242.028c.648,0,.885-.309,1.01-.9.381-1.813.773-3.625,1.232-5.419.227-.888-.073-1.121-.914-1.118-5.406.019-10.812.01-16.218.01-.4,0-.815-.026-1.072.356Q4166.246-13.48,4163.956-10.05Zm-19.623,35.4c0,2.451.022,4.9-.014,7.353-.011.8.23,1.146,1.078,1.123,1.778-.046,3.56-.039,5.337,0,.777.016,1.034-.289,1.031-1.049q-.031-7.412,0-14.825c0-.747-.227-1.076-1.019-1.06-1.777.037-3.558.042-5.336,0-.834-.021-1.1.3-1.092,1.11C4144.356,20.452,4144.333,22.9,4144.333,25.355Zm18.809-.046c0-2.451-.019-4.9.011-7.353.009-.747-.226-1.078-1.017-1.061-1.779.037-3.559.042-5.337,0-.833-.021-1.1.294-1.092,1.109q.04,7.354,0,14.707c0,.8.228,1.146,1.079,1.123,1.737-.046,3.479-.051,5.218,0,.889.027,1.169-.3,1.154-1.17C4163.115,30.212,4163.143,27.76,4163.143,25.309Z" transform="translate(-4130.881 57.274)" fill="#fff"></path><path id="Path_96" data-name="Path 96" d="M4440.988,30.072c.055,5.059-.94,9.407-3.941,13.129-2.889,3.582-6.77,5.472-11.161,6.454-1.978.442-1.982.414-1.983,2.491,0,.474.007.948,0,1.422-.031,1.443-.776,2.271-2.012,2.253-1.188-.017-1.91-.826-1.941-2.2a22.043,22.043,0,0,1,.005-2.251c.075-.951-.224-1.386-1.247-1.57a20.512,20.512,0,0,1-9.356-4.063c-4.273-3.413-6.2-8.013-6.451-13.329-.577-12.09,4.575-21.688,13.2-29.714a38.009,38.009,0,0,1,4.376-3.438,2.27,2.27,0,0,1,2.852-.025c9.187,6.557,15.442,15.048,17.332,26.391A20.131,20.131,0,0,1,4440.988,30.072Zm-21.049-1.887c0-1.46-.012-2.921.007-4.381a1.188,1.188,0,0,0-.66-1.257q-4.4-2.179-8.786-4.4c-.465-.234-.8-.243-1.035.309a29.914,29.914,0,0,0-2.2,7.713,1.154,1.154,0,0,0,.685,1.345q5.569,2.757,11.117,5.559c.748.377.882.039.875-.628C4419.928,31.027,4419.939,29.605,4419.939,28.185Zm3.965-.211c0,1.46.025,2.921-.01,4.381-.021.838.187,1.08,1.009.663q5.437-2.758,10.907-5.448a1.278,1.278,0,0,0,.751-1.539,31.4,31.4,0,0,0-2.143-7.487c-.243-.584-.558-.655-1.1-.382q-4.329,2.193-8.681,4.342a1.253,1.253,0,0,0-.744,1.326C4423.924,25.211,4423.9,26.592,4423.9,27.974Zm-3.969,13.994h0c0-.949-.045-1.9.014-2.845a1.452,1.452,0,0,0-.968-1.557q-5.481-2.689-10.925-5.455c-.824-.418-1.086-.314-1.07.662.1,6.249,5.953,12.558,12.149,13.087.6.051.8-.135.8-.69C4419.931,44.1,4419.936,43.035,4419.936,41.968Zm3.97-.577c0,1.548.017,2.616-.006,3.682-.015.631.2.831.849.707,6.619-1.26,11.372-5.658,12.045-12.9.114-1.209,0-1.257-1.131-.693-2.794,1.39-5.518,2.952-8.4,4.135C4424.637,37.4,4423,38.792,4423.905,41.391Zm0-36.474c0,4.294.008,8.357-.008,12.42,0,.822.327.837.939.527,2.147-1.089,4.295-2.178,6.462-3.228.705-.342.684-.7.289-1.283a39.641,39.641,0,0,0-4.351-5.455A17.68,17.68,0,0,0,4423.905,4.917Zm-3.965-.144a40.2,40.2,0,0,0-7.834,8.828c-.347.527-.062.778.385,1,2.191,1.09,4.382,2.178,6.564,3.285.708.359.9.108.892-.6-.021-1.815-.006-3.632-.006-5.447Z" transform="translate(-4338.337 14.55)" fill="#fff"></path><path id="Path_97" data-name="Path 97" d="M4162.887,178.636c0-.669-.036-1.341.008-2.006a1.961,1.961,0,0,1,3.917,0c.055,1.336.055,2.677,0,4.013a1.961,1.961,0,0,1-3.917,0C4162.851,179.976,4162.887,179.3,4162.887,178.636Z" transform="translate(-4155.284 -119.724)" fill="#fff"></path><path id="Path_98" data-name="Path 98" d="M4198.777,178.634c0,.708.051,1.421-.012,2.124a1.888,1.888,0,0,1-2.008,1.747,1.841,1.841,0,0,1-1.889-1.741c-.068-1.414-.068-2.835,0-4.248a1.838,1.838,0,0,1,1.884-1.745,1.882,1.882,0,0,1,2.014,1.74C4198.829,177.212,4198.777,177.925,4198.777,178.634Z" transform="translate(-4179.65 -119.724)" fill="#fff"></path></g></g><g id="_8mOeWx" data-name="8mOeWx" transform="translate(4861.551 446.667)"><g id="Group_78" data-name="Group 78" transform="translate(0 0)"><path id="Path_99" data-name="Path 99" d="M4981.279-87.593q-6.393-3.287-12.785-6.573-16.034-8.226-32.082-16.426a2.759,2.759,0,0,1-1.709-2.814c.046-9.587.011-19.174.045-28.761a1.841,1.841,0,0,0-1.179-1.913c-3.383-1.7-2.868-.983-2.885-4.7-.025-4.927.02-9.854-.027-14.78a2.248,2.248,0,0,1,1.426-2.336q24.347-11.8,48.66-23.67a2.464,2.464,0,0,1,2.364.031q10.8,5.291,21.624,10.549,13.419,6.532,26.844,13.055a3.279,3.279,0,0,1,1.437,1.039v19.174a8.97,8.97,0,0,1-2.833,1.646,1.788,1.788,0,0,0-1.168,1.921c.034,9.652.008,19.3.036,28.956a2.5,2.5,0,0,1-1.53,2.516q-11.793,5.988-23.548,12.053-10.747,5.513-21.49,11.031Zm47.345-76.677c-2.259-1.093-4.265-2.059-6.266-3.034q-19.786-9.639-39.562-19.3a1.887,1.887,0,0,0-1.858.021q-22.288,10.881-44.59,21.735c-.335.164-.768.217-.967.673.242.141.465.282.7.4q22.425,11.5,44.842,23.022a1.985,1.985,0,0,0,2.041-.06Q5002.621-150.92,5022.3-161C5024.334-162.041,5026.361-163.1,5028.624-164.27Zm-48.172,58.582c0-4.427-.013-8.854.012-13.28a1.43,1.43,0,0,0-.858-1.5q-20.446-10.447-40.873-20.933c-1.112-.57-1.153-.544-1.153.66,0,8.82.008,17.64-.018,26.461a1.578,1.578,0,0,0,.982,1.627q20.44,10.457,40.857,20.958c.978.5,1.047.464,1.047-.616Q4980.456-99,4980.452-105.688Zm45.728-21.722q0-6.59,0-13.18c0-1.381-.006-1.387-1.2-.774q-6.529,3.349-13.053,6.7-13.815,7.08-27.636,14.145a1.425,1.425,0,0,0-1,1.406c.027,8.953.015,17.907.021,26.86,0,1.033.061,1.067,1.007.583q5.507-2.824,11.008-5.662,14.919-7.659,29.851-15.3a1.639,1.639,0,0,0,1.022-1.7C5026.16-118.689,5026.179-123.049,5026.179-127.41Zm4.172-27.194c0-2.2-.012-4.392.008-6.588.006-.631-.159-.778-.741-.464-1.258.679-2.535,1.325-3.808,1.978q-20.78,10.652-41.566,21.288a1.5,1.5,0,0,0-.955,1.54c.033,4.125.015,8.251.016,12.377,0,1.36.008,1.365,1.217.744q9.185-4.72,18.372-9.442,13.274-6.807,26.562-13.59a1.405,1.405,0,0,0,.913-1.455C5030.321-150.344,5030.352-152.474,5030.352-154.6Zm-96.947.016c0,2.1.034,4.193-.018,6.288a1.457,1.457,0,0,0,.933,1.544c3.453,1.723,6.88,3.5,10.312,5.257q17.356,8.907,34.709,17.818c1.06.544,1.107.524,1.108-.616,0-4.192-.017-8.384.018-12.576a1.465,1.465,0,0,0-.972-1.533c-1.178-.542-2.32-1.16-3.474-1.752q-20.863-10.708-41.718-21.43c-.825-.425-.923-.162-.911.612C4933.427-158.846,4933.4-156.716,4933.4-154.587Z" transform="translate(-4930.656 189.851)" fill="#fff" stroke="#fff" stroke-width="1"></path></g></g><path id="Path_22" data-name="Path 22" d="M2337.5,991.346c-7.906,0-15.811.026-23.717-.026a2.847,2.847,0,0,0-2.656,1.388c-4.021,5.831-8.1,11.624-12.158,17.428-1.625,2.321-2.4,2.582-5.058,1.7-2-.66-4-1.315-5.984-2-2.51-.867-3.162-2.343-2.09-4.775,1.8-4.085,3.609-8.168,5.464-12.228.5-1.1.42-1.482-.931-1.532a35.891,35.891,0,0,1-24.558-10.594c-5.346-5.252-10.6-10.6-15.92-15.878a4.58,4.58,0,0,1-1.416-3.442c.014-8.214,0-16.427.015-24.641.005-2.466,1.034-3.487,3.446-3.5q5.929-.023,11.858,0c2.121.007,2.926.6,3.553,2.677,2.18,7.219,4.377,14.434,6.476,21.676.393,1.354.926,1.909,2.409,1.886,5.7-.087,11.4-.076,17.094-.007,1.418.017,1.624-.431,1.3-1.691-1.276-4.915-2.495-9.845-3.7-14.777-.8-3.239.238-4.521,3.587-4.529,2,0,4.008.075,6.005-.023a3.747,3.747,0,0,1,3.618,2.1c3.591,5.805,7.252,11.568,10.818,17.389a2.756,2.756,0,0,0,2.7,1.528c5.749-.065,11.5.026,17.249-.04a33.305,33.305,0,0,1,24.7,9.971c2.485,2.452,4.991,4.885,7.392,7.418,3.9,4.113,3.549,9.819-.721,12.908a8.836,8.836,0,0,1-5.359,1.613Q2349.2,991.33,2337.5,991.346Z" transform="translate(2795.968 -468.036)" fill="none" stroke="#fff" stroke-miterlimit="10" stroke-width="3"></path><path id="Path_102" data-name="Path 102" d="M1147.959,601H1175" transform="translate(3442 -95)" fill="none" stroke="#fff" stroke-linecap="round" stroke-width="3" stroke-dasharray="5 0"></path><path id="Path_103" data-name="Path 103" d="M1147.959,601H1175" transform="translate(3845.897 -96.265)" fill="none" stroke="#fff" stroke-linecap="round" stroke-width="3" stroke-dasharray="5 0"></path><path id="Path_131" data-name="Path 131" d="M1147.959,601H1175" transform="translate(3652 -95)" fill="none" stroke="#fff" stroke-linecap="round" stroke-width="3" stroke-dasharray="5 0"></path></g></svg>