<svg xmlns="http://www.w3.org/2000/svg" width="375" height="127.187" viewBox="0 0 375 127.187"><g id="Group_122" data-name="Group 122" transform="translate(-239 392.093)"><g id="Group_6" data-name="Group 6" transform="translate(-83.009 -505.674)"><g id="Group_5" data-name="Group 5" transform="translate(322.009 113.581)"><g id="Group_3" data-name="Group 3" transform="translate(136.345 28.639)"><path id="Path_1" data-name="Path 1" d="M536.655,233.995q-2.3.689-5.279,1.32t-6.256,1.091q-3.271.457-6.657.746t-6.485.287a37.977,37.977,0,0,1-13.314-2.181A26.723,26.723,0,0,1,488.791,229a27.1,27.1,0,0,1-6.141-9.871,37.643,37.643,0,0,1-2.124-13.027,44.561,44.561,0,0,1,1.837-13.257,28.826,28.826,0,0,1,5.279-10.043,22.6,22.6,0,0,1,8.436-6.313,28.3,28.3,0,0,1,11.421-2.18,26.907,26.907,0,0,1,6.37.688,34.582,34.582,0,0,1,5.682,1.952V149.632l17.1-2.755ZM497.974,205.3q0,7.919,3.558,12.74t10.56,4.821q2.3,0,4.246-.172t3.214-.4V191.182a14.872,14.872,0,0,0-4.19-1.722,20.221,20.221,0,0,0-5.223-.688Q497.973,188.772,497.974,205.3Z" transform="translate(-480.527 -146.877)" fill="#fff"></path><path id="Path_2" data-name="Path 2" d="M590.736,162.2l17.1-2.754v17.791h20.545v14.233H607.839V212.7a16.886,16.886,0,0,0,1.894,8.608q1.893,3.215,7.633,3.214a32.7,32.7,0,0,0,5.681-.516,29.153,29.153,0,0,0,5.337-1.435l2.411,13.315a48.433,48.433,0,0,1-6.887,2.18,40.164,40.164,0,0,1-9.3.919,30.6,30.6,0,0,1-11.593-1.894,18.176,18.176,0,0,1-7.346-5.28,19.639,19.639,0,0,1-3.846-8.206,48.413,48.413,0,0,1-1.091-10.675Z" transform="translate(-495.942 -148.635)" fill="#fff"></path><path id="Path_3" data-name="Path 3" d="M666.362,178.37a39.624,39.624,0,0,1,12.626,1.722,19.628,19.628,0,0,1,8.092,4.935,18.176,18.176,0,0,1,4.3,7.8,38.529,38.529,0,0,1,1.263,10.216V238.63q-3.674.805-10.216,1.894a98.169,98.169,0,0,1-15.839,1.091,50.193,50.193,0,0,1-10.617-1.033,23.022,23.022,0,0,1-8.207-3.386,15.471,15.471,0,0,1-5.28-6.14,21.187,21.187,0,0,1-1.836-9.3,17.606,17.606,0,0,1,2.123-8.953,16.346,16.346,0,0,1,5.681-5.854,25.713,25.713,0,0,1,8.15-3.157,45.832,45.832,0,0,1,9.527-.975,54.378,54.378,0,0,1,5.911.287,26.6,26.6,0,0,1,4.19.746v-1.607a9.469,9.469,0,0,0-2.64-7q-2.642-2.64-9.182-2.64a58.713,58.713,0,0,0-8.608.631,37.056,37.056,0,0,0-7.346,1.78l-2.18-13.774q1.49-.457,3.73-.975t4.878-.918q2.639-.4,5.567-.689T666.362,178.37Zm1.377,50.045q2.524,0,4.821-.115a32.9,32.9,0,0,0,3.673-.344V214.985q-1.034-.228-3.1-.458a34.473,34.473,0,0,0-3.788-.23,34.08,34.08,0,0,0-4.534.286,11.887,11.887,0,0,0-3.73,1.091,6.394,6.394,0,0,0-2.525,2.181,6.066,6.066,0,0,0-.918,3.443q0,4.019,2.7,5.567A14.9,14.9,0,0,0,667.739,228.415Z" transform="translate(-502.924 -151.282)" fill="#fff"></path><path id="Path_4" data-name="Path 4" d="M748.738,195.184q-2.3-.573-5.395-1.205a33.431,33.431,0,0,0-6.657-.631,31.126,31.126,0,0,0-3.846.287,22.649,22.649,0,0,0-3.385.631v46.141h-17.1V183.247a102.95,102.95,0,0,1,10.847-3.041,62.491,62.491,0,0,1,13.946-1.435q1.376,0,3.329.172t3.9.459q1.949.288,3.9.688a18.48,18.48,0,0,1,3.329.976Z" transform="translate(-512.953 -151.338)" fill="#fff"></path><g id="Group_2" data-name="Group 2" transform="translate(65.587 1.148)"><g id="Group_1" data-name="Group 1" transform="translate(8.817 33.608)"><path id="Path_5" data-name="Path 5" d="M567.031,187.286h0Z" transform="translate(-567.031 -187.286)" fill="#fff"></path></g><path id="Path_6" data-name="Path 6" d="M575.884,240.613h-17.1V180.239h17.1Z" transform="translate(-557.06 -152.692)" fill="#fff"></path><path id="Path_7" data-name="Path 7" d="M577.211,158.313a9.387,9.387,0,0,1-3.042,7.4,10.888,10.888,0,0,1-14.347,0,10.528,10.528,0,0,1,0-14.806,10.887,10.887,0,0,1,14.347,0A9.392,9.392,0,0,1,577.211,158.313Z" transform="translate(-556.78 -148.212)" fill="#fff"></path></g></g><g id="Group_4" data-name="Group 4"><path id="Path_8" data-name="Path 8" d="M323.525,134.952a4.464,4.464,0,0,0-1.172,5.071c3.118,10.992,10.484,21.025,20.778,28.274a57.969,57.969,0,0,0,13.074,6.931,49.4,49.4,0,0,0,20.05,3.19c-.374.477-.743.961-1.1,1.455a39.606,39.606,0,0,0-7.191,13.693A39.025,39.025,0,0,0,366.918,212c.163,1.088.407,2.54.754,4.241,1.059,5.4,3.8,16.588,9.836,23.737a1.873,1.873,0,0,0,.231.275l.007.008h0a1.79,1.79,0,0,0,2.982-1.766h.007a60.97,60.97,0,0,1-2-7.475,23.4,23.4,0,0,0,5.72,2.8c.436.151,1.09.371,1.206.379a25.847,25.847,0,0,0,8.469.958c-.016-.007-.03-.015-.045-.023l.024.012.016.009a31.912,31.912,0,0,0,5.419-.52,35.609,35.609,0,0,0,4.068-1,43.628,43.628,0,0,0,22.657-17.156,45.99,45.99,0,0,0,6.863-15.08c.04-.163.072-.324.11-.486l.007-.011,0,0c1.969-8.393,1.274-16.772-1.978-23.627-.268.039-.537.077-.8.106-.342.044-.68.075-1.015.1.335-.025.673-.056,1.015-.1a23.557,23.557,0,0,0,4.293-.877,25.856,25.856,0,0,0,3.3-1.257,29.644,29.644,0,0,0,11.968-10.185c8.027-11.6,6.887-26.388-2.455-33.263-.282-.213-.706-.528-.789-.563a18.264,18.264,0,0,0-5.687-2.558h0l-.005,0-.03-.008,0,0c-.182-.048-.366-.092-.551-.135a38.392,38.392,0,0,1,6.112-3.365c1.19-.53.962-2.111-.305-2.043-7.688.409-15.96,4.587-21.019,7.616a30.735,30.735,0,0,0-16.2,23.723,30.836,30.836,0,0,0,.677,7.757c-.089-.009-.178-.02-.266-.027s-.154-.016-.232-.022c-.666-.053-1.338-.084-2.014-.09h0a33,33,0,0,0-9.206,1.263,54.17,54.17,0,0,0-10.333-27.771c-10.549-14.694-27.226-23.27-42.487-21.848a4.5,4.5,0,0,0-4.066,4.714,47.693,47.693,0,0,0,.932,12.352,40.517,40.517,0,0,0-17.465,3.426A4.469,4.469,0,0,0,323.525,134.952ZM371.668,169.4a45.748,45.748,0,0,1-23.361-8.45,44.861,44.861,0,0,1-16.139-19.926,34.443,34.443,0,0,1,12.693-1.087v0a57.6,57.6,0,0,0,6.656,12.056,55.2,55.2,0,0,0,20.259,17.46C371.74,169.429,371.7,169.414,371.668,169.4ZM358.82,146.743a44.855,44.855,0,0,1-8.7-24.129c11.005.573,22.541,7.4,30.306,18.211a45.581,45.581,0,0,1,8.7,24.148C378.134,164.4,366.578,157.549,358.82,146.743Zm46.137,77.813c-7.1,3.045-14.405,3.075-20.048-.631-5.388-3.538-8.234-9.809-8.473-17.074l0-.147.124.181a40.123,40.123,0,0,0,28.4,17.67m-12.43-12.176A26.325,26.325,0,0,1,381.384,199.3a15.644,15.644,0,0,1-.251-11.033,34.673,34.673,0,0,0,37.628,22.57c.441-.08.878-.173,1.312-.274C414.892,217.81,402.78,218.682,392.527,212.379Zm8.544-14.514c-8.891-5.467-12.92-15.166-9.2-21.865a30.772,30.772,0,0,1,7.98-3.808,22.526,22.526,0,0,1,10.955-.728c.369.073.734.159,1.094.254.079.021.157.044.236.066q.408.112.807.242c.107.035.212.071.318.108.246.085.489.177.73.273.1.039.2.077.3.118.33.138.656.283.976.441a18.318,18.318,0,0,1,3.582,2.367c5.327,4.692,7.443,12.393,6.25,20.591l.012-.016C420.987,202.6,410.147,203.446,401.07,197.865Zm40.909-37.116a19.678,19.678,0,0,1-9.826,7.156c-3.62,1.094-7.035.718-9.616-1.067.1.071.217.126.323.193-.09-.059-.179-.125-.27-.182s-.144-.109-.218-.161c-2.575-1.781-4.13-4.839-4.376-8.611a21.19,21.19,0,0,1,14.093-20.425c3.6-1.107,6.994-.736,9.56,1.039l.277.232c4.419,3.058,5.549,9.494,3.292,15.837A33.164,33.164,0,0,1,441.979,160.749Z" transform="translate(-322.009 -113.581)" fill="#fff"></path></g></g></g></g></svg>