<svg xmlns="http://www.w3.org/2000/svg" width="490.807" height="505.911" viewBox="0 0 490.807 505.911"><g id="Group_93" data-name="Group 93" transform="translate(-1073.229 -1285.901)"><g id="jDjibL" transform="translate(1073.229 1285.901)"><g id="Group_32" data-name="Group 32"><path id="Path_55" data-name="Path 55" d="M1509.258,1379.578c2.629.365,5.289.578,7.881,1.124,6.12,1.287,12.305,2.4,18.287,4.181a108.873,108.873,0,0,1,33.466,17.056,118.1,118.1,0,0,1,39.434,51.215,122.611,122.611,0,0,1,6.813,25.489,113.58,113.58,0,0,1,1.079,24.316,105.122,105.122,0,0,1-7.417,34.239,204.416,204.416,0,0,1-10.27,20.908c-6.5,11.842-13.325,23.5-20.028,35.232q-9.493,16.616-19.017,33.215c-4.463,7.767-8.985,15.5-13.452,23.268q-12.006,20.873-23.977,41.762c-3.755,6.533-7.338,13.172-11.33,19.557-5.059,8.094-17.362,7.72-22.087-.413-6.5-11.193-12.888-22.454-19.344-33.674-4.655-8.093-23.888-41.552-28.849-50.186-5.171-9.008-10.4-17.979-15.555-27q-9.12-15.958-18.142-31.978c-4.174-7.424-8.512-14.771-12.3-22.39a102.279,102.279,0,0,1-10.225-35.64,146.165,146.165,0,0,1-.865-17.7,112.3,112.3,0,0,1,4.374-28.214,116.268,116.268,0,0,1,18.737-37.916,113.553,113.553,0,0,1,22.368-22.642,115.848,115.848,0,0,1,38.758-19.593,97.066,97.066,0,0,1,21.9-3.928,1.9,1.9,0,0,0,.63-.289Zm-61.229,125.881c-.434,28.61,23.243,51.083,49.711,51.969a51.988,51.988,0,1,0,.656-103.911C1470.955,1454.169,1447.543,1477.193,1448.029,1505.459Z" transform="translate(-1383.333 -1379.578)" fill="#a7d400"></path></g></g><g id="Group_92" data-name="Group 92" transform="translate(1189.775 1297.739)"><g id="Group_91" data-name="Group 91" transform="translate(0 0)"><g id="hvKh2W" transform="translate(0 0)"><g id="Group_35" data-name="Group 35"><g id="Group_34" data-name="Group 34"><path id="Path_57" data-name="Path 57" d="M5327.652,1486.19c-7.658-3.662-9.31-11.754-3.919-17.4a11.569,11.569,0,0,0,3.3-6.939c.674-6.175,1.388-12.346,1.948-18.531.232-2.574.422-5.119-1.054-7.617-1.621-2.744-.34-4.075,2.676-3.533,2.982.536,5.565.586,6.766-2.953,1.113-3.285.772-5.829-2.268-8.174-4.391-3.387-4.121-5.308.713-8.651,1.735-1.2,2.653-2.742,1.7-4.564-1.972-3.761-3.3-7.911-6.62-10.9-3.084-2.78-2.082-14.713,1.276-17.388,1.585-1.261,3.121-.688,4.608-.022,4.052,1.812,7.3.409,10.261-2.366,6.157-5.782,8.705-16.934,5.69-24.85a13.577,13.577,0,0,1-.854-2.294c-.229-1.243-.778-2.748.62-3.565,1.2-.7,2.321.288,2.966,1.139,4.291,5.662,9.972,10.7,8.892,18.9-.111.841-.143,1.738.921,1.95a2.079,2.079,0,0,0,2.354-1.38c.93-2.435,1.42-5.057,2.514-7.405,1.46-3.138-.936-4.387-2.463-6.176-1.962-2.3-1.66-3.937,1.6-4.121,2.527-.142,4.257-1.493,5.895-3.147.116-.117.221-.294.359-.327,10.552-2.447,15.455-13.125,24.946-17.112,2.265-.952,4.562-2.411,5.911,1.316.564,1.559,2.063,1.455,3.325.728,1.651-.951,2.389-2.743,1.494-4.2-1.827-2.977-.683-4.784,1.608-6.63a4.074,4.074,0,0,0,1.606-3.472c-1.16-10.325,7.377-13.763,13.512-18.649,4.161-3.315,9.075-5.69,13.683-8.436,3.129-1.864,5.745-.7,7.785,1.8,1.475,1.806,2.787,3.65,5.232,4.156,1.256.26,1.953,2.624,3.725.959,1.345-1.263,2.34-2.491,2.131-4.634-.475-4.806.839-5.714,5.581-4.369q7.077,2.006,14.188,3.923c5.832,1.561,11.246.328,16.616-2.2,7.315-3.437,14.282-7.919,23.206-6.05,3.957.829,6.136-2.72,7.157-6.151,2.189-7.353,2.382-7.486,8.246-2.471,2.23-6.164,8.7-8.538,14.94-5.755a25.693,25.693,0,0,1,10.566,8.512c2.083,2.856,1.084,4.7-2.061,5.278a28.267,28.267,0,0,1-6.846.144c-7-.449-13.649,1.252-20.268,3.157a5.644,5.644,0,0,0-2.652,1.212c-6.289,7.239-13.331,13.9-18.423,22.059-1.89,3.026-3.27,6.363-5.859,8.935-3.5,3.473-6.824,7.041-8.665,11.772-1.01,2.6-3.356,3.964-5.79,5.04-3.033,1.341-4.394,3.144-2.654,6.521,2.055,3.984.268,6.183-3.765,7.053a22.11,22.11,0,0,0-2.393.533c-1.316.441-2.407,1.233-2.4,2.759,0,1.645,1.24,2.235,2.63,2.355,7.991.688,10.86,5.744,11.114,13a25.638,25.638,0,0,0,5.422,15.468c2.453,3.108,2.42,6.253.261,9.513-2.9,4.383-4.855,8.7.39,12.955,1.569,1.274.545,2.958-.192,4.478-2.39,4.922-1.727,6.486,3.434,8.194,5.359,1.774,10.986,1.736,16.519,2.086,4.579.29,8.71,1.277,12.221,4.336,1.857,1.62,3.862,2.448,6.266,1.07,2.712-1.555,5.126-.716,7.148,1.261,2.945,2.879,6.146,4.094,10.248,2.726,3.718-1.239,5.692.926,7.34,3.987,3.955,7.35,8.152,14.571,12.154,21.9,2.272,4.161,5.444,5.471,9.792,3.472a9.571,9.571,0,0,1,9.374.585c2.976,1.738,5.939,2.444,9.271.653,3.069-1.65,5.771-.366,7.942,1.95,3.621,3.864,7.65,4.743,12.362,2.151,2.705-1.487,5.145-1.341,6.543,1.753,1.426,3.15.494,5.792-2.442,7.569a7.448,7.448,0,0,1-3.26,1c-5.088.341-8.368,2.023-6.475,7.986.095.3.137.885.016.942-4.966,2.356-3.241,8.72-6.954,11.666-1.89,1.5-1.554,2.6-.342,4.019,1.634,1.908,1.655,3.741-.753,4.727-3.62,1.482-3.013,3.288-.744,5.356,3.386,3.086,2.959,5.409-1.141,7.38-3.208,1.544-3.218,3.753-.953,6.271a69.018,69.018,0,0,0,8.406,8.048c10.774,8.555,9.933,21.588-1.562,29.075-2.781,1.811-4.917,3.826-1.629,6.281,8.233,6.144,7.426,15.281,8.967,23.813,1.386,7.681.889,15.716,4.212,23.04,1.354,2.982.184,4.13-2.93,4.35-8.926.628-12.063-2.86-9.135-11.209a14.955,14.955,0,0,0-2.2-14.791c-1.583-2.154-.456-6.536-3.753-6.589-2.035-.032-4.146,2.853-6.178,4.484-4.579,3.668-4.568,3.68-10.5-2.294-.323,1.426-.658,2.64-.865,3.874-.52,3.094-2.319,3.775-4.965,2.578-6.8-3.081-14.044-4.379-21.356-5.335a19.521,19.521,0,0,1-10.344-4.07c-1.577-1.3-3.288-2.34-4.455.76-1.037,2.75-3.659,3.457-6.142,2.833-5.163-1.3-4.755,2.877-5.386,5.468-.607,2.5,1.644,1.784,2.969,1.534a13.8,13.8,0,0,1,9.885,1.941c7.5,4.429,9.839,17.6,4.349,24.469-2.091,2.619-9.246,2.386-12.351-1.038-2.244-2.476-3.574-2.358-5.968-.456s-5.3,1.4-7.917.058c-2.548-1.31-4.038-.848-4.377,2.165a6.012,6.012,0,0,1-.412,1.915c-3.264,6.844-4.839,12.838,4.761,16.309,3.021,1.093,4.122,5.009,2.828,8.581-1.657,4.569-.334,8.26,2.9,11.625a21.523,21.523,0,0,1,4.68,7.989c1.5,4.278.927,7.569-3.328,10-3.744,2.142-5.733,5.811-6.894,9.831-5.95,20.646-14.62,40.292-22.1,60.376-1.147,3.083-2.323,6.139-4.774,8.477a6.434,6.434,0,0,1-6.8,1.65c-2.731-.905-3.015-3.294-2.733-5.659.653-5.5-4.756-9.27-4.057-14.837.149-1.216-1.417-1.014-2.271-.373-1.045.784-1.957,1.745-3,2.531-1.69,1.278-3.549,1.924-5.354.317a4.652,4.652,0,0,1-1.456-5.332,5.346,5.346,0,0,1,1.142-2.146c7.673-7.04,13.624-15.936,22.876-21.275.823-.476,1.959-.826,1.866-2.012-.089-1.168-1.212-1.629-2.126-1.735-3.469-.4-4.608-2.418-4.709-5.687-.109-3.622-4.033-3.36-5.878-5.264-1.909-1.969-3.873-1.5-6.535-1.512a42.563,42.563,0,0,0-17.426,3.342c-2.477,1.051-4.216-1.82-5.642-3.876-4.653-6.717-4.665-6.707-11.584-2.51-4.065,2.465-16.923,1.464-20.9-2.02-2.405-2.111-4.431-2.932-7.382-1.2-3.543,2.081-6.308,1.62-7.115-3.049a4.4,4.4,0,0,0-2.294-3.041c-4.438-2.663-3.957-5.843-1.078-9.354a24.737,24.737,0,0,0,2.261-3.209c1.668-2.866,1.292-5.421-1.655-7.146-3.731-2.181-6.833-4.411-5.512-9.632.568-2.242-1.629-2.967-3.5-3.2a7.159,7.159,0,0,1-6.333-4.676c-.883-2.192-2.826-3.14-5.042-3.424-5.385-.69-7.053-3.918-6.549-8.971a29.809,29.809,0,0,0-.033-7.825c-.567-3.361-3.4-4.986-6.2-6.487-3.17-1.7-6.288-3.493-9.4-5.289-2.423-1.4-4.084-3.379-3.928-6.322.152-2.9-1.14-3.849-3.945-4.332-5.175-.891-9.03-4.47-13.019-7.584-4.1-3.2-8.258-5.989-13.855-4.723a2.219,2.219,0,0,1-1.453-.071c-6.856-3.989-15.978-4.2-20.425-12.209-1.8-3.24-4.238-5.168-8.254-5-3.721.155-6.544-1.852-8.56-4.915a20.975,20.975,0,0,0-11.354-8.9,8.275,8.275,0,0,1-4.384-2.984c-3.656-6.081-9.814-8.872-15.418-12.425-1.372-.867-3.171-1.637-2.822-3.6.372-2.1,2.2-2.645,4.121-2.776a3.513,3.513,0,0,0,1.453-.182c2.425-1.426,5.627,1.667,7.407-.728,1.647-2.214-1.481-4.565-1.329-6.848.34-5.118,2.991-9.249,7.032-12.35,2.64-2.029,4.7-3.869,4.866-7.8.186-4.429,3.363-7.31,7.783-8.428,5.078-1.285,10.089-1.336,14.749,1.4,1.7,1,.774,2.623.318,3.98a2.642,2.642,0,0,1-3.377,2.012c-2.557-.52-5.063-1.445-7.743-1.083-1.9.258-3.658.9-3.836,3.095-.164,2.039,1.51,2.8,3.115,3.232,3.93,1.046,7.928,2.26,11.593-.762.745-.614,1.938-1.34,1.969-2.055.233-5.527,5.135-9.88,3.709-15.912-.486-2.063-1.124-5.288,2.218-6.2,2.479-.675,4.783-.469,5.765,2.826.548,1.846,1.767.513,2.589-.218C5323.385,1490.009,5325.327,1488.266,5327.652,1486.19Z" transform="translate(-5258.984 -1267.472)" stroke="#000" stroke-linecap="round" stroke-linejoin="round" stroke-width="6"></path></g></g></g></g><g id="jDjibL-2" data-name="jDjibL" transform="translate(292.299 238.12)"><g id="Group_32-2" data-name="Group 32"><path id="Path_55-2" data-name="Path 55" d="M1391.5,1379.578c.171.024.344.037.511.073.4.084.8.156,1.187.271a7.06,7.06,0,0,1,2.171,1.107,7.662,7.662,0,0,1,2.559,3.323,7.938,7.938,0,0,1,.442,1.654,7.351,7.351,0,0,1,.07,1.578,6.819,6.819,0,0,1-.481,2.221,13.244,13.244,0,0,1-.667,1.357c-.422.768-.865,1.525-1.3,2.286q-.616,1.078-1.234,2.155c-.29.5-.583,1.006-.873,1.51q-.779,1.355-1.556,2.71c-.244.424-.476.855-.735,1.269a.848.848,0,0,1-1.433-.027c-.422-.726-.836-1.457-1.255-2.185l-1.872-3.257c-.336-.584-.675-1.167-1.009-1.751q-.592-1.036-1.177-2.075c-.271-.482-.552-.959-.8-1.453a6.646,6.646,0,0,1-.663-2.313,9.483,9.483,0,0,1-.056-1.148,7.283,7.283,0,0,1,.284-1.831,7.539,7.539,0,0,1,1.216-2.46,7.369,7.369,0,0,1,1.451-1.469,7.519,7.519,0,0,1,2.515-1.271,6.324,6.324,0,0,1,1.421-.255.126.126,0,0,0,.041-.019Zm-3.973,8.168a3.369,3.369,0,1,0,3.268-3.37A3.366,3.366,0,0,0,1387.531,1387.746Z" transform="translate(-1383.333 -1379.578)" fill="#fff"></path></g></g><g id="jDjibL-3" data-name="jDjibL" transform="translate(232.654 255.51)"><g id="Group_32-3" data-name="Group 32"><path id="Path_55-3" data-name="Path 55" d="M1398.023,1379.578c.306.043.617.068.919.131.714.15,1.435.28,2.133.488a12.688,12.688,0,0,1,3.9,1.989,13.784,13.784,0,0,1,4.6,5.975,14.276,14.276,0,0,1,.795,2.974,13.236,13.236,0,0,1,.126,2.837,12.263,12.263,0,0,1-.865,3.994,23.853,23.853,0,0,1-1.2,2.439c-.759,1.381-1.555,2.742-2.337,4.11q-1.107,1.939-2.218,3.875c-.521.906-1.048,1.808-1.569,2.714q-1.4,2.435-2.8,4.872c-.438.762-.856,1.537-1.322,2.282a1.524,1.524,0,0,1-2.577-.048c-.759-1.306-1.5-2.619-2.256-3.928l-3.366-5.855c-.6-1.051-1.213-2.1-1.814-3.149q-1.064-1.862-2.116-3.731c-.487-.866-.993-1.723-1.436-2.612a11.938,11.938,0,0,1-1.193-4.158,16.976,16.976,0,0,1-.1-2.065,13.083,13.083,0,0,1,.51-3.292,13.556,13.556,0,0,1,2.186-4.423,13.253,13.253,0,0,1,2.609-2.642,13.518,13.518,0,0,1,4.521-2.285,11.334,11.334,0,0,1,2.555-.458.22.22,0,0,0,.073-.034Zm-7.143,14.685a6.057,6.057,0,1,0,5.876-6.06A6.053,6.053,0,0,0,1390.88,1394.263Z" transform="translate(-1383.333 -1379.578)" fill="#fff"></path></g></g><g id="jDjibL-4" data-name="jDjibL" transform="translate(98.535 255.51)"><g id="Group_32-4" data-name="Group 32"><path id="Path_55-4" data-name="Path 55" d="M1398.023,1379.578c.306.043.617.068.919.131.714.15,1.435.28,2.133.488a12.688,12.688,0,0,1,3.9,1.989,13.784,13.784,0,0,1,4.6,5.975,14.276,14.276,0,0,1,.795,2.974,13.236,13.236,0,0,1,.126,2.837,12.263,12.263,0,0,1-.865,3.994,23.853,23.853,0,0,1-1.2,2.439c-.759,1.381-1.555,2.742-2.337,4.11q-1.107,1.939-2.218,3.875c-.521.906-1.048,1.808-1.569,2.714q-1.4,2.435-2.8,4.872c-.438.762-.856,1.537-1.322,2.282a1.524,1.524,0,0,1-2.577-.048c-.759-1.306-1.5-2.619-2.256-3.928l-3.366-5.855c-.6-1.051-1.213-2.1-1.814-3.149q-1.064-1.862-2.116-3.731c-.487-.866-.993-1.723-1.436-2.612a11.938,11.938,0,0,1-1.193-4.158,16.976,16.976,0,0,1-.1-2.065,13.083,13.083,0,0,1,.51-3.292,13.556,13.556,0,0,1,2.186-4.423,13.253,13.253,0,0,1,2.609-2.642,13.518,13.518,0,0,1,4.521-2.285,11.334,11.334,0,0,1,2.555-.458.22.22,0,0,0,.073-.034Zm-7.143,14.685a6.057,6.057,0,1,0,5.876-6.06A6.053,6.053,0,0,0,1390.88,1394.263Z" transform="translate(-1383.333 -1379.578)" fill="#fff"></path></g></g><g id="jDjibL-5" data-name="jDjibL" transform="translate(134.137 294.876)"><g id="Group_32-5" data-name="Group 32"><path id="Path_55-5" data-name="Path 55" d="M1391.5,1379.578c.171.024.344.037.511.073.4.084.8.156,1.187.271a7.06,7.06,0,0,1,2.171,1.107,7.662,7.662,0,0,1,2.559,3.323,7.938,7.938,0,0,1,.442,1.654,7.351,7.351,0,0,1,.07,1.578,6.819,6.819,0,0,1-.481,2.221,13.244,13.244,0,0,1-.667,1.357c-.422.768-.865,1.525-1.3,2.286q-.616,1.078-1.234,2.155c-.29.5-.583,1.006-.873,1.51q-.779,1.355-1.556,2.71c-.244.424-.476.855-.735,1.269a.848.848,0,0,1-1.433-.027c-.422-.726-.836-1.457-1.255-2.185l-1.872-3.257c-.336-.584-.675-1.167-1.009-1.751q-.592-1.036-1.177-2.075c-.271-.482-.552-.959-.8-1.453a6.646,6.646,0,0,1-.663-2.313,9.483,9.483,0,0,1-.056-1.148,7.283,7.283,0,0,1,.284-1.831,7.539,7.539,0,0,1,1.216-2.46,7.369,7.369,0,0,1,1.451-1.469,7.519,7.519,0,0,1,2.515-1.271,6.324,6.324,0,0,1,1.421-.255.126.126,0,0,0,.041-.019Zm-3.973,8.168a3.369,3.369,0,1,0,3.268-3.37A3.366,3.366,0,0,0,1387.531,1387.746Z" transform="translate(-1383.333 -1379.578)" fill="#fff"></path></g></g><g id="jDjibL-6" data-name="jDjibL" transform="translate(202.406 191.238)"><g id="Group_32-6" data-name="Group 32"><path id="Path_55-6" data-name="Path 55" d="M1391.5,1379.578c.171.024.344.037.511.073.4.084.8.156,1.187.271a7.06,7.06,0,0,1,2.171,1.107,7.662,7.662,0,0,1,2.559,3.323,7.938,7.938,0,0,1,.442,1.654,7.351,7.351,0,0,1,.07,1.578,6.819,6.819,0,0,1-.481,2.221,13.244,13.244,0,0,1-.667,1.357c-.422.768-.865,1.525-1.3,2.286q-.616,1.078-1.234,2.155c-.29.5-.583,1.006-.873,1.51q-.779,1.355-1.556,2.71c-.244.424-.476.855-.735,1.269a.848.848,0,0,1-1.433-.027c-.422-.726-.836-1.457-1.255-2.185l-1.872-3.257c-.336-.584-.675-1.167-1.009-1.751q-.592-1.036-1.177-2.075c-.271-.482-.552-.959-.8-1.453a6.646,6.646,0,0,1-.663-2.313,9.483,9.483,0,0,1-.056-1.148,7.283,7.283,0,0,1,.284-1.831,7.539,7.539,0,0,1,1.216-2.46,7.369,7.369,0,0,1,1.451-1.469,7.519,7.519,0,0,1,2.515-1.271,6.324,6.324,0,0,1,1.421-.255.126.126,0,0,0,.041-.019Zm-3.973,8.168a3.369,3.369,0,1,0,3.268-3.37A3.366,3.366,0,0,0,1387.531,1387.746Z" transform="translate(-1383.333 -1379.578)" fill="#fff"></path></g></g><g id="jDjibL-7" data-name="jDjibL" transform="translate(167.654 92.666)"><g id="Group_32-7" data-name="Group 32"><path id="Path_55-7" data-name="Path 55" d="M1391.5,1379.578c.171.024.344.037.511.073.4.084.8.156,1.187.271a7.06,7.06,0,0,1,2.171,1.107,7.662,7.662,0,0,1,2.559,3.323,7.938,7.938,0,0,1,.442,1.654,7.351,7.351,0,0,1,.07,1.578,6.819,6.819,0,0,1-.481,2.221,13.244,13.244,0,0,1-.667,1.357c-.422.768-.865,1.525-1.3,2.286q-.616,1.078-1.234,2.155c-.29.5-.583,1.006-.873,1.51q-.779,1.355-1.556,2.71c-.244.424-.476.855-.735,1.269a.848.848,0,0,1-1.433-.027c-.422-.726-.836-1.457-1.255-2.185l-1.872-3.257c-.336-.584-.675-1.167-1.009-1.751q-.592-1.036-1.177-2.075c-.271-.482-.552-.959-.8-1.453a6.646,6.646,0,0,1-.663-2.313,9.483,9.483,0,0,1-.056-1.148,7.283,7.283,0,0,1,.284-1.831,7.539,7.539,0,0,1,1.216-2.46,7.369,7.369,0,0,1,1.451-1.469,7.519,7.519,0,0,1,2.515-1.271,6.324,6.324,0,0,1,1.421-.255.126.126,0,0,0,.041-.019Zm-3.973,8.168a3.369,3.369,0,1,0,3.268-3.37A3.366,3.366,0,0,0,1387.531,1387.746Z" transform="translate(-1383.333 -1379.578)" fill="#fff"></path></g></g><g id="jDjibL-8" data-name="jDjibL" transform="translate(231.126 371.553)"><g id="Group_32-8" data-name="Group 32"><path id="Path_55-8" data-name="Path 55" d="M1391.5,1379.578c.171.024.344.037.511.073.4.084.8.156,1.187.271a7.06,7.06,0,0,1,2.171,1.107,7.662,7.662,0,0,1,2.559,3.323,7.938,7.938,0,0,1,.442,1.654,7.351,7.351,0,0,1,.07,1.578,6.819,6.819,0,0,1-.481,2.221,13.244,13.244,0,0,1-.667,1.357c-.422.768-.865,1.525-1.3,2.286q-.616,1.078-1.234,2.155c-.29.5-.583,1.006-.873,1.51q-.779,1.355-1.556,2.71c-.244.424-.476.855-.735,1.269a.848.848,0,0,1-1.433-.027c-.422-.726-.836-1.457-1.255-2.185l-1.872-3.257c-.336-.584-.675-1.167-1.009-1.751q-.592-1.036-1.177-2.075c-.271-.482-.552-.959-.8-1.453a6.646,6.646,0,0,1-.663-2.313,9.483,9.483,0,0,1-.056-1.148,7.283,7.283,0,0,1,.284-1.831,7.539,7.539,0,0,1,1.216-2.46,7.369,7.369,0,0,1,1.451-1.469,7.519,7.519,0,0,1,2.515-1.271,6.324,6.324,0,0,1,1.421-.255.126.126,0,0,0,.041-.019Zm-3.973,8.168a3.369,3.369,0,1,0,3.268-3.37A3.366,3.366,0,0,0,1387.531,1387.746Z" transform="translate(-1383.333 -1379.578)" fill="#fff"></path></g></g><g id="jDjibL-9" data-name="jDjibL" transform="translate(217.53 150.367)"><g id="Group_32-9" data-name="Group 32"><path id="Path_55-9" data-name="Path 55" d="M1391.5,1379.578c.171.024.344.037.511.073.4.084.8.156,1.187.271a7.06,7.06,0,0,1,2.171,1.107,7.662,7.662,0,0,1,2.559,3.323,7.938,7.938,0,0,1,.442,1.654,7.351,7.351,0,0,1,.07,1.578,6.819,6.819,0,0,1-.481,2.221,13.244,13.244,0,0,1-.667,1.357c-.422.768-.865,1.525-1.3,2.286q-.616,1.078-1.234,2.155c-.29.5-.583,1.006-.873,1.51q-.779,1.355-1.556,2.71c-.244.424-.476.855-.735,1.269a.848.848,0,0,1-1.433-.027c-.422-.726-.836-1.457-1.255-2.185l-1.872-3.257c-.336-.584-.675-1.167-1.009-1.751q-.592-1.036-1.177-2.075c-.271-.482-.552-.959-.8-1.453a6.646,6.646,0,0,1-.663-2.313,9.483,9.483,0,0,1-.056-1.148,7.283,7.283,0,0,1,.284-1.831,7.539,7.539,0,0,1,1.216-2.46,7.369,7.369,0,0,1,1.451-1.469,7.519,7.519,0,0,1,2.515-1.271,6.324,6.324,0,0,1,1.421-.255.126.126,0,0,0,.041-.019Zm-3.973,8.168a3.369,3.369,0,1,0,3.268-3.37A3.366,3.366,0,0,0,1387.531,1387.746Z" transform="translate(-1383.333 -1379.578)" fill="#fff"></path></g></g><g id="jDjibL-10" data-name="jDjibL" transform="translate(225.092 38.572)"><g id="Group_32-10" data-name="Group 32"><path id="Path_55-10" data-name="Path 55" d="M1391.5,1379.578c.171.024.344.037.511.073.4.084.8.156,1.187.271a7.06,7.06,0,0,1,2.171,1.107,7.662,7.662,0,0,1,2.559,3.323,7.938,7.938,0,0,1,.442,1.654,7.351,7.351,0,0,1,.07,1.578,6.819,6.819,0,0,1-.481,2.221,13.244,13.244,0,0,1-.667,1.357c-.422.768-.865,1.525-1.3,2.286q-.616,1.078-1.234,2.155c-.29.5-.583,1.006-.873,1.51q-.779,1.355-1.556,2.71c-.244.424-.476.855-.735,1.269a.848.848,0,0,1-1.433-.027c-.422-.726-.836-1.457-1.255-2.185l-1.872-3.257c-.336-.584-.675-1.167-1.009-1.751q-.592-1.036-1.177-2.075c-.271-.482-.552-.959-.8-1.453a6.646,6.646,0,0,1-.663-2.313,9.483,9.483,0,0,1-.056-1.148,7.283,7.283,0,0,1,.284-1.831,7.539,7.539,0,0,1,1.216-2.46,7.369,7.369,0,0,1,1.451-1.469,7.519,7.519,0,0,1,2.515-1.271,6.324,6.324,0,0,1,1.421-.255.126.126,0,0,0,.041-.019Zm-3.973,8.168a3.369,3.369,0,1,0,3.268-3.37A3.366,3.366,0,0,0,1387.531,1387.746Z" transform="translate(-1383.333 -1379.578)" fill="#fff"></path></g></g><g id="jDjibL-11" data-name="jDjibL" transform="translate(110.603 150.367)"><g id="Group_32-11" data-name="Group 32"><path id="Path_55-11" data-name="Path 55" d="M1391.5,1379.578c.171.024.344.037.511.073.4.084.8.156,1.187.271a7.06,7.06,0,0,1,2.171,1.107,7.662,7.662,0,0,1,2.559,3.323,7.938,7.938,0,0,1,.442,1.654,7.351,7.351,0,0,1,.07,1.578,6.819,6.819,0,0,1-.481,2.221,13.244,13.244,0,0,1-.667,1.357c-.422.768-.865,1.525-1.3,2.286q-.616,1.078-1.234,2.155c-.29.5-.583,1.006-.873,1.51q-.779,1.355-1.556,2.71c-.244.424-.476.855-.735,1.269a.848.848,0,0,1-1.433-.027c-.422-.726-.836-1.457-1.255-2.185l-1.872-3.257c-.336-.584-.675-1.167-1.009-1.751q-.592-1.036-1.177-2.075c-.271-.482-.552-.959-.8-1.453a6.646,6.646,0,0,1-.663-2.313,9.483,9.483,0,0,1-.056-1.148,7.283,7.283,0,0,1,.284-1.831,7.539,7.539,0,0,1,1.216-2.46,7.369,7.369,0,0,1,1.451-1.469,7.519,7.519,0,0,1,2.515-1.271,6.324,6.324,0,0,1,1.421-.255.126.126,0,0,0,.041-.019Zm-3.973,8.168a3.369,3.369,0,1,0,3.268-3.37A3.366,3.366,0,0,0,1387.531,1387.746Z" transform="translate(-1383.333 -1379.578)" fill="#fff"></path></g></g></g><path id="Path_131" data-name="Path 131" d="M1281.1,1289.773l9.089,8.752s4.732-2.224,6.009-3.507,2.835-5.245,2.835-5.245-.157.475-1.81-1.121-.977-2.051-3.483-2.957-3.8-1.559-7.68.852S1281.1,1289.773,1281.1,1289.773Z" transform="translate(83.709 32.709)" fill="#a7d400" stroke="#a7d400" stroke-linecap="round" stroke-linejoin="round" stroke-width="5"></path></g></svg>