<svg xmlns="http://www.w3.org/2000/svg" width="433.133" height="391.109" viewBox="0 0 433.133 391.109"><g id="Grupo_90" data-name="Grupo 90" transform="translate(-2197.486 -6354.212)"><g id="Grupo_88" data-name="Grupo 88" transform="translate(1294.359 405.904)"><g id="Eh9c5U" transform="translate(906.641 5984.967)"><g id="Grupo_33" data-name="Grupo 33" transform="translate(0 0)"><path id="Trazado_56" data-name="Trazado 56" d="M4736.893,1323.79a9.558,9.558,0,0,0,2.12-2.593c.583-.758.979-.918,1.7-.113,1.037,1.152,2.336,2.038,3.319,3.275a2.187,2.187,0,0,1,.525,2.137c-.854,2.956-.66,6.123-1.821,9.016-.222.554.037.745.528.848a4.065,4.065,0,0,1,1.054.312c3.765,1.968,6.808.678,9.514-2.1,2.658-2.727,5.291-5.48,7.943-8.214a4.021,4.021,0,0,0,1.246-2.544,5.121,5.121,0,0,1,4.192-4.86c3.233-.8,4.777-2.807,5.654-5.832.62-2.146,1.752-4.138,2.522-6.248a5.038,5.038,0,0,1,3.447-3.089c2.824-.959,5.671-1.848,8.5-2.8a7.631,7.631,0,0,0,4.112-3.412c.883-1.386,1.564-3.15,3.348-3.859.662-.263.688-.983.683-1.552-.04-3.29.833-6.456,1.279-9.677a9.964,9.964,0,0,0-.2-3.679c-.12-.515-.554-1.126.061-1.5.685-.421,1.511-.884,2.313-.334a1.7,1.7,0,0,0,2.324-.189c1.854-1.432,2.989-1.133,3.947.96.916,2,1.812,4.019,2.621,6.068a1.571,1.571,0,0,0,1.865,1.161c1.923-.173,2.146-.015,2.716,1.891a1.444,1.444,0,0,0,1.4,1.23c1.306.116,1.579.893,1.167,2.038a4.556,4.556,0,0,0-.4,1.312,2.3,2.3,0,0,1-2.66,2.523c-.09,0-.232,0-.262.056-.811,1.386-2.319,1.461-3.6,1.993-.666.277-.847,1.055-1,1.735s-.2,1.367-.385,2.028c-.521,1.891-.133,2.847-3.144,2.948-1.051.035-1.323.705-1.122,1.617.317,1.432,1.073,2.9.931,4.272-.281,2.726.706,4.231,3.188,5.243,1.607.656,1.757,1.492,1.366,3.286a10.117,10.117,0,0,0-.27,1.207c-.111,1.23-.63,1.7-1.974,1.612-1.844-.117-2.546.721-2.562,2.575-.013,1.424.062,2.851-.022,4.269-.085,1.448-.574,1.857-1.943,1.532a1.528,1.528,0,0,0-1.949.763.5.5,0,0,1-.187.2c-3.462,1.712-3.034,4.851-2.636,7.781.378,2.79.095,5.283-1.662,7.537a4.733,4.733,0,0,0-.526.966c-.634,1.394-.815,1.444-1.979.483-.562-.464-1.113-.942-1.787-1.513a4.414,4.414,0,0,0,.59,2.543.513.513,0,0,0,.659.352c1.188-.391,1.413.086,1.1,1.146a1.89,1.89,0,0,0,.526,1.777,1.874,1.874,0,0,1,.208,2.182c-1.144,2.438-2.286,4.876-3.528,7.526a14.831,14.831,0,0,1-.2-3.663,19.487,19.487,0,0,0-.149-2.328c-.121-.667-.044-1.856-1.348-.805-.538.433-.986-.161-1.168-.593a20.823,20.823,0,0,1-1.451-4.867c-.18-1.158.878-1.872,1.048-2.927-2.14.3-2.581,1.034-1.712,2.813a1.555,1.555,0,0,1,.208,1.319,1.973,1.973,0,0,0,.69,2.714,3.157,3.157,0,0,1,.86,1.7,22.222,22.222,0,0,0,1.533,4.269,1.938,1.938,0,0,1-.5,2.678c-.771.624-.437,1.123.34,1.138,2.041.037,2.474,1.438,2.963,3.008,1.1,3.54.252,6.828-1.2,10.01a54.956,54.956,0,0,1-5.752,9.859,5.748,5.748,0,0,1-2.9,2,6.739,6.739,0,0,0-4.536,4.962,18.387,18.387,0,0,1-3.434,6.2c-2.454,3.373-4.962,6.721-5.176,11.182a5.339,5.339,0,0,0,1.771,4.408c.7.664,1.41,1.316,2.1,1.986a2.893,2.893,0,0,1,1.1,2.008,6.256,6.256,0,0,0,1.543,3.736c1.261,1.863,2.551,3.706,3.782,5.589a7.511,7.511,0,0,1,1.639,4.3,1.6,1.6,0,0,0,.55,1.074,12.536,12.536,0,0,1,2.991,5.506,3.255,3.255,0,0,0,1.056,1.746,6.708,6.708,0,0,1,2.117,4.631,22.157,22.157,0,0,1-.162,6.719c-.45,2.25-3.829,4.07-5.954,3.227a2.145,2.145,0,0,1-1.271-1.367,5.423,5.423,0,0,0-3.636-3.813,3.181,3.181,0,0,1-2.213-2.6c-.126-.628-.319-1.244-.5-1.86-.29-.989-.767-1.59-1.883-.906-.642.394-1.138.061-1.574-.4-1.028-1.092-1.444-2.544-2.2-3.8-.265-.44.087-.986.286-1.439.282-.641.237-1.015-.56-1.14-1.241-.194-1.557-1.059-1.584-2.2-.053-2.236.276-4.5-.468-6.7-.275-.812-.461-1.4-1.488-.794a.933.933,0,0,1-1.412-.649c-.222-.832-.833-1.115-1.445-1.522a16.1,16.1,0,0,1-3.367-3.009c-.147-.175-.292-.354-.452-.519-2.239-2.324-3.293-2.369-5.624-.211-.6.557-1.153,1.166-1.745,1.734-2.161,2.072-4.747,1.555-7.3,1.154-1.768-.278-3.514-.8-5.288-.9a57.584,57.584,0,0,0-10.01.526,5.19,5.19,0,0,0-3.938,2.9c.7-.261.992-.94,1.506-.788.831.245,1.042,1.19,1.307,1.8.285.659-.565.62-1.142.6a1.407,1.407,0,0,0-1.271.919c-.241.571.408.719.736,1a3.656,3.656,0,0,0,2.736,1.088.746.746,0,0,1,.406.05c.584.326,1.552.615,1.374,1.291-.146.552-.608,1.587-1.749,1.184a1.068,1.068,0,0,0-.753.221c-.584.372-.885.131-.938-.445a1.485,1.485,0,0,0-1.5-1.341c-.743-.083-1.275-.082-1.507-.982-.145-.559-.645-.363-.941.032a1.875,1.875,0,0,0-.206,1.2c0,.577-.141,1.172-.723,1.365-.536.178-.8-.393-1.036-.743-.637-.944-1.145-.8-1.775.021-.772,1.005-3.685.971-4.479,0a.916.916,0,0,1-.25-.887c.387-1.2-.271-1.481-1.266-1.454a2.779,2.779,0,0,1-1.7-.806c-.869-.627-1.645-.618-2.083.494s-1.146,1.259-2.291,1.091a82.338,82.338,0,0,1-10.575-2.426,3.775,3.775,0,0,0-4.584,1.489c-1.218,1.723-2.494,3.4-3.714,5.125a7.053,7.053,0,0,1-4.2,3.125c-1.43.329-2.845.736-4.251,1.156-5.351,1.6-7.476,5.155-6.266,10.6.468,2.1,1.1,4.169,1.673,6.247.253.921.083,1.5-1.024,1.284a72.281,72.281,0,0,1-9.792-2.2c-3.489-1.193-4.009-1.736-3.736-5.357a8.529,8.529,0,0,0-2.3-6.6,110.093,110.093,0,0,0-10.053-10.932,13.924,13.924,0,0,0-4.844-3.085c-1.5-.494-2.332-.238-3.155,1.111-.572.938-1.052,1.932-1.551,2.913a2.787,2.787,0,0,1-3.335,1.494c-4.209-.688-5.975-2.866-7.311-7.7-.134-.485-.213-.987-.3-1.484-.241-1.375-.461-2.678-2.354-2.722a2.2,2.2,0,0,1-1.734-1.309c-.915-1.622-1.976-3.162-3-4.718a2.4,2.4,0,0,0-2.28-1.275c-2.869.26-5.52-.717-8.208-1.452-2.123-.579-2.612-.435-3.725,1.474a1.651,1.651,0,0,1-1.451.825c-4.659.512-9.237-.443-13.851-.629-4.3-.174-7.125-2.954-10.36-4.979-4.164-2.606-8.282-5.281-12.575-7.675a10.4,10.4,0,0,0-4.788-1.072,51.232,51.232,0,0,1-5.361-.258,6.753,6.753,0,0,1-4.394-2.247,20.78,20.78,0,0,1-5.292-10.26c-.47-2.734-1.645-3.736-4.61-4.276a11.592,11.592,0,0,1-5.394-2.251c-.562-.452-1.119-.95-1.033-1.688.336-2.866-.863-5.208-2.5-7.367a8.669,8.669,0,0,1-1.662-6.23,5.934,5.934,0,0,0-1.068-4.154,3.658,3.658,0,0,1-.871-2.56c.477-3.775-1.234-6.861-3.114-9.874-.779-1.247-1.332-2.34-.231-3.738.653-.829.354-1.951.239-2.949a8.312,8.312,0,0,0-.36-1.61,12.355,12.355,0,0,1,1.231-10.473c1.691-2.916,1.6-6.157,1.946-9.335.393-3.595,1.165-7.062,3.653-9.914a8.4,8.4,0,0,0,1.289-2.265,73.913,73.913,0,0,0,6.063-26.817,24.6,24.6,0,0,0-.228-3.016c-.092-.963.349-1.474,1.276-1.235a11.25,11.25,0,0,1,7.207,5.121,1.5,1.5,0,0,1-.061,1.573c-.459.847-.849,1.74-1.386,2.534a3.537,3.537,0,0,0-.255,3.753c.286.615.55.738.9.11a15.023,15.023,0,0,1,2.816-3.87c.557-.512.3-1.324.184-1.984a27.435,27.435,0,0,1-.208-5.361c.058-2.282.677-2.659,2.8-1.991a162.1,162.1,0,0,0,17.162,3.947c10.442,2.083,20.955,3.749,31.479,5.327,9.933,1.489,19.825,3.334,29.832,4.234,8.873.8,17.792.785,26.7.708,5.1-.045,10.213-.3,15.29.022,4.98.317,9.955.857,14.943,1.138a4.088,4.088,0,0,1,3.172,1.923,3.921,3.921,0,0,0,4.071,1.635c1.781-.237,3.514-.668,5.271-1,.387-.072.867-.326,1.112.153.208.4-.219.647-.473.891q-3.423,3.283-6.854,6.556a2.729,2.729,0,0,0-.461.509c-.25.406-.8.8-.361,1.324.371.439.942.295,1.413.112a12.134,12.134,0,0,0,1.48-.732,2.608,2.608,0,0,1,3.1.146,1.609,1.609,0,0,0,2.134.032q2.8-1.881,5.574-3.8a12.57,12.57,0,0,1,2.99-1.685,1.4,1.4,0,0,1,1.556.136c.446.441.171.956.01,1.42-.193.563-.451,1.1-.673,1.659-.162.4-.25.816.144,1.132.351.282.707.108,1.015-.1.516-.353,1.047-.646,1.652-.265,2.624,1.654,5.091.608,7.588-.375,1.659-.654,3.253-1.529,5.2-.8,1.2.449,2.428-.27,3.632-.514a4.592,4.592,0,0,1,4.377,1.912c.316.57-.062.781-.452.913-1.042.355-2.112.626-3.15.988-.917.32-1.979.361-2.519,1.437-.2.4-.786.418-1.234.523-1.653.389-3.321.731-4.941,1.225-.358.109-1.588-.29-1.032.956a3.473,3.473,0,0,1-.485.156c-3.8.662-4.159,1.683-4.566,4.3a14.375,14.375,0,0,1-.325,1.479c-.225.853-.53,1.723.972,1.3.476-.134.871.024.716.628a17.585,17.585,0,0,0-.291,4.784,9.006,9.006,0,0,1-.606,3.08,9.95,9.95,0,0,0,.2,6.072,50.71,50.71,0,0,1,1.86,6.333.944.944,0,0,0,1.134.9,2.272,2.272,0,0,1,.953.1c1.551.655,2.717-.545,3.029-2.091.154-.763.2-1.548.335-2.315.214-1.208.213-2.5,1.119-3.475.31-.335.188-.543-.071-.8-.489-.484-.984-.963-1.437-1.48a4.758,4.758,0,0,1-1.345-4.424,9.656,9.656,0,0,0-.554-6.166c-.99-2.463-.448-3.359,1.98-4.527a11.556,11.556,0,0,0,3.971-3.53,3.04,3.04,0,0,1,3.627-1.16,14.533,14.533,0,0,0,4.34.664,1.569,1.569,0,0,1,1.729,1.407,11.557,11.557,0,0,1-.72,6.874C4737.11,1320.814,4736.482,1322.15,4736.893,1323.79Z" transform="translate(-4525.447 -1275.9)" stroke="#000" stroke-linecap="round" stroke-linejoin="round" stroke-width="7"></path></g></g><g id="hvKh2W" transform="translate(1182.832 6137.675)"><g id="Grupo_35" data-name="Grupo 35" transform="translate(0)"><g id="Grupo_34" data-name="Grupo 34"><path id="Trazado_57" data-name="Trazado 57" d="M5286.7,1355.758c-3.092-1.478-3.758-4.745-1.582-7.023a4.673,4.673,0,0,0,1.333-2.8c.272-2.492.56-4.983.786-7.48a4.8,4.8,0,0,0-.425-3.075c-.655-1.108-.138-1.645,1.08-1.426s2.247.237,2.731-1.192a2.6,2.6,0,0,0-.915-3.3c-1.772-1.367-1.664-2.143.288-3.492.7-.485,1.071-1.107.687-1.842-.8-1.518-1.333-3.193-2.672-4.4-1.245-1.122-.84-5.939.516-7.019a1.629,1.629,0,0,1,1.86-.009c1.635.731,2.948.165,4.142-.955a10,10,0,0,0,2.3-10.031,5.56,5.56,0,0,1-.344-.926c-.092-.5-.314-1.109.25-1.439.486-.284.938.116,1.2.459,1.732,2.285,4.025,4.321,3.589,7.63-.044.339-.057.7.372.787a.839.839,0,0,0,.951-.557c.375-.983.573-2.041,1.014-2.989.59-1.267-.377-1.771-.994-2.493-.792-.927-.67-1.589.647-1.664a3.563,3.563,0,0,0,2.379-1.271c.046-.047.089-.119.145-.132,4.259-.988,6.238-5.3,10.069-6.907.915-.384,1.841-.973,2.386.531.228.629.833.587,1.342.294a1.233,1.233,0,0,0,.6-1.7c-.737-1.2-.276-1.931.649-2.676a1.643,1.643,0,0,0,.648-1.4c-.468-4.168,2.978-5.555,5.454-7.528a48.5,48.5,0,0,1,5.523-3.405,2.251,2.251,0,0,1,3.142.725,3.831,3.831,0,0,0,2.112,1.678c.507.1.789,1.059,1.5.387a2.1,2.1,0,0,0,.86-1.871c-.191-1.94.338-2.306,2.252-1.764s3.814,1.072,5.727,1.584a9.506,9.506,0,0,0,6.707-.887c2.953-1.387,5.765-3.2,9.367-2.442,1.6.335,2.477-1.1,2.889-2.483.884-2.968.961-3.022,3.329-1a4.262,4.262,0,0,1,6.031-2.323,10.374,10.374,0,0,1,4.265,3.436c.841,1.153.438,1.9-.832,2.13a11.409,11.409,0,0,1-2.764.058,23.924,23.924,0,0,0-8.181,1.274,2.276,2.276,0,0,0-1.07.489c-2.539,2.922-5.381,5.613-7.437,8.9a18.472,18.472,0,0,1-2.365,3.607,13.969,13.969,0,0,0-3.5,4.752,3.966,3.966,0,0,1-2.337,2.034c-1.225.542-1.774,1.269-1.072,2.632.83,1.608.108,2.5-1.52,2.847a8.958,8.958,0,0,0-.966.215c-.531.178-.971.5-.968,1.114,0,.664.5.9,1.062.951,3.226.278,4.384,2.318,4.487,5.247a10.35,10.35,0,0,0,2.188,6.244,2.989,2.989,0,0,1,.105,3.84c-1.171,1.769-1.96,3.512.157,5.229.634.514.22,1.194-.078,1.807-.964,1.987-.7,2.618,1.386,3.308a26.112,26.112,0,0,0,6.668.842,7.846,7.846,0,0,1,4.933,1.75,2.016,2.016,0,0,0,2.53.432,2.242,2.242,0,0,1,2.885.509,3.771,3.771,0,0,0,4.137,1.1c1.5-.5,2.3.374,2.963,1.609,1.6,2.967,3.291,5.881,4.906,8.839.917,1.68,2.2,2.208,3.953,1.4a3.864,3.864,0,0,1,3.784.236,3.545,3.545,0,0,0,3.742.263,2.521,2.521,0,0,1,3.206.787,3.731,3.731,0,0,0,4.99.868c1.092-.6,2.076-.541,2.641.708a2.208,2.208,0,0,1-.985,3.055,3.008,3.008,0,0,1-1.316.4c-2.054.138-3.378.817-2.614,3.224.038.12.055.357.006.38-2,.951-1.308,3.52-2.807,4.709-.762.6-.627,1.05-.138,1.622.66.771.668,1.51-.3,1.908-1.461.6-1.216,1.327-.3,2.162,1.366,1.246,1.194,2.183-.461,2.979-1.295.623-1.3,1.515-.384,2.531a27.818,27.818,0,0,0,3.393,3.249c4.349,3.453,4.009,8.714-.63,11.736-1.123.731-1.985,1.544-.658,2.536,3.324,2.48,3,6.168,3.62,9.612.559,3.1.359,6.344,1.7,9.3.546,1.2.074,1.667-1.183,1.756-3.6.253-4.869-1.154-3.687-4.525a6.037,6.037,0,0,0-.888-5.97c-.639-.87-.184-2.638-1.515-2.66-.822-.013-1.674,1.152-2.494,1.81-1.848,1.48-1.844,1.485-4.237-.926-.13.576-.266,1.065-.349,1.564-.21,1.249-.937,1.524-2,1.041a30,30,0,0,0-8.621-2.154,7.878,7.878,0,0,1-4.175-1.643c-.637-.525-1.328-.945-1.8.307a1.955,1.955,0,0,1-2.479,1.143c-2.084-.525-1.919,1.161-2.174,2.207-.245,1.009.663.72,1.2.619a5.572,5.572,0,0,1,3.99.784c3.026,1.788,3.972,7.1,1.755,9.877-.844,1.057-3.732.963-4.985-.419-.906-1-1.442-.952-2.409-.184a2.84,2.84,0,0,1-3.2.023c-1.029-.529-1.63-.342-1.767.874a2.439,2.439,0,0,1-.166.773c-1.317,2.763-1.954,5.182,1.921,6.583,1.22.441,1.664,2.022,1.142,3.464a4.213,4.213,0,0,0,1.173,4.693,8.7,8.7,0,0,1,1.889,3.225c.6,1.727.374,3.055-1.343,4.037a6.314,6.314,0,0,0-2.783,3.968c-2.4,8.334-5.9,16.264-8.921,24.371a8.6,8.6,0,0,1-1.928,3.422,2.6,2.6,0,0,1-2.743.666c-1.1-.365-1.217-1.329-1.1-2.284.264-2.218-1.919-3.742-1.638-5.989.061-.491-.572-.409-.917-.151-.421.317-.79.7-1.21,1.022a1.559,1.559,0,0,1-2.161.128,1.878,1.878,0,0,1-.588-2.152,2.162,2.162,0,0,1,.46-.866c3.1-2.842,5.5-6.433,9.234-8.588.333-.192.791-.334.753-.812s-.489-.658-.858-.7c-1.4-.161-1.86-.976-1.9-2.3-.044-1.462-1.628-1.356-2.373-2.125-.771-.795-1.563-.606-2.638-.61a17.179,17.179,0,0,0-7.034,1.349c-1,.424-1.7-.735-2.277-1.565-1.878-2.711-1.883-2.708-4.676-1.013-1.641.995-6.831.591-8.436-.815-.971-.852-1.789-1.184-2.979-.484-1.43.84-2.546.654-2.872-1.231a1.775,1.775,0,0,0-.926-1.227c-1.792-1.075-1.6-2.359-.435-3.776a9.986,9.986,0,0,0,.913-1.3,1.883,1.883,0,0,0-.668-2.885c-1.506-.88-2.758-1.781-2.225-3.888.229-.9-.658-1.2-1.413-1.291a2.889,2.889,0,0,1-2.556-1.888,2.323,2.323,0,0,0-2.035-1.382c-2.174-.279-2.847-1.582-2.644-3.621a12.041,12.041,0,0,0-.013-3.159c-.229-1.357-1.372-2.013-2.5-2.619-1.279-.686-2.539-1.41-3.8-2.135a2.705,2.705,0,0,1-1.585-2.552c.062-1.17-.46-1.554-1.592-1.748-2.089-.359-3.645-1.8-5.255-3.061-1.656-1.292-3.333-2.418-5.593-1.906a.9.9,0,0,1-.586-.028c-2.768-1.61-6.45-1.7-8.245-4.928a3.392,3.392,0,0,0-3.332-2.019,3.876,3.876,0,0,1-3.455-1.984,8.468,8.468,0,0,0-4.583-3.591,3.339,3.339,0,0,1-1.77-1.2c-1.476-2.454-3.962-3.581-6.224-5.016-.554-.35-1.28-.661-1.139-1.454.15-.847.889-1.068,1.664-1.121a1.418,1.418,0,0,0,.586-.074c.979-.576,2.271.673,2.99-.294.665-.894-.6-1.843-.537-2.764a6.769,6.769,0,0,1,2.838-4.985,3.892,3.892,0,0,0,1.965-3.15,3.708,3.708,0,0,1,3.142-3.4,7.6,7.6,0,0,1,5.953.567c.688.4.313,1.059.128,1.606a1.066,1.066,0,0,1-1.363.812,9.309,9.309,0,0,0-3.125-.437c-.769.1-1.477.365-1.548,1.249-.066.823.609,1.131,1.257,1.3,1.586.422,3.2.912,4.679-.307.3-.248.782-.541.794-.829.095-2.231,2.073-3.988,1.5-6.423-.2-.833-.454-2.135.9-2.5,1-.273,1.931-.19,2.327,1.141.221.745.713.207,1.045-.088C5284.98,1357.3,5285.764,1356.6,5286.7,1355.758Z" transform="translate(-5258.985 -1267.472)" fill="none" stroke="#000" stroke-linecap="round" stroke-linejoin="round" stroke-width="7"></path></g></g></g><g id="Grupo_45" data-name="Grupo 45" transform="matrix(-0.309, -0.951, 0.951, -0.309, 1140.572, 6236.779)"><path id="Trazado_52" data-name="Trazado 52" d="M8.692,3.08,2.676,0,0,5.886" transform="translate(150.87 37.642) rotate(30)" fill="none" stroke="#a7d400" stroke-linecap="round" stroke-linejoin="round" stroke-width="4"></path><path id="Trazado_53" data-name="Trazado 53" d="M0,135.659A102.543,102.543,0,0,0,102.542,33.117,102.413,102.413,0,0,0,97.077,0" transform="translate(67.83 0) rotate(30)" fill="none" stroke="#a7d400" stroke-linecap="round" stroke-linejoin="round" stroke-width="4"></path></g><g id="jDjibL" transform="translate(1060.872 5948.308)"><g id="Grupo_32" data-name="Grupo 32"><path id="Trazado_55" data-name="Trazado 55" d="M1424.375,1379.578c.857.119,1.724.189,2.569.366,1.995.419,4.01.783,5.96,1.363a35.493,35.493,0,0,1,10.907,5.559,38.494,38.494,0,0,1,12.853,16.693,39.945,39.945,0,0,1,2.22,8.307,37.006,37.006,0,0,1,.352,7.925,34.271,34.271,0,0,1-2.417,11.16,66.6,66.6,0,0,1-3.347,6.814c-2.118,3.859-4.343,7.66-6.528,11.483q-3.094,5.416-6.2,10.826c-1.455,2.532-2.929,5.053-4.384,7.584q-3.913,6.8-7.815,13.611c-1.223,2.13-2.392,4.294-3.693,6.374a4.258,4.258,0,0,1-7.2-.134c-2.12-3.648-4.2-7.318-6.3-10.975-1.518-2.638-7.786-13.543-9.4-16.358-1.685-2.936-3.39-5.86-5.07-8.8q-2.973-5.2-5.913-10.423c-1.36-2.42-2.774-4.815-4.01-7.3a33.338,33.338,0,0,1-3.333-11.616,47.683,47.683,0,0,1-.282-5.769,36.59,36.59,0,0,1,1.426-9.2,37.9,37.9,0,0,1,6.107-12.358,37.033,37.033,0,0,1,7.291-7.38,37.77,37.77,0,0,1,12.632-6.386,31.634,31.634,0,0,1,7.138-1.28.628.628,0,0,0,.205-.095Zm-19.956,41.029a16.922,16.922,0,1,0,16.417-16.93A16.911,16.911,0,0,0,1404.419,1420.607Z" transform="translate(-1383.333 -1379.578)" fill="#a7d400"></path></g></g></g></g></svg>