<svg xmlns="http://www.w3.org/2000/svg" width="507.101" height="320.863" viewBox="0 0 507.101 320.863"><g id="Grupo_87" data-name="Grupo 87" transform="translate(-342.485 -2479.017)"><g id="Eh9c5U" transform="translate(346 2482.516)"><g id="Grupo_33" data-name="Grupo 33" transform="translate(0 0)"><path id="Trazado_56" data-name="Trazado 56" d="M4890.44,1358.567c1.791-1.2,2.527-3.012,3.659-4.477,1.007-1.308,1.689-1.585,2.941-.2,1.789,1.988,4.032,3.519,5.729,5.654a3.777,3.777,0,0,1,.907,3.688c-1.473,5.1-1.14,10.569-3.143,15.562-.383.956.063,1.287.911,1.463a7.013,7.013,0,0,1,1.819.538c6.5,3.4,11.752,1.17,16.422-3.619,4.589-4.708,9.133-9.459,13.711-14.178a6.948,6.948,0,0,0,2.15-4.392c.313-4.627,3.186-7.392,7.235-8.389,5.581-1.374,8.246-4.845,9.76-10.066,1.07-3.7,3.024-7.144,4.354-10.786,1.065-2.925,3.239-4.412,5.949-5.332,4.875-1.655,9.79-3.19,14.669-4.833a13.176,13.176,0,0,0,7.1-5.889c1.524-2.392,2.7-5.437,5.779-6.661,1.143-.454,1.188-1.7,1.178-2.679-.068-5.678,1.438-11.143,2.209-16.7a17.2,17.2,0,0,0-.343-6.351c-.207-.888-.955-1.943.1-2.592,1.182-.726,2.608-1.526,3.994-.577,1.521,1.041,2.612.752,4.011-.327,3.2-2.471,5.159-1.956,6.813,1.658,1.582,3.458,3.127,6.938,4.524,10.474a2.713,2.713,0,0,0,3.221,2c3.318-.3,3.705-.026,4.688,3.264a2.493,2.493,0,0,0,2.418,2.123c2.254.2,2.726,1.542,2.014,3.518a7.842,7.842,0,0,0-.692,2.265c-.1,3.012-1.626,4.414-4.593,4.355-.155,0-.4.005-.452.1-1.4,2.392-4,2.521-6.217,3.441-1.149.478-1.462,1.822-1.72,2.995s-.351,2.359-.664,3.5c-.9,3.264-.229,4.914-5.427,5.088-1.814.061-2.284,1.217-1.937,2.791.547,2.471,1.852,5,1.606,7.374-.485,4.706,1.219,7.3,5.5,9.051,2.774,1.132,3.034,2.575,2.358,5.673a17.414,17.414,0,0,0-.465,2.083c-.191,2.123-1.088,2.929-3.407,2.782-3.184-.2-4.4,1.244-4.423,4.444-.023,2.458.105,4.921-.039,7.37-.147,2.5-.99,3.206-3.354,2.645a2.638,2.638,0,0,0-3.365,1.318.864.864,0,0,1-.321.346c-5.977,2.955-5.237,8.373-4.55,13.431.652,4.815.163,9.12-2.868,13.011a8.166,8.166,0,0,0-.908,1.668c-1.094,2.407-1.407,2.493-3.417.833-.97-.8-1.922-1.625-3.084-2.613-.29,1.8.489,3.071,1.019,4.391a.885.885,0,0,0,1.137.607c2.05-.674,2.438.149,1.9,1.979a3.261,3.261,0,0,0,.909,3.067,3.235,3.235,0,0,1,.359,3.767c-1.975,4.209-3.945,8.417-6.09,12.991-.657-2.326-.23-4.345-.346-6.323a33.461,33.461,0,0,0-.257-4.019c-.208-1.152-.075-3.2-2.327-1.39-.928.748-1.7-.278-2.016-1.023a35.9,35.9,0,0,1-2.5-8.4c-.311-2,1.515-3.231,1.81-5.053-3.694.519-4.455,1.785-2.956,4.855a2.684,2.684,0,0,1,.358,2.277c-1.048,2-.354,3.367,1.192,4.685a5.452,5.452,0,0,1,1.484,2.932,38.35,38.35,0,0,0,2.646,7.369c.9,1.832.766,3.308-.859,4.623-1.33,1.077-.756,1.939.586,1.964,3.522.065,4.271,2.482,5.115,5.192,1.9,6.111.435,11.786-2.072,17.28a94.852,94.852,0,0,1-9.93,17.018,9.921,9.921,0,0,1-5,3.445,11.631,11.631,0,0,0-7.829,8.566c-1.057,4.131-3.5,7.362-5.928,10.7-4.235,5.822-8.566,11.6-8.936,19.3a9.218,9.218,0,0,0,3.058,7.609c1.205,1.147,2.434,2.271,3.628,3.429a5,5,0,0,1,1.9,3.466c-.073,2.614,1.335,4.487,2.663,6.449,2.177,3.216,4.4,6.4,6.528,9.647,1.475,2.256,2.905,4.567,2.829,7.431a2.758,2.758,0,0,0,.949,1.854,21.638,21.638,0,0,1,5.164,9.5,5.613,5.613,0,0,0,1.822,3.013c2.434,2.146,3.33,4.9,3.654,7.993a38.229,38.229,0,0,1-.279,11.6c-.777,3.884-6.608,7.026-10.276,5.571a3.7,3.7,0,0,1-2.2-2.36c-1.08-3.158-2.874-5.545-6.276-6.583a5.492,5.492,0,0,1-3.819-4.485c-.218-1.084-.552-2.147-.863-3.211-.5-1.707-1.323-2.745-3.25-1.565-1.107.679-1.964.1-2.718-.7-1.773-1.885-2.493-4.391-3.8-6.553-.457-.76.15-1.7.494-2.484.487-1.106.41-1.751-.966-1.968-2.143-.336-2.687-1.827-2.734-3.8-.092-3.859.478-7.761-.808-11.557-.475-1.4-.795-2.417-2.568-1.37a1.611,1.611,0,0,1-2.437-1.12c-.383-1.436-1.438-1.925-2.494-2.627a27.8,27.8,0,0,1-5.812-5.194c-.255-.3-.5-.611-.78-.9-3.866-4.012-5.686-4.089-9.709-.365-1.038.961-1.99,2.013-3.012,2.992-3.73,3.577-8.194,2.684-12.593,1.992-3.052-.48-6.066-1.377-9.127-1.554a99.4,99.4,0,0,0-17.279.908c-2.823.332-5.091,2.011-6.8,5.013,1.214-.45,1.712-1.623,2.6-1.361,1.435.424,1.8,2.053,2.256,3.1.492,1.138-.976,1.07-1.971,1.044a2.429,2.429,0,0,0-2.193,1.587c-.416.986.7,1.242,1.271,1.721a6.312,6.312,0,0,0,4.724,1.878,1.287,1.287,0,0,1,.7.087c1.008.563,2.68,1.061,2.372,2.228-.251.954-1.05,2.739-3.019,2.044a1.844,1.844,0,0,0-1.3.382c-1.009.643-1.528.227-1.62-.768a2.563,2.563,0,0,0-2.591-2.315c-1.283-.143-2.2-.141-2.6-1.7-.25-.965-1.113-.627-1.625.055a3.235,3.235,0,0,0-.354,2.065c-.006,1-.243,2.023-1.248,2.357-.925.307-1.381-.678-1.789-1.283-1.1-1.63-1.976-1.38-3.064.036-1.333,1.735-6.361,1.677-7.731.006a1.581,1.581,0,0,1-.431-1.531c.667-2.065-.468-2.556-2.186-2.51-1.229.033-2.035-.744-2.935-1.391-1.5-1.082-2.838-1.067-3.6.852s-1.979,2.174-3.954,1.883a142.127,142.127,0,0,1-18.254-4.187c-3.294-.939-5.9-.284-7.913,2.57-2.1,2.974-4.306,5.875-6.411,8.847-1.839,2.6-4.015,4.649-7.25,5.4-2.469.568-4.911,1.271-7.339,2-9.237,2.757-12.905,8.9-10.815,18.292.808,3.629,1.9,7.2,2.888,10.784.437,1.59.142,2.586-1.768,2.217-5.671-1.1-11.406-1.924-16.9-3.8-6.022-2.06-6.921-3-6.449-9.247.344-4.535-1.055-7.987-3.971-11.4-5.562-6.5-10.946-13.153-17.354-18.871a24.035,24.035,0,0,0-8.361-5.325c-2.589-.852-4.026-.411-5.447,1.918-.988,1.619-1.815,3.335-2.677,5.029-1.23,2.425-3.188,3-5.757,2.58-7.266-1.188-10.313-4.948-12.619-13.291-.231-.838-.368-1.7-.518-2.561-.416-2.374-.8-4.622-4.064-4.7a3.8,3.8,0,0,1-2.994-2.26c-1.579-2.8-3.411-5.458-5.187-8.144a4.145,4.145,0,0,0-3.936-2.2c-4.953.449-9.528-1.238-14.169-2.506-3.664-1-4.509-.75-6.43,2.545a2.851,2.851,0,0,1-2.5,1.425c-8.042.884-15.944-.764-23.909-1.086-7.425-.3-12.3-5.1-17.884-8.594-7.188-4.5-14.3-9.116-21.707-13.249a17.956,17.956,0,0,0-8.265-1.85,88.4,88.4,0,0,1-9.253-.446,11.655,11.655,0,0,1-7.584-3.879c-4.554-5.173-7.962-10.88-9.135-17.711-.812-4.72-2.839-6.449-7.958-7.38a20.005,20.005,0,0,1-9.311-3.886c-.97-.78-1.932-1.64-1.783-2.914.58-4.948-1.49-8.989-4.307-12.717a14.963,14.963,0,0,1-2.868-10.754,10.246,10.246,0,0,0-1.843-7.171,6.314,6.314,0,0,1-1.5-4.418c.823-6.517-2.131-11.844-5.375-17.045-1.344-2.153-2.3-4.039-.4-6.452,1.127-1.431.612-3.367.412-5.091a14.349,14.349,0,0,0-.622-2.78,21.327,21.327,0,0,1,2.126-18.078c2.919-5.033,2.759-10.627,3.358-16.114.679-6.206,2.01-12.191,6.306-17.113a14.505,14.505,0,0,0,2.225-3.911,127.584,127.584,0,0,0,10.467-46.291,42.49,42.49,0,0,0-.393-5.205c-.158-1.662.6-2.545,2.2-2.132,5.251,1.353,9.585,4.08,12.44,8.84a2.591,2.591,0,0,1-.1,2.715c-.792,1.462-1.465,3-2.392,4.375a6.106,6.106,0,0,0-.441,6.479c.493,1.061.949,1.274,1.56.189a25.927,25.927,0,0,1,4.861-6.681c.961-.885.515-2.286.317-3.426a47.371,47.371,0,0,1-.36-9.254c.1-3.939,1.168-4.59,4.826-3.437,9.692,3.056,19.682,4.831,29.624,6.814,18.024,3.6,36.172,6.472,54.337,9.2,17.146,2.57,34.221,5.754,51.495,7.308,15.316,1.378,30.711,1.355,46.091,1.222,8.8-.077,17.63-.52,26.394.039,8.6.548,17.183,1.479,25.795,1.964a7.057,7.057,0,0,1,5.476,3.319c1.777,2.439,4.03,3.22,7.027,2.822,3.075-.41,6.066-1.154,9.1-1.721.668-.125,1.5-.562,1.92.264.358.7-.378,1.117-.817,1.537q-5.909,5.666-11.83,11.317a4.721,4.721,0,0,0-.8.878c-.431.7-1.384,1.384-.624,2.286.641.758,1.626.509,2.439.194a20.944,20.944,0,0,0,2.556-1.264,4.5,4.5,0,0,1,5.349.252,2.778,2.778,0,0,0,3.684.056q4.832-3.247,9.622-6.551a21.693,21.693,0,0,1,5.161-2.909c.905-.311,1.9-.547,2.687.235.77.761.295,1.65.017,2.451-.333.972-.778,1.907-1.161,2.863-.28.692-.431,1.408.249,1.954.606.486,1.22.186,1.752-.18.89-.609,1.808-1.115,2.853-.458,4.529,2.854,8.789,1.049,13.1-.648,2.864-1.129,5.616-2.639,8.975-1.385,2.073.774,4.191-.466,6.269-.887,2.615-.53,6.314,1.065,7.556,3.3.546.984-.108,1.347-.781,1.577-1.8.614-3.645,1.081-5.438,1.706-1.583.552-3.417.624-4.348,2.481-.341.683-1.356.722-2.13.9-2.853.671-5.732,1.261-8.53,2.115-.619.189-2.741-.5-1.781,1.65a5.992,5.992,0,0,1-.837.27c-6.567,1.143-7.179,2.906-7.882,7.422a24.775,24.775,0,0,1-.562,2.553c-.388,1.472-.915,2.974,1.678,2.242.821-.231,1.5.041,1.237,1.085a30.339,30.339,0,0,0-.5,8.258,15.546,15.546,0,0,1-1.047,5.316c-1.2,3.474-.648,7.019.337,10.481,1.039,3.653,2.648,7.141,3.211,10.932a1.63,1.63,0,0,0,1.958,1.555,3.923,3.923,0,0,1,1.645.176c2.677,1.131,4.689-.941,5.229-3.609.266-1.317.344-2.671.579-4,.37-2.085.368-4.311,1.931-6,.535-.578.325-.937-.123-1.382-.843-.835-1.7-1.663-2.479-2.555-1.917-2.189-3.059-4.693-2.321-7.637a16.669,16.669,0,0,0-.956-10.643c-1.709-4.252-.773-5.8,3.418-7.815a19.949,19.949,0,0,0,6.855-6.094,5.248,5.248,0,0,1,6.262-2,25.085,25.085,0,0,0,7.491,1.147,2.709,2.709,0,0,1,2.985,2.429,19.952,19.952,0,0,1-1.242,11.865C4890.815,1353.43,4889.731,1355.736,4890.44,1358.567Z" transform="translate(-4525.447 -1275.9)" stroke="#000" stroke-linecap="round" stroke-linejoin="round" stroke-width="7"></path></g></g><g id="jDjibL" transform="translate(732 2503.586)"><g id="Grupo_32" data-name="Grupo 32"><path id="Trazado_55" data-name="Trazado 55" d="M1397.434,1379.578c.294.041.592.065.883.126.685.144,1.378.269,2.048.468a12.191,12.191,0,0,1,3.748,1.91,13.224,13.224,0,0,1,4.416,5.735,13.725,13.725,0,0,1,.763,2.854,12.715,12.715,0,0,1,.121,2.723,11.774,11.774,0,0,1-.831,3.834,22.881,22.881,0,0,1-1.15,2.341c-.728,1.326-1.492,2.632-2.243,3.945q-1.063,1.861-2.13,3.719c-.5.87-1.006,1.736-1.506,2.606q-1.344,2.337-2.685,4.677c-.42.732-.822,1.475-1.269,2.19a1.463,1.463,0,0,1-2.473-.046c-.728-1.253-1.443-2.514-2.166-3.771l-3.231-5.62c-.579-1.009-1.165-2.013-1.742-3.023q-1.022-1.787-2.032-3.581c-.467-.831-.953-1.654-1.378-2.507a11.453,11.453,0,0,1-1.145-3.991,16.383,16.383,0,0,1-.1-1.982,12.573,12.573,0,0,1,.49-3.16,13.019,13.019,0,0,1,2.1-4.246,12.722,12.722,0,0,1,2.5-2.536,12.974,12.974,0,0,1,4.34-2.194,10.865,10.865,0,0,1,2.453-.44.214.214,0,0,0,.071-.032Zm-6.857,14.1a5.814,5.814,0,1,0,5.64-5.817A5.811,5.811,0,0,0,1390.578,1393.675Z" transform="translate(-1383.333 -1379.578)" fill="#a7d400"></path></g></g><g id="jDjibL-2" data-name="jDjibL" transform="translate(758.102 2560.836)"><g id="Grupo_32-2" data-name="Grupo 32"><path id="Trazado_55-2" data-name="Trazado 55" d="M1391.277,1379.578c.166.023.334.036.5.071.386.081.776.151,1.154.264a6.871,6.871,0,0,1,2.111,1.076,7.452,7.452,0,0,1,2.488,3.231,7.732,7.732,0,0,1,.43,1.608,7.155,7.155,0,0,1,.068,1.534,6.631,6.631,0,0,1-.468,2.16,12.859,12.859,0,0,1-.648,1.319c-.41.747-.841,1.483-1.263,2.223q-.6,1.048-1.2,2.1c-.282.49-.567.978-.849,1.468q-.757,1.317-1.513,2.635c-.237.412-.463.831-.715,1.234a.824.824,0,0,1-1.393-.026c-.41-.706-.813-1.417-1.22-2.124l-1.82-3.166c-.326-.568-.656-1.134-.981-1.7q-.576-1.007-1.145-2.017c-.263-.468-.537-.932-.776-1.413a6.45,6.45,0,0,1-.645-2.248,9.233,9.233,0,0,1-.055-1.117,7.086,7.086,0,0,1,.276-1.78,7.337,7.337,0,0,1,1.182-2.392,7.164,7.164,0,0,1,1.411-1.428,7.31,7.31,0,0,1,2.445-1.236,6.128,6.128,0,0,1,1.382-.248c.014,0,.027-.012.04-.018Zm-3.863,7.941a3.275,3.275,0,1,0,3.178-3.277A3.273,3.273,0,0,0,1387.414,1387.519Z" transform="translate(-1383.333 -1379.578)" fill="#a7d400"></path></g></g><g id="jDjibL-3" data-name="jDjibL" transform="translate(709.295 2661.045)"><g id="Grupo_32-3" data-name="Grupo 32"><path id="Trazado_55-3" data-name="Trazado 55" d="M1391.277,1379.578c.166.023.334.036.5.071.386.081.776.151,1.154.264a6.871,6.871,0,0,1,2.111,1.076,7.452,7.452,0,0,1,2.488,3.231,7.732,7.732,0,0,1,.43,1.608,7.155,7.155,0,0,1,.068,1.534,6.631,6.631,0,0,1-.468,2.16,12.859,12.859,0,0,1-.648,1.319c-.41.747-.841,1.483-1.263,2.223q-.6,1.048-1.2,2.1c-.282.49-.567.978-.849,1.468q-.757,1.317-1.513,2.635c-.237.412-.463.831-.715,1.234a.824.824,0,0,1-1.393-.026c-.41-.706-.813-1.417-1.22-2.124l-1.82-3.166c-.326-.568-.656-1.134-.981-1.7q-.576-1.007-1.145-2.017c-.263-.468-.537-.932-.776-1.413a6.45,6.45,0,0,1-.645-2.248,9.233,9.233,0,0,1-.055-1.117,7.086,7.086,0,0,1,.276-1.78,7.337,7.337,0,0,1,1.182-2.392,7.164,7.164,0,0,1,1.411-1.428,7.31,7.31,0,0,1,2.445-1.236,6.128,6.128,0,0,1,1.382-.248c.014,0,.027-.012.04-.018Zm-3.863,7.941a3.275,3.275,0,1,0,3.178-3.277A3.273,3.273,0,0,0,1387.414,1387.519Z" transform="translate(-1383.333 -1379.578)" fill="#a7d400"></path></g></g><g id="jDjibL-4" data-name="jDjibL" transform="translate(732 2739.545)"><g id="Grupo_32-4" data-name="Grupo 32"><path id="Trazado_55-4" data-name="Trazado 55" d="M1397.434,1379.578c.294.041.592.065.883.126.685.144,1.378.269,2.048.468a12.191,12.191,0,0,1,3.748,1.91,13.224,13.224,0,0,1,4.416,5.735,13.725,13.725,0,0,1,.763,2.854,12.715,12.715,0,0,1,.121,2.723,11.774,11.774,0,0,1-.831,3.834,22.881,22.881,0,0,1-1.15,2.341c-.728,1.326-1.492,2.632-2.243,3.945q-1.063,1.861-2.13,3.719c-.5.87-1.006,1.736-1.506,2.606q-1.344,2.337-2.685,4.677c-.42.732-.822,1.475-1.269,2.19a1.463,1.463,0,0,1-2.473-.046c-.728-1.253-1.443-2.514-2.166-3.771l-3.231-5.62c-.579-1.009-1.165-2.013-1.742-3.023q-1.022-1.787-2.032-3.581c-.467-.831-.953-1.654-1.378-2.507a11.453,11.453,0,0,1-1.145-3.991,16.383,16.383,0,0,1-.1-1.982,12.573,12.573,0,0,1,.49-3.16,13.019,13.019,0,0,1,2.1-4.246,12.722,12.722,0,0,1,2.5-2.536,12.974,12.974,0,0,1,4.34-2.194,10.865,10.865,0,0,1,2.453-.44.214.214,0,0,0,.071-.032Zm-6.857,14.1a5.814,5.814,0,1,0,5.64-5.817A5.811,5.811,0,0,0,1390.578,1393.675Z" transform="translate(-1383.333 -1379.578)" fill="#a7d400"></path></g></g></g></svg>