<svg xmlns="http://www.w3.org/2000/svg" width="788" height="518" viewBox="0 0 788 518"><g id="Grupo_274" data-name="Grupo 274" transform="translate(-920 -5504)"><g id="Grupo_113" data-name="Grupo 113" transform="translate(4325.15 2771.908)"><g id="T7orMr" transform="translate(-3115.442 2884.197)"><g id="Grupo_99" data-name="Grupo 99"><path id="Trazado_132" data-name="Trazado 132" d="M771.054,2536.774c.005.223.015.446.015.669q0,22.514,0,45.029a2.443,2.443,0,0,0,0,.287c.054.45-.128.619-.592.612-1.386-.023-2.772-.008-4.159-.008-1.259,0-2.518-.016-3.776.008-.465.009-.6-.161-.6-.612.013-3.888.007-7.776.007-11.664q0-16.8,0-33.6c0-.239.01-.478.015-.716Z" transform="translate(-568.848 -2536.774)" fill="#3171ba"></path><path id="Trazado_133" data-name="Trazado 133" d="M893.74,2536.774q0,4.854-.006,9.707,0,17.836,0,35.671c0,.176,0,.351,0,.526-.006.652-.033.683-.667.684q-3.9,0-7.794,0c-.635,0-.645-.011-.645-.638q0-7.818,0-15.636,0-14.776,0-29.55c0-.254.018-.509.027-.763Z" transform="translate(-678.623 -2536.774)" fill="#3171ba"></path><path id="Trazado_134" data-name="Trazado 134" d="M-1023.833,2553.02q-1.028,1.629-2.055,3.259-8.253,13.135-16.5,26.272c-.509.81-1.031,1.611-1.518,2.433a.9.9,0,0,1-.917.519,17.215,17.215,0,0,0-1.911,0c-.452.022-.626-.128-.622-.592.007-.859-.036-1.719-.068-2.579-.1-2.738-.151-5.478-.23-8.216-.092-3.169-.18-6.337-.3-9.5-.072-1.974-.146-3.947-.188-5.922-.04-1.89-.134-3.78-.209-5.809-.23.361-.4.619-.56.88q-9.743,15.643-19.479,31.29a.8.8,0,0,1-.77.435c-1.338-.015-2.677,0-4.016-.007-.583,0-.609-.046-.308-.542q3.583-5.906,7.169-11.81,5.336-8.784,10.674-17.568,4.854-7.987,9.7-15.977a.822.822,0,0,1,.811-.438c1.833.016,3.666.006,5.5.008.631,0,.634,0,.634.639q0,12.766,0,25.532v.553l.089.026q.948-1.452,1.9-2.9,3.9-6.014,7.808-12.03c2.463-3.778,4.945-7.542,7.405-11.322a.965.965,0,0,1,.926-.505c1.992.023,3.984.01,5.976.01.863,0,.863,0,.863.843q0,16.973,0,33.946,0,5.427,0,10.853c0,.683,0,.686-.695.686q-4.231,0-8.463,0c-.6,0-.632-.027-.631-.611,0-7.57-.022-15.14.028-22.711.019-2.884.009-5.768.04-8.652,0-.154,0-.307,0-.461Z" transform="translate(1073.674 -2538.889)" fill="#3171ba"></path><path id="Trazado_135" data-name="Trazado 135" d="M201.884,2562.372q0-11.187,0-22.375c0-.763,0-.764.751-.764h7.793c.749,0,.75,0,.75.775q0,8.917,0,17.833c0,.2-.109.485.083.573s.342-.176.505-.292a13.494,13.494,0,0,1,8.625-2.723,9.032,9.032,0,0,1,4.041,1.333,8.058,8.058,0,0,1,4.291,6.852c.056.813.078,1.622.078,2.435q0,9.395,0,18.789c0,.753,0,.754-.773.754q-3.8,0-7.6,0c-.634,0-.652-.018-.653-.637q0-9.49,0-18.981a6.427,6.427,0,0,0-.448-2.568,3.568,3.568,0,0,0-2.463-2.149,5.69,5.69,0,0,0-2.6-.1,3.85,3.85,0,0,0-3.152,3.3A7.956,7.956,0,0,0,211,2565.9q.009,9.467.016,18.933c0,.633-.01.643-.641.643q-3.92,0-7.841,0c-.647,0-.649,0-.649-.679Q201.884,2573.583,201.884,2562.372Z" transform="translate(-67.702 -2538.974)" fill="#3171ba"></path><path id="Trazado_136" data-name="Trazado 136" d="M-454.778,2715.146q0,4.566,0,9.131c0,.664-.007.665-.662.671q-3.776.032-7.551.065c-.777.006-.781,0-.783-.759,0-.335.006-.67,0-1,0-.134.073-.319-.086-.389-.129-.057-.221.1-.311.178a10.56,10.56,0,0,1-3.715,2.114,11.064,11.064,0,0,1-9.315-.82,7.027,7.027,0,0,1-3.425-5.564,6.377,6.377,0,0,1,.631-4.079,8.554,8.554,0,0,1,2.905-2.986,21.1,21.1,0,0,1,6.556-2.689,23.226,23.226,0,0,0,4.606-1.413,3.746,3.746,0,0,0,1.442-5.611,5.054,5.054,0,0,0-4-2.1,12.6,12.6,0,0,0-8.436,2.473c-.18.123-.353.393-.559.308-.243-.1-.15-.419-.176-.649-.1-.854-.18-1.709-.287-2.562a.812.812,0,0,1,.431-.868,21.193,21.193,0,0,1,8.9-3.249,15.048,15.048,0,0,1,7.375.8c3.69,1.421,5.606,4.241,6.282,8.021a13.867,13.867,0,0,1,.189,2.473C-454.781,2709.473-454.777,2712.31-454.778,2715.146Zm-9.225-2.152c0-.829-.016-1.657.007-2.486.012-.424-.114-.485-.5-.335-1.543.609-3.042,1.312-4.52,2.063a4.541,4.541,0,0,0-2.1,2.142,6.4,6.4,0,0,0-.312,4.3,3.412,3.412,0,0,0,5.5,1.921,4.867,4.867,0,0,0,1.64-2.945A20.7,20.7,0,0,0-464,2712.995Z" transform="translate(543.09 -2678.536)" fill="#3171ba"></path><path id="Trazado_137" data-name="Trazado 137" d="M498.572,2722.588a14.573,14.573,0,0,1-1.466,1.157,11.452,11.452,0,0,1-7.489,1.9,10.9,10.9,0,0,1-3.767-.989,7.19,7.19,0,0,1-4.121-5.664c-.549-3.215.764-5.548,3.342-7.3a20.82,20.82,0,0,1,7.634-3.034,18.449,18.449,0,0,0,3.177-.865,4.012,4.012,0,0,0,2.634-3.209,3.88,3.88,0,0,0-1.506-3.588,5.4,5.4,0,0,0-3.168-1.193,12.548,12.548,0,0,0-8.477,2.5c-.092.063-.18.132-.27.2-.242.176-.366.122-.4-.184a23.726,23.726,0,0,0-.3-2.559c-.168-.785.191-1.135.791-1.5a21.061,21.061,0,0,1,8.972-3.057,14.028,14.028,0,0,1,8.29,1.5,9.455,9.455,0,0,1,4.572,5.877,12.406,12.406,0,0,1,.5,3.632q-.019,8.966-.006,17.932c0,.722,0,.719-.741.725q-3.776.031-7.553.064c-.626,0-.644-.019-.646-.642C498.571,2723.761,498.572,2723.236,498.572,2722.588Zm-.281-9.136c0-1.136-.013-2.092.006-3.047.008-.406-.116-.452-.475-.31-1.376.547-2.709,1.188-4.052,1.81a4.9,4.9,0,0,0-3.053,4.225,6.5,6.5,0,0,0,.33,2.961,3.442,3.442,0,0,0,5.7,1.122,5.688,5.688,0,0,0,1.339-2.805A19.724,19.724,0,0,0,498.291,2713.451Z" transform="translate(-317.998 -2678.451)" fill="#3171ba"></path><path id="Trazado_138" data-name="Trazado 138" d="M1019.841,2713.461a8.415,8.415,0,0,1-4.454,7.845,11.752,11.752,0,0,1-5.052,1.483,20.68,20.68,0,0,1-10.154-2,.737.737,0,0,1-.5-.917c.132-.831.163-1.678.232-2.519.046-.565.11-.616.581-.356a18.3,18.3,0,0,0,6.49,2.16,8.057,8.057,0,0,0,3.773-.294,2.866,2.866,0,0,0,1.57-4.559,9.622,9.622,0,0,0-3.619-3.123c-1.426-.778-2.9-1.473-4.332-2.236a8.249,8.249,0,0,1-4.571-7.377,8.4,8.4,0,0,1,1.106-4.911,9.146,9.146,0,0,1,5.183-3.924c3.653-1.21,7.2-.654,10.677.734a7.867,7.867,0,0,1,1.415.692.432.432,0,0,1,.249.461c-.119.947-.22,1.9-.326,2.846-.041.367-.224.3-.46.172a18.863,18.863,0,0,0-5.547-2.011,9.125,9.125,0,0,0-4.026-.065,2.572,2.572,0,0,0-2.095,1.687,3.233,3.233,0,0,0,.669,3.218,6.141,6.141,0,0,0,2.069,1.431c2.025.933,4.1,1.77,6.074,2.8a9.1,9.1,0,0,1,4.947,7.233A8.92,8.92,0,0,1,1019.841,2713.461Z" transform="translate(-781.554 -2675.733)" fill="#3171ba"></path><path id="Trazado_139" data-name="Trazado 139" d="M-11.8,2698.666a3.614,3.614,0,0,0,2.338,2.988c1.737.869,3.511,1.668,5.294,2.443A10.391,10.391,0,0,1,.3,2707.407a10.01,10.01,0,0,1,1.861,5.094,9.827,9.827,0,0,1-.708,4.909,8.709,8.709,0,0,1-5.557,4.767c-3.3,1.141-6.593.786-9.878-.064a17.228,17.228,0,0,1-3.574-1.337.625.625,0,0,1-.406-.711q.163-1.4.266-2.8c.03-.421.176-.438.506-.26a18.5,18.5,0,0,0,6.908,2.245,6.873,6.873,0,0,0,3.879-.52,2.781,2.781,0,0,0,1.233-4.174,8.549,8.549,0,0,0-3.338-3.074c-1.552-.878-3.16-1.658-4.743-2.482a8.112,8.112,0,0,1-4.547-7.278,8.484,8.484,0,0,1,1.051-4.926,9.36,9.36,0,0,1,5.413-4.073,14.521,14.521,0,0,1,8.2.008A15.538,15.538,0,0,1,.5,2694.178a.5.5,0,0,1,.321.564c-.115.916-.212,1.834-.318,2.751-.052.443-.292.3-.534.171a18.6,18.6,0,0,0-5.459-1.98,9.185,9.185,0,0,0-4.073-.06A2.746,2.746,0,0,0-11.8,2698.666Z" transform="translate(129.022 -2675.786)" fill="#3171ba"></path><path id="Trazado_140" data-name="Trazado 140" d="M-192.527,2703.965c.6-.565,1.16-1.166,1.794-1.692a13.311,13.311,0,0,1,5.083-2.761,7.768,7.768,0,0,1,2.078-.259c.416,0,.614.14.6.586-.041,1.209.005,2.421-.051,3.632-.023.5-.221.6-.664.614a7.907,7.907,0,0,0-5.313,2.068,10.392,10.392,0,0,0-2.846,4.739,20.715,20.715,0,0,0-.875,6.314c.017,3.633.013,7.267.017,10.9,0,.627-.014.642-.644.641q-3.825,0-7.649-.011c-.627,0-.647-.022-.647-.644q0-13.913.008-27.824c0-.672.028-.7.7-.7q3.8,0,7.6,0c.66,0,.684.026.685.714q0,1.813,0,3.625Z" transform="translate(293.378 -2682.161)" fill="#3171ba"></path></g></g><g id="ShSLyt" transform="translate(-3357.15 2991.313)"><g id="Grupo_100" data-name="Grupo 100" transform="translate(0)"><path id="Trazado_141" data-name="Trazado 141" d="M3218.527,2815.254l-1.214,4.753q-2.59,10.133-5.174,20.268a.462.462,0,0,1-.543.41c-2.268-.013-4.536-.007-6.8-.007-.566,0-.568,0-.708-.549q-1.241-4.877-2.481-9.753-1.889-7.406-3.782-14.809a.564.564,0,0,0-.116-.248v24.729c0,.126,0,.252,0,.378,0,.172-.092.249-.257.249l-.241,0q-3.814,0-7.628,0c-.489,0-.49,0-.49-.5q0-16.46,0-32.92c0-.488,0-.489.5-.489,4.272,0,8.545,0,12.817-.008a.52.52,0,0,1,.606.472q2.5,9.8,5.035,19.594a.531.531,0,0,0,.143.34c.213-.838.418-1.654.627-2.47q2.241-8.769,4.478-17.538a.446.446,0,0,1,.519-.4q6.461.013,12.921.006c.455,0,.464.008.464.46q0,16.5,0,32.989c0,.452-.009.461-.463.461q-3.832,0-7.663,0c-.492,0-.494,0-.494-.5q0-12.25,0-24.5v-.411Z" transform="translate(-3092.031 -2766.15)" fill="#21548e"></path><path id="Trazado_142" data-name="Trazado 142" d="M2414.486,2496.814c.229.089.458.18.687.266a7.526,7.526,0,0,1,3.1,2.257,22.38,22.38,0,0,1,2.836,4.529c1.255,2.471,2.531,4.932,3.8,7.4.026.051.049.1.079.153.161.265.044.349-.219.34-.057,0-.114,0-.172,0-3.608,0-7.217,0-10.825.007a.734.734,0,0,1-.75-.446q-2.869-5.342-5.769-10.668a7.16,7.16,0,0,0-1.028-1.457,3.807,3.807,0,0,0-2.5-1.16c-.352-.037-.71-.009-1.065-.015-.2,0-.3.084-.293.287,0,.115,0,.229,0,.344v12.475c0,.632,0,.633-.615.633h-9.417c-.56,0-.562,0-.562-.547q0-16.41,0-32.819c0-.538,0-.539.523-.539q8.969,0,17.939.007a26.49,26.49,0,0,1,5.388.53,8.24,8.24,0,0,1,6.611,6.966,9.916,9.916,0,0,1-.891,6.484,8.993,8.993,0,0,1-4.647,4.194C2415.981,2496.332,2415.245,2496.571,2414.486,2496.814Zm-12.12-8.68c0,1,.011,1.991-.007,2.987-.006.335.114.433.438.427.927-.017,1.854-.028,2.781,0a14.158,14.158,0,0,0,4.037-.5,2.778,2.778,0,0,0,1.542-1.022,3.4,3.4,0,0,0,.627-2.366,2.83,2.83,0,0,0-1.92-2.547,6.943,6.943,0,0,0-2.093-.342c-1.67-.022-3.341-.008-5.012-.021-.3,0-.4.1-.4.4C2402.373,2486.142,2402.366,2487.138,2402.366,2488.134Z" transform="translate(-2391.697 -2477.246)" fill="#21548e"></path><path id="Trazado_143" data-name="Trazado 143" d="M2704.728,2507.959a25.23,25.23,0,0,1-7.715-.957,14.431,14.431,0,0,1-9.609-9.414,20.219,20.219,0,0,1-1.052-5.893,23.843,23.843,0,0,1,.7-7.283,14.912,14.912,0,0,1,4.075-7.088,15.492,15.492,0,0,1,8.161-4.041,24.551,24.551,0,0,1,5.3-.4,20.974,20.974,0,0,1,7.863,1.576,14.1,14.1,0,0,1,7.888,8.556,20.054,20.054,0,0,1,1.056,5.65,24.719,24.719,0,0,1-.7,7.9c-1.619,5.945-5.52,9.524-11.487,10.893A20.185,20.185,0,0,1,2704.728,2507.959Zm6.2-18.36a15.059,15.059,0,0,0-.3-2.936,7.5,7.5,0,0,0-1.7-3.7,6.693,6.693,0,0,0-6.069-2.054,6.074,6.074,0,0,0-5.307,4.368,13.569,13.569,0,0,0-.663,3.74,18.8,18.8,0,0,0,.51,6.165,6.255,6.255,0,0,0,3.738,4.379,7.987,7.987,0,0,0,3.375.466,5.95,5.95,0,0,0,5.645-4.155A19.528,19.528,0,0,0,2710.924,2489.6Z" transform="translate(-2650.416 -2472.873)" fill="#21548e"></path><path id="Trazado_144" data-name="Trazado 144" d="M3590.036,2836.852a26.6,26.6,0,0,1-7.016-.76,10.3,10.3,0,0,1-5.239-2.91,13.275,13.275,0,0,1-3.333-7.144c-.036-.238-.046-.479-.084-.716s.063-.306.278-.318q1.8-.1,3.6-.214c1.655-.1,3.31-.216,4.965-.322.275-.017.551-.006.824-.036.237-.026.32.06.356.29a9.064,9.064,0,0,0,.638,2.311,5.05,5.05,0,0,0,4.149,3.044,6.763,6.763,0,0,0,3.449-.329,3.31,3.31,0,0,0,2.234-3.119,3.1,3.1,0,0,0-1.806-2.726,14.955,14.955,0,0,0-3.725-1.281,42.892,42.892,0,0,1-6.744-1.994,13.357,13.357,0,0,1-4.612-2.918,8.25,8.25,0,0,1-2.364-5.694,9.409,9.409,0,0,1,5.883-8.821,17.812,17.812,0,0,1,5.732-1.3,31.881,31.881,0,0,1,3.5-.115,22.458,22.458,0,0,1,6.157.937,9.582,9.582,0,0,1,6.8,7.456c.106.457.176.922.265,1.382.052.271-.034.4-.331.411q-3.119.162-6.237.348c-.948.056-1.9.113-2.843.191-.335.028-.493-.062-.554-.415a5.714,5.714,0,0,0-.608-1.745,4.161,4.161,0,0,0-3.576-2.147,6.548,6.548,0,0,0-2.321.126,3.048,3.048,0,0,0-1.614.987,1.994,1.994,0,0,0,.615,3.17,10.558,10.558,0,0,0,2.769.9,59.978,59.978,0,0,1,8.662,2.4,12.879,12.879,0,0,1,4.605,2.862,8.84,8.84,0,0,1,2.551,5.674,10.693,10.693,0,0,1-2.416,7.838,11.811,11.811,0,0,1-6.192,3.93A21.913,21.913,0,0,1,3590.036,2836.852Z" transform="translate(-3430.444 -2761.765)" fill="#21548e"></path><path id="Trazado_145" data-name="Trazado 145" d="M3272.8,2477.811c1.776,0,3.551.005,5.326-.006a.481.481,0,0,1,.53.362q6.2,16.531,12.413,33.057c.183.488.18.491-.338.491-3.333,0-6.666,0-10,.008a.57.57,0,0,1-.654-.478c-.467-1.6-.968-3.2-1.441-4.8a.4.4,0,0,0-.451-.346q-5.568.01-11.133,0a.38.38,0,0,0-.434.323c-.462,1.594-.937,3.185-1.407,4.778-.153.518-.152.519-.673.519h-9.689c-.521,0-.532-.012-.352-.489q3.992-10.627,7.987-21.253,2.188-5.82,4.373-11.64c.2-.521.192-.522.754-.522Zm-.1,9.045-.073,0c-.028.072-.06.143-.083.216q-1.714,5.632-3.425,11.265c-.11.362-.091.385.3.385q3.177,0,6.354,0c.641,0,.582.033.4-.548q-1.352-4.433-2.717-8.862Q3273.079,2488.084,3272.7,2486.856Z" transform="translate(-3149.393 -2477.206)" fill="#21548e"></path><path id="Trazado_146" data-name="Trazado 146" d="M2391.151,2823.784q0-8.213,0-16.427c0-.529,0-.531.528-.531h24.846c.549,0,.55,0,.55.558q0,3.127,0,6.254c0,.507,0,.507-.521.507h-14.365c-.488,0-.489,0-.489.491,0,1.649.01,3.3-.007,4.949,0,.355.11.441.451.44q6.082-.016,12.166-.007c.51,0,.511,0,.511.516q0,2.938,0,5.876c0,.505,0,.507-.524.507h-11.959c-.7,0-.637-.054-.637.621q0,6.323,0,12.646c0,.555,0,.556-.537.556h-9.519c-.491,0-.492,0-.492-.5Q2391.15,2832.014,2391.151,2823.784Z" transform="translate(-2391.151 -2766.208)" fill="#21548e"></path><path id="Trazado_147" data-name="Trazado 147" d="M2991.046,2504.466c0-2.188-.005-4.376.005-6.563a1.5,1.5,0,0,0-.268-.894q-6.283-9.356-12.553-18.722c-.07-.1-.137-.211-.21-.314-.12-.17-.112-.273.13-.265.069,0,.138,0,.206,0,3.574,0,7.148,0,10.722-.007a.689.689,0,0,1,.683.383q3.166,5.333,6.353,10.653c.207.345.211.345.416,0q3.146-5.265,6.282-10.536a.9.9,0,0,1,.892-.506c3.494.018,6.988.01,10.481.014.151,0,.359-.087.441.075.068.137-.1.262-.184.382q-6.272,9.384-12.556,18.761a1.669,1.669,0,0,0-.3.986q.015,6.581.006,13.161c0,.545,0,.545-.554.545h-9.45c-.538,0-.539,0-.539-.523Z" transform="translate(-2906.573 -2477.102)" fill="#21548e"></path><path id="Trazado_148" data-name="Trazado 148" d="M3599.946,2494.785q0-8.2,0-16.391c0-.544,0-.545.549-.545h9.449c.529,0,.53,0,.53.534q0,12.146,0,24.293c0,.137,0,.275,0,.412,0,.19.092.269.277.263.114,0,.229,0,.343,0h15.153c.529,0,.53,0,.53.53q0,3.695,0,7.388c0,.476-.007.484-.476.484H3600.43c-.481,0-.483,0-.483-.511Q3599.946,2503.015,3599.946,2494.785Z" transform="translate(-3452.92 -2477.244)" fill="#21548e"></path><path id="Trazado_149" data-name="Trazado 149" d="M2887.357,2823.76v-16.354c0-.579,0-.579.588-.579h9.414c.531,0,.532,0,.532.53q0,12.214,0,24.428c0,.545,0,.545.542.546h15.186c.572,0,.572,0,.572.559q0,3.693,0,7.387c0,.452-.009.461-.463.461h-25.906c-.468,0-.473-.005-.473-.485q0-8.246,0-16.491Z" transform="translate(-2826.997 -2766.207)" fill="#21548e"></path><path id="Trazado_150" data-name="Trazado 150" d="M2706.961,2823.782q0,8.213,0,16.427c0,.526,0,.527-.533.527h-9.52c-.473,0-.484-.01-.484-.477q0-16.479,0-32.958c0-.467.009-.475.486-.475h9.554c.495,0,.5,0,.5.494Q2706.961,2815.551,2706.961,2823.782Z" transform="translate(-2659.293 -2766.207)" fill="#21548e"></path></g></g><g id="_6UrF1U" data-name="6UrF1U" transform="translate(-2832.481 3002.606)"><g id="Grupo_101" data-name="Grupo 101" transform="translate(0)"><path id="Trazado_151" data-name="Trazado 151" d="M5731.948,2616.96a5.579,5.579,0,0,1,.968-2.071,4.685,4.685,0,0,1,3.782-1.863q11.621,0,23.242,0a4.843,4.843,0,0,1,.4,9.661,45.434,45.434,0,0,1-4.957.04,2.082,2.082,0,0,0-2.251,2.275c.028,7.487.016,14.974.013,22.46a4.862,4.862,0,1,1-9.723-.1q-.005-11.25,0-22.5a2.077,2.077,0,0,0-.407-1.391,1.888,1.888,0,0,0-1.566-.729c-1.536.011-3.073.031-4.61,0a4.806,4.806,0,0,1-4.557-2.983,9.329,9.329,0,0,1-.333-1Zm16.349-2.243q-5.684,0-11.367,0a3.543,3.543,0,0,0-.622.037,3.142,3.142,0,0,0,.553,6.251q2.3.007,4.61,0a3.6,3.6,0,0,1,.963.13,3.639,3.639,0,0,1,2.72,3.7q0,11.054,0,22.108c0,.234,0,.469.011.7a3.14,3.14,0,0,0,3.7,2.851,3.2,3.2,0,0,0,2.588-3.261c0-7.487.028-14.974-.018-22.46a3.726,3.726,0,0,1,3.773-3.771c1.536.026,3.073,0,4.609,0a3.036,3.036,0,0,0,2.1-.8,3.143,3.143,0,0,0-2.1-5.483Q5754.059,2614.712,5748.3,2614.718Z" transform="translate(-5731.948 -2599.773)"></path><path id="Trazado_152" data-name="Trazado 152" d="M6881.886,2632.114c-.14.872-.235,1.75-.437,2.613a19.5,19.5,0,0,1-4.638,8.86,19.741,19.741,0,0,1-34.17-10.594,19.738,19.738,0,0,1,38.962-6.281c.109.6.19,1.206.283,1.808Zm-19.687,16.235a18.021,18.021,0,1,0-18.028-18.277A18.026,18.026,0,0,0,6862.2,2648.349Z" transform="translate(-6725.634 -2597.583)"></path><path id="Trazado_153" data-name="Trazado 153" d="M6518.255,2487.037a5.116,5.116,0,0,1,2.53,1.31,4.66,4.66,0,0,1,1.177,5.165,4.593,4.593,0,0,1-4.087,3.153,4.846,4.846,0,0,1-1.783-9.489c.149-.042.3-.093.445-.14Z" transform="translate(-6430.441 -2487.037)" fill="#e41019"></path><path id="Trazado_154" data-name="Trazado 154" d="M6670.729,2487.037a6.055,6.055,0,0,1,2.1.9,4.834,4.834,0,1,1-7.614,4.722,4.783,4.783,0,0,1,3.543-5.495c.137-.037.272-.084.408-.126Z" transform="translate(-6566.978 -2487.037)" fill="#feec00"></path><path id="Trazado_155" data-name="Trazado 155" d="M6457.313,2613.019q8.027,0,16.054,0a4.835,4.835,0,0,1,4.818,4.5,4.885,4.885,0,0,1-4.075,5.133,26,26,0,0,1-3.393.079c-.562.009-.563,0-.563.555,0,8.034-.026,16.067.018,24.1a4.894,4.894,0,0,1-4.594,4.861,4.833,4.833,0,0,1-5.055-4.021,5.679,5.679,0,0,1-.084-1.01q-.007-11.191,0-22.382a3.663,3.663,0,0,1,3.866-3.84c1.224,0,2.448-.012,3.672.007.362.005.5-.085.5-.476-.019-1.783-.015-3.567,0-5.351,0-.34-.071-.479-.451-.478q-6.718.018-13.437,0c-.423,0-.448.187-.448.519q.009,16.094,0,32.187a4.8,4.8,0,0,1-3.82,4.743,4.855,4.855,0,0,1-5.85-4.2,8.681,8.681,0,0,1-.048-.934q0-11.035,0-22.07a2.3,2.3,0,0,0-.2-1.178,1.843,1.843,0,0,0-1.752-1.027,6.747,6.747,0,0,1-2.943-.465,5.038,5.038,0,0,1-3.1-4.651,4.863,4.863,0,0,1,4.642-4.6Q6449.189,2613.011,6457.313,2613.019Zm-4.866,18.333v-16.129c0-.512,0-.514-.519-.514q-5.271,0-10.544,0a3.774,3.774,0,0,0-.812.092,3.093,3.093,0,0,0-2.375,3.52,3.177,3.177,0,0,0,1.634,2.179,3.527,3.527,0,0,0,2.133.5,3.843,3.843,0,0,1,4.22,4.212c-.094,4.893-.027,9.789-.027,14.684,0,2.526-.013,5.051.005,7.576a3.143,3.143,0,0,0,6.284-.143Q6452.45,2639.339,6452.447,2631.352Zm16.016,4q0-6.072,0-12.142c0-.271,0-.48-.377-.476-1.367.015-2.733-.008-4.1.014a1.865,1.865,0,0,0-1.812,1.835c-.011.377,0,.755,0,1.132q0,10.756,0,21.511a3.244,3.244,0,0,0,.881,2.346,3.142,3.142,0,0,0,5.412-2.157Q6468.469,2641.382,6468.463,2635.35Zm1.691-17.516c0,.924.01,1.847-.006,2.77-.005.313.109.4.409.4.962-.014,1.925.01,2.887-.012a3.142,3.142,0,0,0-.041-6.28c-.948-.015-1.9.006-2.847-.009-.3,0-.414.085-.407.4C6470.166,2616.014,6470.154,2616.924,6470.154,2617.834Z" transform="translate(-6362.313 -2599.765)"></path><path id="Trazado_156" data-name="Trazado 156" d="M6091.565,2630.411a19.738,19.738,0,1,1-19.607-19.734A19.727,19.727,0,0,1,6091.565,2630.411Zm-19.747,18.026a18.019,18.019,0,1,0-18.011-18.142A18,18,0,0,0,6071.818,2648.437Z" transform="translate(-6018.412 -2597.67)"></path><path id="Trazado_157" data-name="Trazado 157" d="M6927.734,2708.043a12.036,12.036,0,1,1,12.068-12A12.028,12.028,0,0,1,6927.734,2708.043Zm.05-1.745a10.3,10.3,0,1,0-10.327-10.276A10.331,10.331,0,0,0,6927.784,2706.3Z" transform="translate(-6791.205 -2663.255)"></path><path id="Trazado_158" data-name="Trazado 158" d="M6137.453,2708.053a12.036,12.036,0,1,1,11.986-12.075A12.056,12.056,0,0,1,6137.453,2708.053Zm-.08-1.745a10.3,10.3,0,1,0-10.273-10.327A10.293,10.293,0,0,0,6137.373,2706.308Z" transform="translate(-6083.982 -2663.264)"></path></g></g><g id="_3Rk7nd" data-name="3Rk7nd" transform="translate(-2764.034 2866.094)"><g id="Grupo_102" data-name="Grupo 102" transform="translate(0)"><path id="Trazado_159" data-name="Trazado 159" d="M1337.327,2408.53A43.9,43.9,0,1,1,1381,2452.39,43.862,43.862,0,0,1,1337.327,2408.53Zm65.477,12.613c-3.7-.453-6.5-2.117-7.23-5.99-.7-3.72,1.006-6.382,4.3-8.174a4.718,4.718,0,0,1-1.756-4.538c.35-1.836,1.652-2.794,3.25-3.507-2.9-2.364-2.855-4.383-1.4-6.944a25.034,25.034,0,0,0-43.705,19.045,25.162,25.162,0,0,0,20.453,22.165A24.883,24.883,0,0,0,1402.8,2421.142ZM1358.8,2425.4l-2.491-3.883-8.568,10.756,1.97,2.535,4.685-2.9.122.136-3.335,4.157,2.169,2.463,11.493-7.348-3.072-2.577-4.295,4.144-.241-.238,3.741-4.761-1.434-1.587-4.951,3.135-.237-.337Zm.672-51.734,5.731,11.871,3.476-2.106-2.529-4.093.414-.368a4.822,4.822,0,0,1,1.065.928c.532.846.915,1.786,1.44,2.638a.982.982,0,0,0,.857.359c.984-.314,1.933-.738,3.106-1.207-1.505-1.823-2.08-4.243-4.339-5.45.779-1.558.089-2.991-1-4.228a3.006,3.006,0,0,0-3.6-.671C1362.457,2372.029,1360.914,2372.925,1359.469,2373.664Zm42.97-.419-7.245-3.395-5.5,11.8,7.216,3.434,1.92-4.125-2.676-1.508c-.586.545-.654,1.757-1.843.943l.966-2.029,1.926.894,1.066-2.256-1.875-1.072.9-1.91c1.287.5.469,1.3.46,1.951l2.706,1.492Zm-.958,54.929-6.344,4.865,7.657,10.532,6.362-4.811-2.733-3.783-2.361,2.077c.266.675,1.1,1.3-.068,1.939l-1.225-1.7,1.626-1.387-1.511-2.025-1.694,1.3-1.343-1.884c1.082-1.007,1.383.274,2.017.632l2.293-2.07Zm-20.733-52.339-3.021.215c-.211.725.371,1.778-1.019,1.819l-.311-2.237,2.089-.317c-.12-.837-.233-1.619-.353-2.453l-2.125.093-.272-2.059c1.3-.31,1.11.762,1.426,1.374l3.081-.259c-.211-1.5-.409-2.922-.643-4.588l-7.878,1.109,1.781,12.933,7.681-1.117c-.067-.842-.127-1.693-.206-2.542C1380.924,2377.214,1380.842,2376.626,1380.748,2375.835Zm28.522,8.61c.635-.671,1.236-1.273,1.792-1.913a1.032,1.032,0,0,0,.214-.692c-.144-1.763-2.353-4.309-4.082-4.607a2.933,2.933,0,0,0-1.833.188c-2.041,1.2-4.1,3.314-2.091,6.2a8.708,8.708,0,0,1,.448.771,1.331,1.331,0,0,1-.573,1.9.8.8,0,0,1-.767.005.846.846,0,0,1-.061-.786,8.546,8.546,0,0,1,.909-1.181l-2.579-2.107c-.706.754-1.37,1.4-1.948,2.117a1.411,1.411,0,0,0-.236,1,6.26,6.26,0,0,0,4.091,4.342c2.09.381,3.312-.934,4.44-2.379a3.222,3.222,0,0,0,.11-3.761,7.816,7.816,0,0,1-.828-1.807c-.069-.312.293-.762.548-1.079.079-.1.448.037.685.066-.066.361-.123.725-.2,1.083a1.889,1.889,0,0,1-.181.381Zm-43.963,47.211-8.058,10.193,3.424,2.229,1.338-3.377,1.33.777-2.118,2.93,4.123,1.978,4.173-12.331Zm43.1,1.3c.4.3.695.53.993.748,2.13,1.56,3.066,1.467,4.789-.587a8.507,8.507,0,0,0,1.219-1.979,3,3,0,0,0-.411-3.154c-1.866-2.544-4.04-2.909-6.6-1.112a3.351,3.351,0,0,1-1.247.682c-.311.05-.726-.255-1.014-.5-.108-.091.014-.454.03-.693a8.841,8.841,0,0,1,1.024.092,2.576,2.576,0,0,1,.606.322l1.656-2.712c-.7-.507-1.245-.955-1.844-1.321a1.213,1.213,0,0,0-.906-.173,6.021,6.021,0,0,0-3.952,4.345,2.687,2.687,0,0,0,.37,2c1.5,2.01,3.823,3.632,6.4,1.351a6.44,6.44,0,0,1,.8-.6,1.348,1.348,0,0,1,1.936.467.724.724,0,0,1,.052.683.738.738,0,0,1-.664.193,7.551,7.551,0,0,1-1.163-.592Zm-22.432-52.071.234-3.565c.5.052.938.1,1.379.144,2.056.187,3.078-.485,3.57-2.492a20.263,20.263,0,0,0,.511-3.295c.122-1.627-.545-2.866-1.87-3.172-1.935-.448-3.918-.687-5.779-1l-2.037,12.994Zm-26.931-1.377c-.714-.761-1.341-1.5-2.047-2.143a1.31,1.31,0,0,0-.989-.225,6.13,6.13,0,0,0-4.11,2.625,2.8,2.8,0,0,0,.055,3.706c1.613,1.889,3.334,3.692,5.082,5.458a2.788,2.788,0,0,0,3.2.643,6.007,6.007,0,0,0,3.523-3.93,1.525,1.525,0,0,0-.182-1.216c-.709-.893-1.533-1.694-2.38-2.6l-2.575,2.154a9.458,9.458,0,0,1,1.1,1.217,4.035,4.035,0,0,1,.32,1.132c-.373-.105-.848-.1-1.1-.336-.787-.732-1.49-1.554-2.224-2.342-.582-.625-1.2-1.223-1.726-1.893-.181-.231-.129-.644-.184-.974a2.569,2.569,0,0,1,.951.19c.256.172.383.536.58.837Zm17.16,62.006-2.1-.514.542-2.247c1.335.294.526,1.282.876,1.974l2.765.343.937-4.418-7.541-1.628-2.653,12.714,3.9.988.575-5.1,2.206.329Zm11.42-5.523-8.064.706a38.332,38.332,0,0,1,1.213,12.664h4.365l-.946-5.04,2.2-.312-.282-2.486-2.134.164v-2.373c1.344-.119.747,1.156,1.269,1.671l2.754-.477C1387.865,2438.91,1387.741,2437.44,1387.62,2435.992Zm12.692,9.014-2.021-4.989-2.626,1.3c-.115.9,1.239,1.814-.369,2.636l-3.443-9.453-3.685,1.222,4.964,12.184Zm15.236-39.54a3.163,3.163,0,1,0,3.219,3.135A3.142,3.142,0,0,0,1415.548,2405.466Zm-68.921,0a3.164,3.164,0,0,0-.076,6.326,3.164,3.164,0,1,0,.076-6.326Zm70.148,21.914a2.175,2.175,0,0,0,2.135-2.127,2.146,2.146,0,0,0-2.128-2.123,2.125,2.125,0,0,0-.007,4.25Z" transform="translate(-1337.327 -2364.684)" fill="#3e2924"></path><path id="Trazado_160" data-name="Trazado 160" d="M1580.906,2563.553c-2.608,2.35-2.435,4.792.535,6.762-1.935.528-3.345,1.588-3.62,3.652s.81,3.45,2.709,4.476a8.1,8.1,0,0,0-4.744,3.434,6.92,6.92,0,0,0-.844,5.674c.973,3.6,4.391,5.75,8.651,5.47-1.476,5.284-12.244,10.969-20.215,10.671a23.661,23.661,0,0,1-9.556-45.023C1563.785,2553.933,1574.958,2557,1580.906,2563.553Zm-18.3,14.846c2.374-1.49,3.143-3.515,2.072-5.226-1.018-1.627-4.275-2.108-6.044-.76a3.931,3.931,0,0,0-1.279,1.987,3.623,3.623,0,0,0,1.267,3.665c-2.232,2.153-2.673,4.751-1.2,6.694,1.494,1.966,4.288,2.1,7.182.293,1.127,1.85,2.861.8,4.679,1.09l-2.609-3.04,1.134-5.081h-3.062c-.042.9-.081,1.689-.131,2.742Zm11.746,20.457-.1-.376c-.629.184-1.256.373-1.886.549-12.3,3.444-24.014-4.6-25.107-17.252-.1-1.167-.774-1.845-1.727-1.74-1,.11-1.513.965-1.312,2.168a21.8,21.8,0,0,0,24.395,18.009C1570.556,2599.948,1572.443,2599.318,1574.353,2598.856Z" transform="translate(-1518.982 -2536.209)" fill="#3e2924"></path><path id="Trazado_161" data-name="Trazado 161" d="M1590.213,2457.169c.788-.614,1.219-.226,1.54.4.333.645.627,1.318-.474,1.737Z" transform="translate(-1563.611 -2447.163)" fill="#3e2924"></path><path id="Trazado_162" data-name="Trazado 162" d="M1587.593,3044.586l-1.024,2.711-.872-.485,1.739-2.308Z" transform="translate(-1559.569 -2972.99)" fill="#3e2924"></path><path id="Trazado_163" data-name="Trazado 163" d="M1805.343,2427.74l.584-3.569c1.4.17,1.024,1.124.894,1.834C1806.684,2426.746,1806.867,2427.878,1805.343,2427.74Z" transform="translate(-1756.11 -2417.913)" fill="#3e2924"></path><path id="Trazado_164" data-name="Trazado 164" d="M2079.066,2925.289a1.627,1.627,0,0,1,1.525,1.7,1.557,1.557,0,0,1-1.627,1.464,1.585,1.585,0,1,1,.1-3.167Zm1.293,1.429-.07-.218a2.33,2.33,0,0,1-.892-.12c-1.1-.682-1.093-.7-1.664.722l1.746.94.156-.181-.28-.666Z" transform="translate(-1999.568 -2866.315)" fill="#3e2924"></path><path id="Trazado_165" data-name="Trazado 165" d="M1725.13,2778.83l3.013,3.473a1.963,1.963,0,0,1-2.581.219C1724.6,2781.881,1724.418,2780.468,1725.13,2778.83Z" transform="translate(-1683.946 -2735.264)" fill="#3e2924"></path><path id="Trazado_166" data-name="Trazado 166" d="M1731.294,2725.354c-1.062-.607-1.655-1.294-1.391-2.263a1.426,1.426,0,0,1,.934-.848c.219-.044.8.523.8.821A13.084,13.084,0,0,1,1731.294,2725.354Z" transform="translate(-1688.55 -2684.628)" fill="#3e2924"></path></g></g><g id="JfxOIM" transform="translate(-3103.842 2973.395)"><g id="Grupo_103" data-name="Grupo 103"><path id="Trazado_167" data-name="Trazado 167" d="M5199.051,2582.343c-.167.393-.323.793-.5,1.178-1.685,3.624-5.306,5.137-8.61,3.6-1.7-.789-2.535-2.375-2.949-4.339a15.884,15.884,0,0,1-.3-3.3q0-17.028.013-34.056a12.4,12.4,0,0,1,.6-4,4.935,4.935,0,0,1,4.219-3.67c3.292-.418,5.592,1,7.163,4.376.069.147.094.335.255.424.159-.127.078-.318.078-.471.005-3.48.013-6.959,0-10.439,0-.452.09-.573.488-.569q4.044.034,8.089,0c.371,0,.5.068.5.555q-.018,27.7,0,55.4c0,.422-.068.554-.458.551q-4.018-.034-8.038,0c-.349,0-.451-.1-.444-.51.022-1.569.008-3.139.008-4.709Zm-3.286-19.681v13.348a7.7,7.7,0,0,0,.126,1.562c.185.881.562,1.258,1.319,1.33a1.416,1.416,0,0,0,1.556-1.078,4.959,4.959,0,0,0,.253-1.712q.005-13.436,0-26.871a4.808,4.808,0,0,0-.253-1.711,1.419,1.419,0,0,0-1.591-1.011c-.732.065-1.119.444-1.291,1.289a7.593,7.593,0,0,0-.12,1.5Q5195.765,2555.987,5195.765,2562.661Z" transform="translate(-5047.124 -2503.993)" fill="#df0e0c"></path><path id="Trazado_168" data-name="Trazado 168" d="M4277.323,2618.385q0,11.839.011,23.679c0,.5-.077.646-.535.64-2.646-.03-5.293-.025-7.938,0-.377,0-.48-.1-.47-.543.028-1.243.014-2.488.006-3.733,0-.14.084-.357-.076-.415-.193-.071-.222.18-.291.316a7.756,7.756,0,0,1-3.414,3.8,6.391,6.391,0,0,1-5.3.168c-1.859-.744-2.769-2.454-3.189-4.583a14.282,14.282,0,0,1-.249-2.778q0-20.15-.01-40.3c0-.479.089-.607.515-.6q3.969.039,7.939,0c.48-.005.637.087.635.708q-.03,18.167-.015,36.334a7.51,7.51,0,0,0,.121,1.622,1.467,1.467,0,0,0,1.555,1.322c.782,0,1.251-.426,1.442-1.313a7.367,7.367,0,0,0,.125-1.563q0-18.226-.013-36.451c0-.537.115-.663.571-.659q4.02.04,8.04,0c.428,0,.555.086.554.622Q4277.309,2606.517,4277.323,2618.385Z" transform="translate(-4232.144 -2559.099)" fill="#df0e0c"></path><path id="Trazado_169" data-name="Trazado 169" d="M5401.141,2618.317c0,3.986.009,7.971,0,11.958a23.635,23.635,0,0,1-.7,5.752c-.837,3.3-2.708,5.327-5.57,6.119a15.162,15.162,0,0,1-8.111.018c-3.042-.817-4.928-3.019-5.731-6.506a25.451,25.451,0,0,1-.611-5.711q-.009-11.84.012-23.681a22.582,22.582,0,0,1,.754-5.857c.812-3,2.513-4.941,5.125-5.758a14.622,14.622,0,0,1,9.074.036c2.912.948,4.54,3.314,5.234,6.649a28.733,28.733,0,0,1,.533,5.9q0,5.541,0,11.082Zm-8.718-.163v-13.992a6.4,6.4,0,0,0-.171-1.73,1.442,1.442,0,0,0-1.538-1.194c-.731.05-1.166.466-1.321,1.327a7.19,7.19,0,0,0-.114,1.272q-.009,14.254,0,28.509a5.615,5.615,0,0,0,.177,1.494,1.367,1.367,0,0,0,1.435,1.169,1.382,1.382,0,0,0,1.377-1.189,6.931,6.931,0,0,0,.159-1.732Q5392.423,2625.121,5392.423,2618.154Z" transform="translate(-5216.735 -2559.032)" fill="#df0e0c"></path><path id="Trazado_170" data-name="Trazado 170" d="M4997.728,2618.409c0-3.986-.016-7.972.008-11.957a25.329,25.329,0,0,1,.563-5.193c.77-3.577,2.658-5.841,5.77-6.673a15.142,15.142,0,0,1,8.3.069c3.228.944,4.965,3.5,5.643,7.171a30.1,30.1,0,0,1,.458,5.444q.013,11.141,0,22.281a27.039,27.039,0,0,1-.659,6.345c-.82,3.388-2.686,5.52-5.637,6.333a15.172,15.172,0,0,1-8.16,0c-3.251-.888-5.084-3.363-5.8-7.067a29.229,29.229,0,0,1-.493-5.556q-.012-5.6,0-11.2Zm8.858-.279q0,7.055,0,14.109a6.658,6.658,0,0,0,.16,1.616,1.433,1.433,0,0,0,2.838,0,5.62,5.62,0,0,0,.159-1.382q0-14.254,0-28.509a4.591,4.591,0,0,0-.267-1.707,1.39,1.39,0,0,0-1.484-.933,1.306,1.306,0,0,0-1.24,1.141,6.665,6.665,0,0,0-.166,1.673Q5006.584,2611.134,5006.586,2618.13Z" transform="translate(-4881.667 -2559.112)" fill="#df0e0c"></path><path id="Trazado_171" data-name="Trazado 171" d="M4065.252,2627.737c0-1.555.011-3.111-.007-4.666-.006-.408.05-.569.454-.565q3.994.036,7.99,0c.4,0,.454.156.452.563-.015,2.741-.006,5.483-.009,8.224a5.731,5.731,0,0,0,.218,1.779,1.418,1.418,0,0,0,2.717-.011,5.452,5.452,0,0,0,.217-1.721c.005-1.4,0-2.8,0-4.2a5.439,5.439,0,0,0-.793-2.717,15.659,15.659,0,0,0-2.743-3.466,60.331,60.331,0,0,1-4.655-4.708,16.677,16.677,0,0,1-3.542-6.742,9.026,9.026,0,0,1-.277-2.01c-.009-1.808-.056-3.618.005-5.423.132-3.849,1.78-6.572,4.849-7.955a12.949,12.949,0,0,1,10.8-.082c3.325,1.434,5,4.414,5.141,8.5.082,2.466.018,4.938.032,7.407,0,.3-.062.4-.331.4-2.714-.011-5.428-.016-8.141,0-.365,0-.352-.2-.351-.5q.008-3.325,0-6.649a6.388,6.388,0,0,0-.19-1.843,1.428,1.428,0,0,0-2.768-.015,4.386,4.386,0,0,0-.186,1.258c-.008,1.07-.028,2.14,0,3.208a6.051,6.051,0,0,0,.97,2.952,15.168,15.168,0,0,0,3.028,3.548c1.763,1.582,3.462,3.245,5.095,5.01a11.014,11.014,0,0,1,2.852,7.743c.012,2.2.046,4.4-.008,6.59-.129,5.247-2.552,8.627-6.965,9.724a13.648,13.648,0,0,1-7.415-.171c-4.1-1.262-6.4-4.836-6.446-9.9C4065.245,2630.109,4065.252,2628.923,4065.252,2627.737Z" transform="translate(-4065.245 -2558.115)" fill="#df0e0c"></path><path id="Trazado_172" data-name="Trazado 172" d="M4460.354,2598.382c.319-.567.594-1.094.9-1.6a6.373,6.373,0,0,1,7.8-2.968c2.127.7,3.1,2.6,3.53,4.974a15.223,15.223,0,0,1,.219,2.722q0,7.931.008,15.862c0,.461-.068.624-.5.62q-4.094-.038-8.188,0c-.382,0-.469-.112-.467-.547.015-4.121.009-8.241.009-12.362a7.305,7.305,0,0,0-.11-1.506c-.168-.816-.522-1.187-1.244-1.28a1.407,1.407,0,0,0-1.595.91,4.85,4.85,0,0,0-.29,1.931q0,18.194.014,36.388c0,.633-.16.743-.66.738q-3.943-.044-7.887,0c-.435,0-.552-.106-.552-.631q.022-23.792,0-47.584c0-.446.083-.582.486-.579q3.994.036,7.989,0c.386,0,.47.124.462.55-.025,1.243-.012,2.488-.006,3.732A1.079,1.079,0,0,0,4460.354,2598.382Z" transform="translate(-4403.289 -2558.592)" fill="#df0e0c"></path><path id="Trazado_173" data-name="Trazado 173" d="M4867.287,2564.71c0-5.638-.006-11.277.011-16.915,0-.49-.1-.639-.522-.6-.482.045-.972-.006-1.456.017-.273.014-.338-.105-.336-.4q.013-3.47,0-6.941c0-.288.081-.361.315-.354.536.018,1.073-.017,1.607.014.322.019.391-.113.389-.463-.013-2.255,0-4.511-.017-6.766,0-.421.1-.506.447-.5q4.121.025,8.241,0c.382,0,.47.113.466.548-.021,2.216,0,4.433-.021,6.649,0,.447.1.563.478.539.6-.038,1.205,0,1.808-.017.269-.008.379.057.377.41q-.021,3.441,0,6.883c0,.362-.122.41-.385.4-.6-.018-1.207.023-1.809-.016-.377-.025-.47.1-.468.542q.022,7.816.01,15.632,0,6.911,0,13.823a10.32,10.32,0,0,0,.1,1.684c.183,1.118.565,1.514,1.55,1.619s.99.105.99,1.294q0,3,0,6.008c0,.254.048.494-.308.485-2.21-.053-4.422.08-6.631-.088a5.493,5.493,0,0,1-.941-.165c-2.184-.557-3.243-1.9-3.662-4.614a22.414,22.414,0,0,1-.238-3.424Z" transform="translate(-4765.453 -2504.615)" fill="#df0e0c"></path><path id="Trazado_174" data-name="Trazado 174" d="M4642.6,2564.747q0-8.487.009-16.974c0-.43-.06-.623-.479-.583-.5.048-1.005,0-1.507.018-.247.01-.315-.088-.315-.364q.01-3.5,0-7c0-.255.072-.339.289-.332.486.015.975-.029,1.457.015.425.038.567-.078.559-.619-.032-2.177,0-4.355-.022-6.532,0-.447.082-.588.49-.584q4.1.035,8.192,0c.364,0,.479.079.475.533-.023,2.216,0,4.433-.02,6.649,0,.425.071.581.463.553.6-.043,1.207.006,1.808-.019.3-.011.406.066.4.444q-.023,3.412,0,6.825c0,.325-.07.442-.363.43-.637-.025-1.274.01-1.909-.016-.3-.012-.425.075-.4.448.029.406.006.816.006,1.224q0,14.175,0,28.348a12.93,12.93,0,0,0,.093,1.569c.14,1.146.555,1.582,1.537,1.708.328.042.762-.141.958.129.207.285.061.782.062,1.186.007,2,0,4.005.007,6.008,0,.28,0,.473-.332.464-2.176-.052-4.354.076-6.53-.082a6.031,6.031,0,0,1-1.042-.174c-2.279-.584-3.36-2.069-3.718-5.086a25.6,25.6,0,0,1-.175-3.023Q4642.6,2572.329,4642.6,2564.747Z" transform="translate(-4568.745 -2504.611)" fill="#df0e0c"></path><path id="Trazado_175" data-name="Trazado 175" d="M4777.785,2593.67c1.306,0,2.613.012,3.918-.009.323-.005.416.086.416.475q-.014,23.913,0,47.826c0,.387-.085.487-.417.485q-4.12-.023-8.241,0c-.326,0-.418-.089-.418-.482q.015-23.913,0-47.826c0-.382.081-.485.412-.479,1.306.022,2.612.008,3.918.007.162,2.1.024,4.213.221,6.226C4777.657,2597.876,4777.722,2595.773,4777.785,2593.67Z" transform="translate(-4684.955 -2558.78)" fill="#df0e0c"></path><path id="Trazado_176" data-name="Trazado 176" d="M4689.981,2348.281c-.063,2.1-.127,4.206-.188,6.223-.2-2.012-.06-4.125-.221-6.225a18.389,18.389,0,0,0-1.178-7.031,10.3,10.3,0,0,0-7.832-6.689,22.735,22.735,0,0,0-4.554-.363c-1.083-.016-2.165,0-3.25,0v-.218q2.355-.07,4.712-.141a14.927,14.927,0,0,0,4.561-.738c4.068-1.436,6.39-4.684,7.235-9.444a48.491,48.491,0,0,0,.4-7.2c.028-1.019,0-2.04,0-3.06h.192c0,.766-.017,1.533,0,2.3a65.559,65.559,0,0,0,.308,7.213c.611,4.512,2.5,7.945,6.253,9.749a13.619,13.619,0,0,0,5.6,1.181c1.553.049,3.107.091,4.66.136v.223c-1.049,0-2.1-.014-3.146,0a20.414,20.414,0,0,0-5.338.558c-4.412,1.261-7,4.533-7.917,9.648A18.421,18.421,0,0,0,4689.981,2348.281Z" transform="translate(-4597.152 -2313.391)" fill="#df0e0c"></path></g></g><g id="MQ6EdO" transform="translate(-3355.865 2872.942)"><g id="Grupo_104" data-name="Grupo 104" transform="translate(0)"><path id="Trazado_177" data-name="Trazado 177" d="M-2703.013,2433.282c1.188.745,2.337,1.406,3.4,2.18a1.388,1.388,0,0,1,.258,1.127c-.726,4.395-1.521,8.778-2.241,13.174a41.786,41.786,0,0,0,1.031,18.176,13.959,13.959,0,0,0,9.581,9.989c3.978,1.321,7.838-.15,10.493-3.906a17.6,17.6,0,0,0,2.855-8.106,57.1,57.1,0,0,0-2.44-25.3,12.657,12.657,0,0,0-3.58-5.9,4.19,4.19,0,0,0-5.245-.625c-1.875,1-3.7,2.1-5.545,3.154a1.749,1.749,0,0,1-.893.282c.654-.676,1.292-1.368,1.966-2.024a50.9,50.9,0,0,1,4.4-4.17,7,7,0,0,1,9.654.833,22.534,22.534,0,0,1,5,9.087,69.531,69.531,0,0,1,3.252,17.3c.26,3.973.152,7.972.143,11.96a3.717,3.717,0,0,0,.771,2.466c1.73,2.27,3.359,4.617,5,6.954a2.751,2.751,0,0,1-1.847,4.073,3.059,3.059,0,0,1-2.906-.927c-1.527-1.666-3.078-3.309-4.627-4.954-.937-.995-.906-.941-1.938-.1a57.285,57.285,0,0,1-5.357,4.131c-3.362,2.126-7.065,2.2-10.78,1.1-6.991-2.084-11.164-6.9-13.025-13.83a49.614,49.614,0,0,1-.908-21.371c.823-4.836,2.17-9.582,3.287-14.368A2.326,2.326,0,0,1-2703.013,2433.282Z" transform="translate(2707.285 -2429.781)" fill="#ec2c38"></path><path id="Trazado_178" data-name="Trazado 178" d="M-2046.791,2491.176c.038-5.9,2.77-10.2,7.876-13.014a2.276,2.276,0,0,0,1.344-2.343c-.035-4.555-.031-9.112.08-13.665a37.042,37.042,0,0,1,.657-4.936,2.611,2.611,0,0,1,2.64-2.12,2.859,2.859,0,0,1,2.565,2.383c.115,1.759.159,3.522.238,5.283.276,6.178.486,12.361.87,18.533a63,63,0,0,0,1.062,6.691c.568,3.308,1.211,6.6,1.726,9.921.594,3.821-2.036,7.909-5.512,8.588-2.381.465-4.594-.293-6.789-1.139-2.5-.966-3.6-3.121-4.669-5.314A21.477,21.477,0,0,1-2046.791,2491.176Zm12.691,8.518-3.238-15.453c-.43.485-.662.706-.845.96-2.176,3.027-2.264,9.247-.142,12.334A4.306,4.306,0,0,0-2034.1,2499.694Z" transform="translate(2116.272 -2452.433)" fill="#ec2c38"></path><path id="Trazado_179" data-name="Trazado 179" d="M-1637.434,2718.739c-6.436-.178-12.264-5.124-12.843-11.072-.536-5.509,1.841-9.79,6.047-13.149a9.935,9.935,0,0,1,5.369-2.166c2.473-.234,4.558,2.409,4,4.865a8.908,8.908,0,0,1-5.478,6.275,30.781,30.781,0,0,1-3.283,1.165,1.106,1.106,0,0,0-.842,1.175c-.088,2.323,1.17,3.8,3.039,4.875a21.8,21.8,0,0,0,7.557,2.4c.876.141,1.083.5.987,1.314C-1633.195,2717.094-1634.971,2718.807-1637.434,2718.739Zm-5.721-18.948a3.253,3.253,0,0,0,2.272-1.58.946.946,0,0,0-.023-.812.728.728,0,0,0-.7-.182,12.481,12.481,0,0,0-2.258,1.641C-1644.292,2699.292-1643.925,2699.788-1643.155,2699.791Z" transform="translate(1761.536 -2664.718)" fill="#ec2c38"></path><path id="Trazado_180" data-name="Trazado 180" d="M-2260.856,2747.917a5.13,5.13,0,0,1-.643,1.005,13.162,13.162,0,0,1-2.533,2.153c-2.206,1.168-3.913-.177-5.456-1.515-2.387-2.069-3.249-4.934-3.478-7.93-.255-3.344-.236-6.71-.294-10.067a1.64,1.64,0,0,1,1.607-1.7,2.038,2.038,0,0,1,2.184,1.493c.688,3.217,1.344,6.442,2.01,9.664a9.812,9.812,0,0,0,.521,2.325c.32.651.908,1.492,1.5,1.61.909.179,1.331-.814,1.424-1.6.22-1.846.309-3.707.431-5.563.048-.729.023-1.464.063-2.194a2.225,2.225,0,0,1,2.133-2.086,2.04,2.04,0,0,1,1.971,2.083,15.27,15.27,0,0,0,1.984,7.33c.923,1.639,2.462,2.571,3.9,3.638a20.963,20.963,0,0,1,2.187,1.719,2.454,2.454,0,0,1,.505,3.019,2.569,2.569,0,0,1-2.871,1.1,12.556,12.556,0,0,1-5.631-3.247C-2259.808,2748.752-2260.3,2748.372-2260.856,2747.917Z" transform="translate(2318.918 -2698.287)" fill="#ec2c38"></path><path id="Trazado_181" data-name="Trazado 181" d="M-1805.229,2690.889c1.808-1.379,3.384-2.592,4.971-3.787a2.3,2.3,0,0,1,3.4.247,2.311,2.311,0,0,1-.354,3.365c-1.983,1.768-4.013,3.483-6.064,5.173a1.764,1.764,0,0,0-.777,1.8c.44,2.175.963,4.334,1.373,6.513a11.23,11.23,0,0,1,.316,3.4,2.563,2.563,0,0,1-2.5,2.2,2.782,2.782,0,0,1-3.022-1.424,33.547,33.547,0,0,1-3.657-11.529,42.665,42.665,0,0,1-.266-11.53,3.38,3.38,0,0,1,4.371-2.861,1.807,1.807,0,0,1,1.415,1.511c.222,1.845.4,3.7.6,5.544C-1805.385,2689.892-1805.319,2690.267-1805.229,2690.889Z" transform="translate(1906.251 -2655.734)" fill="#ec2c38"></path><path id="Trazado_182" data-name="Trazado 182" d="M-1418.409,2680.282a14.378,14.378,0,0,1,1.563.26c1.055.292,1.464,1.2.783,2.058a16.723,16.723,0,0,1-2.381,2.223c-1.976,1.667-1.952,3.163.246,4.492,4.665,2.819,5.593,6.379,4.482,11.348-1.174,5.255-4.469,8.947-9.113,11.5a2.3,2.3,0,0,1-2.832-.461,1.979,1.979,0,0,1-.05-2.716c1.518-2.261,3.113-4.471,4.566-6.771a8.654,8.654,0,0,0,1.337-5.233,3.316,3.316,0,0,0-1.017-2.188,40.678,40.678,0,0,1-3.527-4.045,6.278,6.278,0,0,1-.62-7.127c1.329-2.371,3.7-3.086,6.254-3.285.1-.008.2,0,.3,0Z" transform="translate(1560.983 -2653.931)" fill="#ec2c38"></path><path id="Trazado_183" data-name="Trazado 183" d="M-1612.212,2472.429l3.244-.235.292.524a14.485,14.485,0,0,1-1.629,1.234c-.234.135-.655-.005-.976-.083-1.115-.271-2.218-.6-3.341-.835-.265-.054-.592.191-.848.516l3.7.978q0,.195-.009.39a13.709,13.709,0,0,1-1.988.726,1.348,1.348,0,0,1-.988-.408,5.466,5.466,0,0,0-3.312-1.453c-.284-.031-.6.231-.9.358a5.327,5.327,0,0,0,.754.45,16.667,16.667,0,0,1,2.65,1.2c-1.272.25-2.447.688-3.667-.255a7.122,7.122,0,0,0-2.656-.915c-.25-.061-.591.251-.89.392l.105.244,2.77.717-.048.267c-.75.215-1.5.45-2.254.629a1.418,1.418,0,0,1-.749-.087,3.616,3.616,0,0,0-3.714,1.443c-.048.1-.006.243-.006.519a15.6,15.6,0,0,1,1.417-.913,3.154,3.154,0,0,1,1.531-.34c-.837.938-1.731,1.834-2.5,2.828a6.488,6.488,0,0,0-1.423,3.386c1.484-2.728,2.9-5.477,6.414-6.113l-3.168,2.642.284.378c.9-.66,1.793-1.318,2.685-1.982a.658.658,0,0,0,.187-.232c.729-1.481,2.04-1.576,3.6-1.44-.833,1.532-2.665,1.629-3.814,2.582l.218.4a5.652,5.652,0,0,0,1.486-.533c.933-.671,1.773-1.469,2.678-2.182a2.28,2.28,0,0,1,.924-.435c.744-.15,1.5-.229,2.388-.356a5.147,5.147,0,0,1-2.781,3.247c-.489.275-1.048.421-1.56.657a6.667,6.667,0,0,0-.763.479l.092.3a4.668,4.668,0,0,0,.953-.129,7.751,7.751,0,0,0,4.572-4.055,2.769,2.769,0,0,1,1.062-1.027c.729-.442,1.52-.779,2.413-1.224a6.851,6.851,0,0,1-3.5,5.246c-.395.238-.778.493-1.167.741l.22.413a13.645,13.645,0,0,0,1.552-.776,7.6,7.6,0,0,0,3.4-5.074,7.8,7.8,0,0,1,1.788-3.5,7.305,7.305,0,0,1-.957,5.152,4.162,4.162,0,0,0,1.684-3.411,20.68,20.68,0,0,1,1.014-6.486,22.878,22.878,0,0,0,.155-5.024c0-.2-.056-.392-.069-.589,0-.054.057-.112.2-.371a4.986,4.986,0,0,1,.315.973,66.649,66.649,0,0,1,.538,7.647c-.188,5.485-2.527,9.761-7.671,12.211a11.572,11.572,0,0,1-7.883.578,7.753,7.753,0,0,0-5,.17,7.589,7.589,0,0,0-1.916,1.48,5.112,5.112,0,0,0-.7,1.073l-.487-.266c0-.732-.054-1.469.009-2.2.4-4.613,3.365-8.589,7.721-9.572,1.65-.372,3.344-.554,4.984-.963a12.928,12.928,0,0,0,8.2-5.56,9.462,9.462,0,0,0,.74-3.109,6.949,6.949,0,0,0,.056-1.041l.365-.015c.066.987.176,1.974.18,2.961a11.036,11.036,0,0,1-.276,1.566,2.424,2.424,0,0,1-1.973,2.385,6.757,6.757,0,0,0-1.775,1.015l.206.374,2.311-.968c-.026,1.461-.448,1.771-1.728,1.677a7.528,7.528,0,0,0-2.222.323C-1611.7,2471.808-1611.889,2472.128-1612.212,2472.429Z" transform="translate(1741.784 -2457.723)" fill="#126230"></path><path id="Trazado_184" data-name="Trazado 184" d="M-1333.342,2507.787c-1.31.744-1.437-.8-2.368-.638.836.583,1.673,1.162,2.507,1.747.851.6,1.7,1.2,2.546,1.8l-.155.279a11.761,11.761,0,0,1-2.011-.947c-3.715-2.68-7.242-5.7-9.361-9.755a7.294,7.294,0,0,1,4.3-10.509,11.52,11.52,0,0,1,2.813-.235l.049.3-.492.189c2.283-.044,3.5,1.522,5,2.764.477-.493.9-.988,1.384-1.422,2.119-1.911,4.477-1.709,6.764-.5,1.884,1,2.591,2.76,2.624,4.909.043,2.859-1.5,4.985-3.076,7.066a38.591,38.591,0,0,1-4.007,4.386,7.215,7.215,0,0,1-2.323,1.268c-.606.246-.8-.175-.791-.758.015-1.343.036-2.69-.036-4.03-.066-1.219-1.071-1.944-2.758-2.085-.354,1.23-.07,2.819-1.769,3.514l.329-4.532-.328-.014v.8l-.332-.018a16.231,16.231,0,0,0,.19-2.167c-.033-.842-.233-1.678-.333-2.519-.084-.708.7-1.941,1.372-1.95a9.55,9.55,0,0,1,3.221.3,2.778,2.778,0,0,1,1.3,4.286,6.653,6.653,0,0,1-1.767,1.235c.979.358,2.113.857,2.285,2.138a22.451,22.451,0,0,1,.03,3.109c.95-.824,1.935-1.68,2.921-2.534a19.673,19.673,0,0,0,2.278-2,8.909,8.909,0,0,0,1.724-6.957c-.123-1.209-1.244-1.79-2.3-2.121a4.047,4.047,0,0,0-3.88.6c-.42.326-.838.656-1.275.957a2.289,2.289,0,0,1-3.011-.082,15.906,15.906,0,0,0-3.481-2.043c-1.849-.665-4.327,1-5.131,2.8-.841,1.883-.071,3.521.387,5.185a11.1,11.1,0,0,0,4.038,5.477C-1335.291,2505.9-1334.4,2506.809-1333.342,2507.787Zm.211-8.808c.783-.087,1.4-.167,2.015-.221.772-.068,1.01-.533.929-1.227a2.06,2.06,0,0,0-2.411-1.651.841.841,0,0,0-.509.574C-1333.166,2497.268-1333.131,2498.088-1333.131,2498.979Z" transform="translate(1486.596 -2483.248)" fill="#ec2c38"></path></g></g><g id="soOYnF" transform="translate(-3102.833 3141.225)"><g id="Grupo_106" data-name="Grupo 106"><path id="Trazado_185" data-name="Trazado 185" d="M6135.749,3537.434v-28.085c.506-.029.975-.079,1.443-.079,5.271-.005,10.543-.017,15.814,0a13.641,13.641,0,0,1,13.378,14.928c-.688,6.843-4.656,11.461-11.268,13.085a8.08,8.08,0,0,1-1.878.242q-8.273.028-16.547.008C6136.4,3537.531,6136.119,3537.474,6135.749,3537.434Zm3.655-3.481c4.3,0,8.449.123,12.583-.059a13.276,13.276,0,0,0,5.152-1.281,10.35,10.35,0,0,0,5.3-11.991c-1.264-4.926-4.968-7.752-10.16-7.752q-5.706,0-11.413,0c-.47,0-.941.044-1.466.071Z" transform="translate(-6042.206 -3508.4)"></path><path id="Trazado_186" data-name="Trazado 186" d="M5246.523,3525.979l1.719-2.514a97.4,97.4,0,0,0,9.726,3.54,19.755,19.755,0,0,0,10.562-.355,9.555,9.555,0,0,0,2.955-1.523,3.769,3.769,0,0,0-1.348-6.88,25.235,25.235,0,0,0-4.911-.66c-3.115-.167-6.238-.2-9.357-.3a4.136,4.136,0,0,1-.583-.062c-3.564-.619-6.17-2.885-6.737-5.855a7.573,7.573,0,0,1,4.17-7.888c5.618-3.088,11.507-2.956,17.42-.966a59,59,0,0,1,5.4,2.43c-.875,1.152-1.576,2.075-2.3,3.034a20.888,20.888,0,0,0-9.582-3.145,16.762,16.762,0,0,0-8.428,1.342,4.958,4.958,0,0,0-2.931,3.27c-.558,2.339,1,4.172,3.694,4.293,3.315.15,6.636.16,9.95.323a22.608,22.608,0,0,1,4.916.609c3.114.866,5.47,2.784,5.956,6.133.509,3.5-1.146,6.129-4.1,7.95a17.034,17.034,0,0,1-7.66,2.2,27.354,27.354,0,0,1-17.824-4.422C5247.036,3526.409,5246.861,3526.248,5246.523,3525.979Z" transform="translate(-5246.523 -3501.086)"></path><path id="Trazado_187" data-name="Trazado 187" d="M6553.119,3532.4c-5.292-.191-10.106-1.974-13.711-6.3a13.29,13.29,0,0,1,.708-18.083c6.92-7.366,20.133-7.2,26.884.331a13.406,13.406,0,0,1-1.19,19.444A18.8,18.8,0,0,1,6553.119,3532.4Zm1.143-26.182c-4.223-.048-7.477.929-10.281,3.2-5.264,4.252-5.442,11.228-.426,15.757,5.509,4.974,15.069,4.729,20.265-.52a9.842,9.842,0,0,0-.019-14.367A13.827,13.827,0,0,0,6554.262,3506.22Z" transform="translate(-6400.529 -3502.434)"></path><path id="Trazado_188" data-name="Trazado 188" d="M5844.846,3509.975h3.58v1.6q0,8.638,0,17.275c0,2.848,1.054,4.508,3.72,5.484a16.4,16.4,0,0,0,11.731-.024c2.685-1.014,3.808-2.747,3.815-5.611.014-5.661,0-11.322,0-16.983v-1.7h3.584c.02.422.059.887.059,1.353q.007,8.711,0,17.422c-.009,4.361-1.863,7.223-5.93,8.807a19.813,19.813,0,0,1-15.119-.091,8.312,8.312,0,0,1-5.55-8.04c-.083-6.294-.021-12.59-.017-18.885A4.214,4.214,0,0,1,5844.846,3509.975Z" transform="translate(-5781.775 -3509.04)"></path><path id="Trazado_189" data-name="Trazado 189" d="M7008.513,3510.43h24.22v3.49h-20.506v8.151H7024.4v3.719h-12.279v12.726h-3.608Z" transform="translate(-6823.16 -3509.447)"></path><path id="Trazado_190" data-name="Trazado 190" d="M5566.69,3513.782h-11.425v-3.488h26.506v3.463h-11.346v24.6h-3.735Z" transform="translate(-5522.787 -3509.326)"></path><path id="Trazado_191" data-name="Trazado 191" d="M6465.393,3510.052h3.458v28.067h-3.458Z" transform="translate(-6337.173 -3509.109)"></path></g></g><g id="Grupo_107" data-name="Grupo 107" transform="translate(-2786.707 2767.544)"><path id="Trazado_192" data-name="Trazado 192" d="M2421.632,3864.527c-.228-.071-.326.263-.455.436a28.613,28.613,0,0,1-4.714,5.113,27.2,27.2,0,0,1-8.691,4.757,28.971,28.971,0,0,1-7.9,1.422,27.311,27.311,0,0,1-6.51-.446,24.985,24.985,0,0,1-12.521-6.58,43.707,43.707,0,0,1-4.015-4.422c-.112-.139-.2-.316-.373-.387a.307.307,0,0,0-.088.259,30.968,30.968,0,0,0,.013,4.932,12.406,12.406,0,0,0,1.678,5.193,19.339,19.339,0,0,0,4.4,4.856,24.691,24.691,0,0,0,6.129,3.717,27.244,27.244,0,0,0,7.545,2.034,4.7,4.7,0,0,1,1.068.147h4.161a2.127,2.127,0,0,1,.292-.069,24.145,24.145,0,0,0,5.205-1.086,27.124,27.124,0,0,0,6.553-3.12,23.256,23.256,0,0,0,4.956-4.169,13.352,13.352,0,0,0,3.376-8.783c.019-1.068,0-2.138-.012-3.207C2421.72,3864.916,2421.826,3864.587,2421.632,3864.527Z" transform="translate(-2324.015 -3806.206)" fill="#01357e"></path><path id="Trazado_193" data-name="Trazado 193" d="M2309.708,3512.713a24.76,24.76,0,0,0,4.362-.259,13.448,13.448,0,0,0,4.541-1.365,7.092,7.092,0,0,0,3.623-4.174,14.18,14.18,0,0,0,.527-4.754c-.017-.707-.015-1.415-.031-2.122,0-.549,0-1.1,0-1.647a2.583,2.583,0,0,0-.2-1.057,4.391,4.391,0,0,0-3.668-2.737,13.012,13.012,0,0,0-1.556-.079c-.924-.011-1.849,0-2.774,0-.1,0-.2,0-.3.012a.2.2,0,0,0-.2.268c.012.071.029.141.043.212a31.123,31.123,0,0,1,.563,5.55c.022.983-.032,1.963-.081,2.944a1.5,1.5,0,0,1-.776,1.274,3.78,3.78,0,0,1-1.476.471,12.3,12.3,0,0,1-2.679.018,12.583,12.583,0,0,1-3.174-.648,8.2,8.2,0,0,1-5.117-4.85,13.869,13.869,0,0,1-.777-7.575,9.192,9.192,0,0,1,3.374-5.691,10.805,10.805,0,0,1,6.393-2.373,19.91,19.91,0,0,1,4.742.348,14.16,14.16,0,0,1,5.6,2.209,1.519,1.519,0,0,0,1.015.281c.378-.025.43-.059.432-.432.006-.953.024-1.907-.006-2.86a5.506,5.506,0,0,0-.551-2.256,7.544,7.544,0,0,0-3.78-3.54,13.581,13.581,0,0,0-5.128-1.137,21.039,21.039,0,0,0-4.491.245,21.97,21.97,0,0,0-7.562,2.521,17.2,17.2,0,0,0-7.03,7.336,18.513,18.513,0,0,0-1.884,7.858,20.036,20.036,0,0,0,.321,3.879,16.017,16.017,0,0,0,4.409,8.668,17.155,17.155,0,0,0,4.656,3.353A20.764,20.764,0,0,0,2309.708,3512.713Z" transform="translate(-2248.32 -3459.285)" fill="#01357e"></path><path id="Trazado_194" data-name="Trazado 194" d="M2140.8,3514.852c-.505-.012-1.011-.011-1.516,0a8.344,8.344,0,0,1-1.892-.185,3.191,3.191,0,0,1-2.82-3.144,20.434,20.434,0,0,1-.1-2.075q.008-7.5,0-14.992a7.866,7.866,0,0,0-.09-1.294,5.08,5.08,0,0,0-4.509-4.519,21.916,21.916,0,0,0-3.068-.135c-.743,0-.744,0-.744.74v11.618c.051,3.114-.072,7.056.053,11a14.6,14.6,0,0,0,.452,3.252,8.892,8.892,0,0,0,1.764,3.538,8.476,8.476,0,0,0,4.857,2.813,16.365,16.365,0,0,0,2.274.288,8.738,8.738,0,0,0,2.875-.253,3.446,3.446,0,0,0,2.565-2.613,13.7,13.7,0,0,0,.244-3.7C2141.155,3514.917,2141.085,3514.859,2140.8,3514.852Z" transform="translate(-2100.132 -3469.834)" fill="#01357e"></path><path id="Trazado_195" data-name="Trazado 195" d="M2124.013,3376.1a5.006,5.006,0,0,0,5.067-4.951,4.92,4.92,0,0,0-9.839-.024A5.027,5.027,0,0,0,2124.013,3376.1Z" transform="translate(-2094.026 -3360.45)" fill="#01357e"></path><path id="Trazado_196" data-name="Trazado 196" d="M2653.541,3489.478a8.75,8.75,0,0,0-.117-.989,17.864,17.864,0,0,0-1.44-4.931,15.678,15.678,0,0,0-4.7-6.019,15.4,15.4,0,0,0-9.159-3.1,18.259,18.259,0,0,0-4.387.424,14.915,14.915,0,0,0-7.051,3.517,15.878,15.878,0,0,0-4.191,6.285,22.1,22.1,0,0,0-1.273,10.18,17.769,17.769,0,0,0,2.457,7.426,14.468,14.468,0,0,0,6.24,5.769,16.162,16.162,0,0,0,7.865,1.537,20.077,20.077,0,0,0,4.231-.633,14.528,14.528,0,0,0,7.59-4.9,16.3,16.3,0,0,0,2.925-5.373,19.455,19.455,0,0,0,1.015-7.27C2653.547,3490.893,2653.559,3490.185,2653.541,3489.478Zm-9.929,9.156a6.051,6.051,0,0,1-4.418,3.3,7.951,7.951,0,0,1-5.864-1.085,6.275,6.275,0,0,1-2.053-2.309,11.981,11.981,0,0,1-1.307-4.417,20.507,20.507,0,0,1-.132-2.16,13.908,13.908,0,0,1,.847-5.572,7.258,7.258,0,0,1,2.393-3.231,5.589,5.589,0,0,1,2.706-1.079,8.437,8.437,0,0,1,1.169-.109,7.5,7.5,0,0,1,4.852,1.54,6.942,6.942,0,0,1,1.884,2.455,13.251,13.251,0,0,1,1.109,4.168c.078.647.111,1.3.124,1.944A12.8,12.8,0,0,1,2643.613,3498.634Z" transform="translate(-2543.094 -3457.244)" fill="#01357e"></path><path id="Trazado_197" data-name="Trazado 197" d="M1899.511,3442.562c.005-.3-.068-.341-.341-.221a11.685,11.685,0,0,1-4.178,1.045,14.9,14.9,0,0,1-3.2-.056,4.13,4.13,0,0,1-3.466-2.946,7.611,7.611,0,0,1-.363-2.431q.007-5.2,0-10.4c0-.91,0-1.82,0-2.73,0-.408.051-.45.444-.462.115,0,.231,0,.347,0,1.979,0,3.958,0,5.937-.005a5.4,5.4,0,0,0,2.235-.452,3.9,3.9,0,0,0,2.587-3.79c-.009-.852,0-1.7,0-2.557,0-.665,0-.667-.672-.667h-10.141c-.13,0-.26.006-.39,0-.277-.018-.323-.063-.344-.334-.01-.129-.005-.26-.005-.39q0-3.077,0-6.154c0-.13.006-.26,0-.39-.022-.272-.072-.337-.341-.341-.563-.009-1.128-.022-1.689.012a3.77,3.77,0,0,0-1.543.4,7.842,7.842,0,0,0-2.152,1.656,19.063,19.063,0,0,0-1.269,1.592,6.545,6.545,0,0,0-1.158,2.636,13.833,13.833,0,0,0-.257,2.712q0,5.049,0,10.1c0,3.366,0,6.731,0,10.1a17.523,17.523,0,0,0,.6,4.582,10.126,10.126,0,0,0,3.691,5.564,10.936,10.936,0,0,0,3.834,1.762,17.181,17.181,0,0,0,5.63.487,8.62,8.62,0,0,0,3.612-.978,4.782,4.782,0,0,0,2.583-3.958C1899.625,3444.812,1899.491,3443.687,1899.511,3442.562Z" transform="translate(-1879.554 -3398.933)" fill="#01357e"></path><path id="Trazado_198" data-name="Trazado 198" d="M2636.41,3324.243c0,.137-.042.287.069.408.182-.016.231-.17.317-.277a17.041,17.041,0,0,1,5.414-4.458,20.464,20.464,0,0,1,12.277-2.088,16.751,16.751,0,0,1,8.126,3.334,26.089,26.089,0,0,1,3.369,3.176,3.334,3.334,0,0,0,.267.283c.145.123.24.086.253-.1.021-.3,0-.608.031-.909a13.847,13.847,0,0,0-.117-3.282,6.371,6.371,0,0,0-1.262-3.095,13.354,13.354,0,0,0-3.037-2.88,18.624,18.624,0,0,0-8.948-3.23,19.191,19.191,0,0,0-5.349.23,18.53,18.53,0,0,0-6.033,2.331,13.915,13.915,0,0,0-3.558,2.867,7.941,7.941,0,0,0-1.875,5.615C2636.373,3322.857,2636.39,3323.55,2636.41,3324.243Z" transform="translate(-2556.738 -3311.033)" fill="#01357e"></path></g><g id="X49pGH" transform="translate(-3357.15 2775.493)"><g id="Grupo_108" data-name="Grupo 108"><path id="Trazado_199" data-name="Trazado 199" d="M-2727.988,3411.207a21.622,21.622,0,0,1,5.146-8.659,22.168,22.168,0,0,1,14.49-6.3,23.331,23.331,0,0,1,10.54,1.451,19.961,19.961,0,0,1,8.643,7.051,5.878,5.878,0,0,1-1.132,8.023,5.843,5.843,0,0,1-8.068-.516,21.618,21.618,0,0,0-2.844-2.886c-4.814-3.424-13.16-1.9-14.093,6.216a12.788,12.788,0,0,0,1.027,7.155,8.264,8.264,0,0,0,8.138,4.61,11.468,11.468,0,0,0,7.787-3.843,5.69,5.69,0,0,1,6.6-1.458,5.868,5.868,0,0,1,2.058,9.349,20.323,20.323,0,0,1-14.65,7.266c-5.828.34-11.227-.77-16.027-4.227a19.762,19.762,0,0,1-7.125-9.533c-.154-.424-.329-.84-.494-1.26a26.2,26.2,0,0,1-.74-6.984A26.138,26.138,0,0,1-2727.988,3411.207Z" transform="translate(2728.738 -3396.141)"></path><path id="Trazado_200" data-name="Trazado 200" d="M-1893.394,3414.7c0,13.306-7.684,22.013-18.33,23.461-5.743.78-11.208.072-16.223-2.919a19.753,19.753,0,0,1-10.128-16.625,20.125,20.125,0,0,1,7.821-17.864c9.132-7.269,23.382-6.292,31.335,2.128C-1895.127,3406.9-1893.422,3411.789-1893.394,3414.7Zm-13.4,2.53a15.089,15.089,0,0,0-.306-3.248,8.31,8.31,0,0,0-8.33-6.774c-3.9-.087-7.27,1.62-8.739,5.953a13.5,13.5,0,0,0-.416,6.685,8.634,8.634,0,0,0,6.891,7.319c4.077.769,7.631-.7,9.532-3.963A10.823,10.823,0,0,0-1906.8,3417.232Z" transform="translate(2021.291 -3395.877)"></path><path id="Trazado_201" data-name="Trazado 201" d="M-1426.569,3396.35c6.036-.153,11.641,2.557,15.909,8.056a5.981,5.981,0,0,1-3.934,9.838c-2.375.321-4.176-.812-5.647-2.649a9.227,9.227,0,0,0-9.838-3.493,7.555,7.555,0,0,0-5.663,4.88,12.182,12.182,0,0,0,.3,9.875,8.216,8.216,0,0,0,8.224,4.64,11.046,11.046,0,0,0,7.594-3.74,5.72,5.72,0,0,1,5.278-1.96,5.693,5.693,0,0,1,4.65,3.823,5.564,5.564,0,0,1-1.128,5.9,19.592,19.592,0,0,1-11.728,6.919c-7.393,1.239-14.287.131-20.176-4.817a19.844,19.844,0,0,1-7.137-14.939c-.309-7.017,2.02-12.955,7.54-17.444C-1438.026,3397.746-1433,3396.324-1426.569,3396.35Z" transform="translate(1584.419 -3396.295)"></path><path id="Trazado_202" data-name="Trazado 202" d="M-998.909,3396.46c5.642-.023,10.7,1.5,14.786,5.6a4.981,4.981,0,0,1,1.332,5.491,4.9,4.9,0,0,1-4.4,3.385,4.815,4.815,0,0,1-3.662-1.174,13.54,13.54,0,0,0-6.79-3.116,9.416,9.416,0,0,0-3.584.216,2.07,2.07,0,0,0-1.8,1.912,2.1,2.1,0,0,0,1.476,2.071,30.531,30.531,0,0,0,5.445,1.465,32.565,32.565,0,0,1,7.609,2.466c5.119,2.591,7.376,6.77,6.7,12.486-.684,5.8-3.7,9.3-9.318,10.872a26.87,26.87,0,0,1-7.378.9,26.568,26.568,0,0,1-11.106-2.2,20.035,20.035,0,0,1-5.354-3.533,5.2,5.2,0,0,1-.561-7.147,5.066,5.066,0,0,1,7.171-.852,15.007,15.007,0,0,0,12.2,3.114,3.953,3.953,0,0,0,.551-.121c.917-.3,1.617-.781,1.667-1.877a1.893,1.893,0,0,0-1.445-1.923,31.578,31.578,0,0,0-4.464-1.215,36.857,36.857,0,0,1-8.244-2.7c-8.277-4.2-7.9-14.7-3.882-19.325,2.406-2.77,5.608-3.95,9.108-4.535A22.069,22.069,0,0,1-998.909,3396.46Z" transform="translate(1196.782 -3396.396)"></path><path id="Trazado_203" data-name="Trazado 203" d="M-2279.948,3422.948c0-4.595.11-9.194-.033-13.784a6.853,6.853,0,0,1,5.505-6.985,6.644,6.644,0,0,1,7.553,4.8c.267.79.522.741,1.06.275a17.43,17.43,0,0,1,10.1-4.306c4.379-.4,8.324,2.118,9.086,6.02a6.678,6.678,0,0,1-7.507,7.7,11.131,11.131,0,0,0-3.783-.471c-4.322.761-7.2,3.824-8.222,8.8a26.108,26.108,0,0,0-.474,4.937c-.031,2.486.017,4.972-.019,7.458a6.675,6.675,0,0,1-6.622,6.517,6.634,6.634,0,0,1-6.628-6.491c-.042-4.821-.01-9.642-.01-14.463Z" transform="translate(2327.191 -3401.43)"></path><path id="Trazado_204" data-name="Trazado 204" d="M-635.728,3410.088a6.093,6.093,0,0,0,.958-2.109c.283-.87.931-.869,1.63-.79s.616.664.626,1.127c.023,1.09.015,2.181,0,3.271-.008.468-.079.918-.731.909-.67-.01-.664-.479-.67-.941a8.1,8.1,0,0,0-.15-1.816c-.261.687-.525,1.372-.783,2.06-.137.367-.3.685-.768.7-.529.019-.71-.326-.858-.736a9.022,9.022,0,0,0-.924-2c0,.642,0,1.285,0,1.928,0,.471-.133.8-.7.8s-.726-.326-.732-.791q-.021-1.8-.008-3.609c0-.422.05-.883.615-.9s1.245-.236,1.557.531C-636.371,3408.454-636.086,3409.185-635.728,3410.088Z" transform="translate(858.69 -3405.966)"></path><path id="Trazado_205" data-name="Trazado 205" d="M-679.843,3408.11a.569.569,0,0,1-.631.634c-.807,0-.891.493-.874,1.127.021.753,0,1.507-.009,2.26,0,.436-.171.714-.661.726-.506.013-.79-.2-.8-.715-.012-.64-.023-1.281-.016-1.921.007-.723.11-1.476-.967-1.537-.3-.017-.387-.315-.375-.606a.471.471,0,0,1,.481-.517c1.129-.012,2.259-.013,3.388.007C-680,3407.574-679.859,3407.81-679.843,3408.11Z" transform="translate(899.254 -3406.325)"></path></g></g><g id="HKvriC" transform="translate(-3357.15 3128.059)"><g id="Grupo_109" data-name="Grupo 109"><path id="Trazado_206" data-name="Trazado 206" d="M4074.784,3418.05l.741-.665c2.522,1.042,2.725,3.692,1.909,6.131-.89,2.658-2.241,3.821-5.954,3.508-2.073-.175-3.464-1.694-3.75-4.1-1.517,1.192-3.04,2.462-4.64,3.625a3.3,3.3,0,0,1-4.808-1.335c-.508-1.154-.973-2.325-1.335-3.2-1.215,1.077-2.5,2.275-3.856,3.394a6.114,6.114,0,0,1-2.148,1.338c-2.8.729-3.659.306-5.565-3.28a2.994,2.994,0,0,1-.264.911c-1.362,1.949-3.953,3.456-6.1,2.384a5.183,5.183,0,0,0-5-.034,4.873,4.873,0,0,1-5.384-.8c-.622-.568-1.187-1.2-1.8-1.824-4.742,4.823-8.823,3.58-12.31-1.79-2.213,3.83-5.156,5.373-8.729,4.5a9.409,9.409,0,0,1-2.953-1.48c-.746-.512-1.159-.581-1.876.1a6.653,6.653,0,0,1-7.262.955,10.718,10.718,0,0,1-3.484-2.425.8.8,0,0,0-.456-.188c-1.184.9-2.209,1.759-3.315,2.5a3.894,3.894,0,0,1-5-.14c-1.052-.848-1.989-.263-2.857.253-1.923,1.142-5.751,1.033-7.207-1.457a8.934,8.934,0,0,1-1.3-3.383c-.34-3.144.662-6.027,2.067-8.829a29.242,29.242,0,0,1,8.125-9.6c.636-.513,1.206-1.108,1.8-1.663l1.87.7a2.863,2.863,0,0,1-.45.931,24.812,24.812,0,0,0-5.5,7.3,35.381,35.381,0,0,0-2.755,6.564,6.493,6.493,0,0,0,.427,5.322,2.517,2.517,0,0,0,2.5,1.486c1.287-.129,1.818-1.128,2.11-2.121a12.722,12.722,0,0,0,.4-3.344q.074-4.579,0-9.162a1.71,1.71,0,0,1,.885-1.834c1.1-.557,2.178-1.149,3.483-1.84v1.543c0,4.854-.025,9.707.03,14.56.008.65.247,1.64.691,1.872.917.477,1.4-.456,1.712-1.166a33.615,33.615,0,0,0,1.988-5.014c1-3.892,1.786-7.836,2.662-11.759a19.829,19.829,0,0,1,.594-2.407,1.336,1.336,0,0,1,.852-.676c1.217-.292,2.455-.493,3.912-.771-1.14,4.863-.111,9.026,3.9,12.355a3.49,3.49,0,0,0,.307-.661c.56-3.03,1.167-6.052,1.632-9.1.186-1.219.651-1.874,1.909-2.01,1.016-.11,2.017-.371,3.214-.6-1.711,5.234.5,9.2,4.308,12.891.186-1.725.237-3.22.524-4.669a10.907,10.907,0,0,1,4.769-7.443c3.308-2.049,6.344-.8,8.794,2.3a9.144,9.144,0,0,1,1.312,2.345,1.347,1.347,0,0,1-.34,1.237c-1.2.816-2.484,1.5-4.071,2.43,0-1.685.036-2.995-.012-4.3-.035-.96-.116-1.878-1.279-2.331a1.967,1.967,0,0,0-2.479.565,5.3,5.3,0,0,0-.675,2.209q-.086,7.405-.009,14.811a2.859,2.859,0,0,0,1.511,2.885c1.366.587,2.792-.071,3.869-1.17,1.731-1.765,1.569-4.075,2.083-6.2a18.49,18.49,0,0,1,4.181-8.285c2.374-2.605,4.86-5.108,7.2-7.555l2.153.823c-.1.25-.143.617-.346.79a26.194,26.194,0,0,0-6.01,7.968c-1.555,2.955-2.967,6.04-2.588,9.577a3.428,3.428,0,0,0,1.971,3.037c1.751.772,2.6-.114,3.341-2.054a9.571,9.571,0,0,0,.356-3.218q.063-4.58,0-9.162c-.01-.807.077-1.428.9-1.823,1.086-.522,2.129-1.133,3.4-1.82.039.727.086,1.2.086,1.679.007,4.9-.016,9.791.036,14.686a5.6,5.6,0,0,0,.624,1.719,7.941,7.941,0,0,0,1.7-1.208c1.733-2.1.914-4.476.6-6.786a12.053,12.053,0,0,1-.271-1.467c-.045-6.356-.17-12.713-.038-19.065a44.242,44.242,0,0,1,1.108-7.4,8.026,8.026,0,0,1,1.152-2.606,2.274,2.274,0,0,1,4.115.185,19.725,19.725,0,0,1,1.3,3.956c1.507,6.6,1.394,13.289.711,19.95a23.126,23.126,0,0,1-2.013,8.27c-.875,1.733-.42,3.7.344,5.442.147.335,1.292.665,1.5.477,1.99-1.833,4.252-3.433,3.929-6.772a131.782,131.782,0,0,1-.727-13.872,117.233,117.233,0,0,1,1.033-13.344,15.9,15.9,0,0,1,1.9-4.75c.456-.924,2.62-1.013,3.224-.141a9,9,0,0,1,1.314,2.729c2.171,8.142,1.765,16.4.839,24.644a20.823,20.823,0,0,1-1.782,5.437c-.514,1.239-.282,4.9.714,5.8a1.418,1.418,0,0,0,1.334.176,25.93,25.93,0,0,0,3.192-3.33,3.767,3.767,0,0,0,.526-2.132q.075-5.648.005-11.3c-.011-.993.385-1.322,1.312-1.369,3.22-.164,3.219-.18,3.219,2.973,0,4.268.016,8.536-.014,12.8-.006.875.14,1.711,1.045,1.874a2.527,2.527,0,0,0,2.039-.408c.479-.578,1.317-1.386.474-2.415A12.651,12.651,0,0,1,4074.784,3418.05Zm-81.341-4.929a4.74,4.74,0,0,0-.342.575c-.745,2.228-1.494,4.454-2.211,6.691a1.306,1.306,0,0,0,.013.947,6.18,6.18,0,0,0,6.05,2.56c1.617-.325,2.771-2.294,1.877-3.624C3997.2,3417.847,3995.324,3415.589,3993.443,3413.121Zm10.856.088a6.787,6.787,0,0,1-.482,2.133,4.235,4.235,0,0,0-.435,3.208c.117,1.013-.033,2.053.018,3.078a2.318,2.318,0,0,0,.417,1.229c1.007,1.322,2.492,1.117,3.885,1.052a2.287,2.287,0,0,0,2.191-1.564,3.121,3.121,0,0,0-.427-3.081c-1.066-1.385-2.238-2.69-3.375-4.022C4005.55,3414.605,4004.988,3413.987,4004.3,3413.209Zm46.406-23.534c-1.52,2.864-1.466,20.827.013,23.114A89.321,89.321,0,0,0,4050.706,3389.675Zm12.008-.247c-1.594.961-1.7,21.908-.205,23.572A168.191,168.191,0,0,0,4062.714,3389.428Z" transform="translate(-3889.259 -3382.973)" fill="#12612f"></path><path id="Trazado_207" data-name="Trazado 207" d="M3442.8,3563.427a7.648,7.648,0,0,0-.658,1.309c-.573,1.986-1.047,4-1.649,5.978-.587,1.927-1.238,3.838-1.978,5.71a1.521,1.521,0,0,1-1.251.685,1.8,1.8,0,0,1-1.132-.89,5.647,5.647,0,0,1-.278-1.456,4.993,4.993,0,0,0-.352-.83,31.465,31.465,0,0,1-3.015,2.868,3.339,3.339,0,0,1-5.028-2.558c-.085-6.022-.047-12.047,0-18.07a1.27,1.27,0,0,1,.836-.9c3.55-.468,3.642-.368,3.643,3.157,0,4.309.018,8.617-.01,12.926-.005.847.121,1.578,1.089,1.624.89.042,1.844-.167,2.039-1.231a40.985,40.985,0,0,0,.709-5.192c.2-3.884.336-7.774.368-11.663a2.64,2.64,0,0,1,1.725-2.548c.185-.094.39-.151.568-.255,1.145-.666,1.656-.447,1.979.908.232.975.381,1.97.623,2.943a10.46,10.46,0,0,0,.681,1.494c.9-1.4,1.618-2.524,2.349-3.638a5.935,5.935,0,0,1,1.089-1.493c.479-.374,1.349-.854,1.7-.659a3.4,3.4,0,0,1,1.469,1.819,24.576,24.576,0,0,1,.478,3.467c.419,2.754.864,5.5,1.309,8.254.258,1.594.488,3.2.839,4.769a2.434,2.434,0,0,0,.9,1.532c.713.374,1.342-.089,1.668-.854.057-.134.221-.222-.005-.353-.156-2.02-.347-4.037-.46-6.059a15.706,15.706,0,0,1,1.362-7.285c1.129-2.557,2.812-4.771,5.686-5.236a5.92,5.92,0,0,1,3.874,1.266c2.044,1.479,1.939,1.623,3.976.125.128-.094.266-.175.456-.3l1.4,1.74c-.821.689-1.656,1.322-2.4,2.051a1.4,1.4,0,0,0-.344,1.1,29.682,29.682,0,0,1,1.02,4.547,31.72,31.72,0,0,1-.4,7.226,10.169,10.169,0,0,1-4.69,7.2,4.285,4.285,0,0,1-4.428.068,15.882,15.882,0,0,1-3.039-2.765c-.617-.639-1.615-.465-2.233.487-.362.557-.756,1.092-1.13,1.641-1.207,1.769-3.427,1.424-4.349-.728-1.023-2.387-1.829-4.867-2.761-7.294-.6-1.563-1.256-3.1-1.887-4.655Zm21.419-5.175c-1.562-.078-3.131-.186-4.7-.2-.219,0-.6.426-.639.695-.754,4.9-1.164,9.8,1.031,14.478a2.585,2.585,0,0,0,1.558,1.35c.505.092,1.271-.445,1.692-.911a4.529,4.529,0,0,0,1-1.947C3465.2,3567.21,3465.6,3562.687,3464.222,3558.251Zm-4.155-3,.184.575h2.842l.2-.407c-.517-.364-1.022-.992-1.556-1.017S3460.626,3554.948,3460.067,3555.256Z" transform="translate(-3403.729 -3533.122)" fill="#12612f"></path><path id="Trazado_208" data-name="Trazado 208" d="M3215.541,3415.987c-.561,0-.932,0-1.3,0-1.473-.012-1.858-.5-1.414-1.917a1.06,1.06,0,0,1,.736-.635c2.962-.045,5.925-.028,9.2-.028-.287,2.553-.414,5-.879,7.391a24.394,24.394,0,0,1-1.725,5.018c-1.229,2.812-3.169,4.792-6.438,5.179-2.73.324-4.641-.96-6.1-2.993-3.118-4.357-4.356-9.374-4.818-14.626a36.282,36.282,0,0,1-.457-6.46c.382-4.042,1.082-8.06,1.784-12.064a19.769,19.769,0,0,1,3.59-7.876,6.33,6.33,0,0,1,8.962-1.646c2.448,1.563,3.677,3.9,4.631,6.518a11.9,11.9,0,0,1,.787,5.734c-.479,3.531-1.5,6.859-4,9.55-.905.975-1.809,1.958-2.8,2.84a2.575,2.575,0,0,1-1.49.521c-.439.024-1.122-.131-1.282-.43a1.693,1.693,0,0,1,.2-1.39,18.926,18.926,0,0,0,3.091-9.8c.01-2.375-.115-4.755-.289-7.125a4.608,4.608,0,0,0-1.783-3.089c-1.145-1.028-2.037-.337-2.584.394a5.756,5.756,0,0,0-1.247,3.109q-.135,15.434,0,30.869a6.178,6.178,0,0,0,1.232,3.123c.829,1.218,2.076,1.2,3.074.009a9.2,9.2,0,0,0,1.267-2.483,3.51,3.51,0,0,0,.05-1.244C3215.542,3420.348,3215.541,3418.264,3215.541,3415.987Z" transform="translate(-3202.301 -3383.294)" fill="#12612f"></path><path id="Trazado_209" data-name="Trazado 209" d="M3846.536,3407.375c0-7.322.017-14.645-.018-21.966-.005-.992.209-1.434,1.305-1.4,3.634.115,7.271.092,10.9.234,1.908.074,3.273,1.412,4.351,2.74a13.522,13.522,0,0,1,3.227,11.078c-.558,3.279-1.538,6.428-3.929,8.925-.92.961-1.812,1.955-2.792,2.851a2.42,2.42,0,0,1-1.375.5c-.459.035-1.214-.041-1.344-.307a1.864,1.864,0,0,1,.163-1.487,21.017,21.017,0,0,0,3.06-9.2,15.064,15.064,0,0,0,.385-2.071,38.523,38.523,0,0,0-.851-5.772c-.4-1.57-3.385-2.962-4.938-2.525a.9.9,0,0,0-.528.552,4.635,4.635,0,0,0-.034,1.124q0,19.267,0,38.535c0,1.689,0,1.69-1.7,1.691-1.548,0-3.1-.048-4.644.019-1.009.043-1.264-.341-1.26-1.311C3846.551,3422.187,3846.534,3414.781,3846.536,3407.375Z" transform="translate(-3778.746 -3383.158)" fill="#12612f"></path><path id="Trazado_210" data-name="Trazado 210" d="M4886.487,3525.714a12.814,12.814,0,0,1-2.845-1.121c-1.483-1-.953-3.255.58-3.974a5.958,5.958,0,0,1,5.495.047,2.265,2.265,0,0,1,1.377,2.3,2.359,2.359,0,0,1-1.73,2.191A17.853,17.853,0,0,1,4886.487,3525.714Z" transform="translate(-4705.986 -3504.818)" fill="#12612f"></path><path id="Trazado_211" data-name="Trazado 211" d="M3414.656,3525.924c-1.674-.164-3.163-.063-4.011-1.518a2.376,2.376,0,0,1,1.179-3.479,5.439,5.439,0,0,1,6.066.7c1.526,1.347.454,3.271-1.07,3.861A11.156,11.156,0,0,1,3414.656,3525.924Z" transform="translate(-3388.409 -3505.143)" fill="#12612f"></path><path id="Trazado_212" data-name="Trazado 212" d="M4218.957,3376.656c1.881-.581.913,2.081,2.315,2.03.792-.555.666-2.191,2.318-2.071,0,1.266.024,2.433-.021,3.6-.008.2-.3.395-.463.591-.154-.2-.415-.383-.44-.6a17.574,17.574,0,0,1-.021-1.89l-1.572,2.1-1.5-2.292c-.091,1.067-.159,1.858-.227,2.649l-.388-.016Z" transform="translate(-4112.009 -3376.505)" fill="#12612f"></path><path id="Trazado_213" data-name="Trazado 213" d="M4437.646,3376.033c.15.191.421.376.431.574.05,1.041.054,2.086.026,3.128-.005.19-.217.513-.359.528a1.037,1.037,0,0,1-.717-.26c-.808-.731-1.583-1.5-2.56-2.435-.082,1.079-.143,1.891-.2,2.7l-.379-.011v-4.132c1.675-.252,1.769,1.988,3.3,2.264.054-.777.1-1.494.154-2.21Z" transform="translate(-4304.328 -3376.022)" fill="#12612f"></path><path id="Trazado_214" data-name="Trazado 214" d="M4491.68,3377.8l1.933.567-.038.385a5.439,5.439,0,0,0-1.236.025c-.243.058-.427.362-.637.555.2.153.394.414.611.438.577.062,1.171-.025,1.747.045.244.03.458.3.686.467-.211.138-.418.387-.634.4-1.076.041-2.153.019-3.338.019v-4.274c1.131,0,2.248-.022,3.363.02.2.008.393.281.589.431-.221.123-.437.338-.665.352-.736.046-1.478.017-2.218.017Z" transform="translate(-4355.233 -3376.363)" fill="#12612f"></path><path id="Trazado_215" data-name="Trazado 215" d="M4540.717,3380.6c.933-.284,2.076.779,2.832-.7a9.823,9.823,0,0,1-2-.28c-.383-.139-.94-.63-.905-.9.062-.47.449-1.188.818-1.269a7.535,7.535,0,0,1,2.44.064c.166.02.29.4.549.792l-2.719-.235-.069.376c.618.23,1.241.45,1.854.694,1.065.424,1.232,1.105.5,1.982A2.272,2.272,0,0,1,4540.717,3380.6Z" transform="translate(-4399.855 -3377.223)" fill="#12612f"></path><path id="Trazado_216" data-name="Trazado 216" d="M4380.808,3380.4v-4.07c1.808-.449,3.307-.277,3.777.62-.544,0-.978-.008-1.412,0s-.876.04-1.315.061l-.125.439,2.039.8a7.04,7.04,0,0,0-1.054.211,10.656,10.656,0,0,0-.965.5,5.134,5.134,0,0,0,1.037.524c.353.091.756-.034,1.116.041.223.046.4.288.6.442-.211.142-.417.4-.635.406C4382.889,3380.422,4381.9,3380.4,4380.808,3380.4Z" transform="translate(-4256.835 -3376.072)" fill="#12612f"></path><path id="Trazado_217" data-name="Trazado 217" d="M4272.171,3382.742c.728-1.578,1.274-2.853,1.929-4.069a1.273,1.273,0,0,1,1.083.047,16.422,16.422,0,0,1,1.5,3.912c-.714-.374-1.423-1.025-2.146-1.042C4273.859,3381.575,4273.162,3382.228,4272.171,3382.742Z" transform="translate(-4159.626 -3378.296)" fill="#12612f"></path><path id="Trazado_218" data-name="Trazado 218" d="M4118.636,3383.111c-.583-.163-1.045-.149-1.217-.366-.887-1.119-1.538-1.119-2.484.051a.712.712,0,0,1-.627.181.624.624,0,0,1-.187-.578,30.055,30.055,0,0,1,1.656-3.119,1.337,1.337,0,0,1,1.1-.146C4117.479,3380.327,4117.977,3381.573,4118.636,3383.111Z" transform="translate(-4018.186 -3378.74)" fill="#12612f"></path><path id="Trazado_219" data-name="Trazado 219" d="M4328.639,3379.058c-1.273,1.486-2.356,1.618-3.554.651a2.084,2.084,0,0,1-.5-2.774c.639-1.117,2.247-1.316,4.115-.51l.019.371a9.912,9.912,0,0,0-1.382.012,3.71,3.71,0,0,0-1.8.46,1.61,1.61,0,0,0-.054,1.51,5.487,5.487,0,0,0,2.11.517A3.2,3.2,0,0,0,4328.639,3379.058Z" transform="translate(-4206.24 -3375.933)" fill="#12612f"></path><path id="Trazado_220" data-name="Trazado 220" d="M4168.075,3379.928l3.127.319-.036.626c-1.274,0-2.551.008-3.825-.017-.089,0-.248-.244-.25-.375-.014-1.122-.017-2.246.03-3.367.006-.143.319-.272.491-.408.154.2.43.394.443.6C4168.1,3378.171,4168.075,3379.038,4168.075,3379.928Z" transform="translate(-4065.591 -3376.625)" fill="#12612f"></path></g></g><g id="_9aelVb" data-name="9aelVb" transform="translate(-3066.614 2782.577)"><g id="Grupo_110" data-name="Grupo 110" transform="translate(0)"><path id="Trazado_221" data-name="Trazado 221" d="M690.081,3465.387c.1-.107.132-.124.136-.147.185-1.112.185-1.115,1.322-1.115,7.046,0,14.091.009,21.136-.016a1.785,1.785,0,0,1,1.666.806c.687.992,1.454,1.929,2.174,2.9.523.7.477.786-.413.876a2.415,2.415,0,0,0-.254.042.337.337,0,0,0-.084.052c-.1.339.189.514.351.726q4.311,5.608,8.635,11.206,1.475,1.913,2.943,3.831c.477.628.474.639-.007,1.253q-2.394,3.055-4.8,6.1c-.053.068-.1.138-.163.2-.387.423-.5.432-.87-.031-.772-.966-1.525-1.947-2.286-2.921-.714-.914-.713-.913-1.434.042-2.1,2.777-4.212,5.54-6.277,8.34a1.914,1.914,0,0,1-1.737.848c-6.183-.024-12.366-.013-18.548-.014-.144,0-.288,0-.431,0-.779-.031-.814-.066-.872-.838a.661.661,0,0,0-.192-.571,17.738,17.738,0,0,1-11.417,2.073,17.971,17.971,0,0,1-6.739-2.518,18.007,18.007,0,0,1,9.8-33.294A17.581,17.581,0,0,1,690.081,3465.387Zm-16.633,15.8a8.04,8.04,0,1,0,8.1-8.014A7.953,7.953,0,0,0,673.448,3481.191Zm27.328-16.543v29.369c.236-.275.391-.437.527-.614q4.688-6.082,9.371-12.166c.351-.456.683-.928,1.05-1.37a.648.648,0,0,0-.022-.985,3.98,3.98,0,0,1-.261-.344q-4.511-5.891-9.024-11.781C701.913,3466.1,701.4,3465.448,700.776,3464.648Z" transform="translate(-551.762 -3463.217)" fill="#cb0a2d"></path><path id="Trazado_222" data-name="Trazado 222" d="M166.949,3490.438c0-3.049.05-6.1-.019-9.145a12.349,12.349,0,0,1,.837-4.976,15.086,15.086,0,0,1,10-9.058,14.3,14.3,0,0,1,13.308,2.323c.093.068.179.144.274.209.35.24.556.761,1,.754.4-.007.632-.458.942-.708a14.189,14.189,0,0,1,10.362-3.226,15.484,15.484,0,0,1,9.62,4.383,13.831,13.831,0,0,1,4.252,7.816,15.063,15.063,0,0,1,.23,2.573q0,9.318,0,18.636c0,.115,0,.23,0,.345-.031.847-.125.965-.946.968q-4.314.015-8.628,0c-.8,0-.9-.119-.937-.887-.013-.259-.005-.518-.005-.777q0-8.756,0-17.514c0-.431-.016-.863,0-1.294a4.724,4.724,0,0,0-4.484-4.783,4.829,4.829,0,0,0-5.065,3.793,6.787,6.787,0,0,0-.1,1.545q-.01,9.231-.015,18.463c0,1.458,0,1.458-1.478,1.459h-7.679c-.23,0-.461.009-.69-.011-.522-.048-.632-.157-.682-.7-.026-.286-.015-.575-.015-.863q0-9.275.005-18.55a5.324,5.324,0,0,0-.68-2.809,4.826,4.826,0,0,0-8.971,2.209c-.016.373-.012.747-.012,1.121q-.005,9.1-.01,18.2c0,1.384-.011,1.391-1.392,1.393q-3.839,0-7.679,0c-.2,0-.4.007-.6-.008-.61-.043-.7-.125-.734-.713-.015-.229-.006-.46-.007-.69q0-4.745,0-9.49Z" transform="translate(-107.491 -3466.188)" fill="#cb0a2d"></path><path id="Trazado_223" data-name="Trazado 223" d="M1179.394,3524.773c1.927,0,3.854.016,5.781-.008a1.731,1.731,0,0,1,1.54.75c1.172,1.565,2.382,3.1,3.578,4.649.141.182.282.364.434.535a.353.353,0,0,0,.59.015c.116-.127.219-.266.325-.4,1.234-1.59,2.485-3.167,3.691-4.779a1.727,1.727,0,0,1,1.526-.766c3.681.017,7.362.008,11.044.009a3.182,3.182,0,0,1,.515.033c.3.049.4.215.227.485-.107.169-.231.33-.353.489l-10.068,13.153c-.052.068-.107.135-.159.2-.453.611-.463.618.023,1.251q4.755,6.193,9.519,12.378,5.34,6.94,10.677,13.882c.161.21.506.417.323.724-.162.271-.523.176-.8.176-3.739,0-7.478-.008-11.216.014a1.644,1.644,0,0,1-1.443-.741q-4.74-6.2-9.519-12.378c-1.316-1.708-2.627-3.421-3.951-5.124-.64-.824-.658-.821-1.257-.007-1.773,2.408-3.568,4.8-5.293,7.243a2.159,2.159,0,0,1-2,1.021c-3.681-.042-7.362-.014-11.043-.023-.328,0-.774.147-.939-.223-.138-.309.225-.557.41-.8q5.857-7.685,11.72-15.365c.81-1.064.844-.809-.021-1.942q-5.129-6.721-10.267-13.435c-.185-.242-.556-.493-.406-.8.171-.345.618-.214.951-.216C1175.482,3524.768,1177.438,3524.773,1179.394,3524.773Z" transform="translate(-1006.04 -3518.281)" fill="#cb0a2d"></path><path id="Trazado_224" data-name="Trazado 224" d="M-382.619,3470.786q6.942,0,13.885,0c1.416,0,1.417,0,1.418,1.446q0,3.406,0,6.813c0,.258-.006.517-.024.775a.472.472,0,0,1-.495.488c-.258.011-.517.015-.776.016H-376.2c-.23,0-.46.007-.69.007-.4,0-.569.214-.571.594,0,.259-.006.518-.006.776q0,10.521,0,21.042c0,1.343,0,1.346-1.322,1.347q-3.924,0-7.848,0c-.23,0-.46,0-.689-.016a.544.544,0,0,1-.577-.605c0-.288-.01-.575-.01-.862q0-10.522,0-21.043c0-1.239,0-1.24-1.219-1.24h-7.5c-.23,0-.461.008-.69-.005-.592-.033-.672-.115-.726-.722-.01-.114-.008-.229-.008-.344q0-3.665,0-7.331c0-.172.009-.345.017-.517a.56.56,0,0,1,.594-.6c.287-.013.574-.021.862-.021Z" transform="translate(398.063 -3469.99)" fill="#cb0a2d"></path><path id="Trazado_225" data-name="Trazado 225" d="M-119.3,3488.952c0,5.062.018,10.124-.007,15.186a14.508,14.508,0,0,1-2.4,7.986,15.955,15.955,0,0,1-8.719,6.418,23.081,23.081,0,0,1-5.929,1.026c-.742.045-.92-.1-.923-.878q-.02-4.357,0-8.715c0-.79.116-.887.908-.917a14.739,14.739,0,0,0,2.488-.215,8.392,8.392,0,0,0,1.642-.515,3.852,3.852,0,0,0,2.316-3.012,11.924,11.924,0,0,0,.186-2.231q-.011-14.841,0-29.682c0-1.534-.118-1.49,1.519-1.489q3.8,0,7.593,0c.259,0,.518,0,.776.015a.507.507,0,0,1,.542.542q.016.431.015.863,0,7.808,0,15.617Z" transform="translate(164.718 -3470.998)" fill="#cb0a2d"></path><path id="Trazado_226" data-name="Trazado 226" d="M51.681,3619.111a5.6,5.6,0,0,1,5.694,5.684,5.736,5.736,0,0,1-5.785,5.642,5.665,5.665,0,0,1-5.661-5.727A5.573,5.573,0,0,1,51.681,3619.111Z" transform="translate(0.777 -3602.711)" fill="#cb0a2d"></path><path id="Trazado_227" data-name="Trazado 227" d="M-176.36,3624.8a5.7,5.7,0,0,1-5.707,5.628,5.6,5.6,0,0,1-5.66-5.663,5.6,5.6,0,0,1,5.738-5.648A5.672,5.672,0,0,1-176.36,3624.8Z" transform="translate(209.853 -3602.719)" fill="#cb0a2d"></path><path id="Trazado_228" data-name="Trazado 228" d="M1217.776,3475.15h-5.688c-.143,0-.287,0-.431,0-.169-.007-.378.035-.476-.124-.132-.213.056-.38.172-.532.856-1.117,1.731-2.22,2.574-3.347a1.507,1.507,0,0,1,1.369-.547c2.327.008,4.654,0,6.981,0q2.2,0,4.4,0a4.433,4.433,0,0,1,.686.04c.3.048.4.237.217.491-.281.4-.585.781-.883,1.167-.578.751-1.178,1.487-1.73,2.257a1.356,1.356,0,0,1-1.24.6C1221.741,3475.136,1219.759,3475.15,1217.776,3475.15Z" transform="translate(-1041.856 -3469.821)" fill="#cb0a2d"></path><path id="Trazado_229" data-name="Trazado 229" d="M1538.742,3525.3a2.284,2.284,0,1,1,.076,4.565,2.373,2.373,0,0,1-2.371-2.342A2.331,2.331,0,0,1,1538.742,3525.3Zm-.174,2.5c-.052.329-.078.526-.117.721-.03.152-.12.28-.285.265a.287.287,0,0,1-.24-.312c-.015-.488-.034-.977-.018-1.465.021-.648.118-.732.766-.76a3.962,3.962,0,0,1,.431,0,.909.909,0,0,1,.864.464.7.7,0,0,1-.246.912.493.493,0,0,0-.126.115c-.1.182.134.7.372.774.281.088.338-.156.408-.331a1.559,1.559,0,0,0-.283-1.691,1.66,1.66,0,0,0-1.818-.464,1.465,1.465,0,0,0-1.129,1.278,1.554,1.554,0,0,0,.582,1.535,1.881,1.881,0,0,0,1.983.144C1539.186,3528.687,1539.093,3528.146,1538.568,3527.8Z" transform="translate(-1332.946 -3518.77)" fill="#cb0a2d"></path></g></g><g id="_6hrHDI" data-name="6hrHDI" transform="translate(-2813.518 3122.75)"><g id="Grupo_114" data-name="Grupo 114" transform="translate(0 0)"><path id="Trazado_230" data-name="Trazado 230" d="M4399.283-315.046c-.439,1.5-.67,3.048-.984,4.576q-3.311,16.092-6.6,32.188c-.222,1.082-.457,2.162-.658,3.248a.651.651,0,0,1-.763.627q-4.575-.029-9.149,0c-.514,0-.619-.177-.508-.649.318-1.353.612-2.713.9-4.072.035-.164.205-.388-.059-.5-.245-.1-.375.1-.5.272-2.465,3.434-5.957,4.961-10.032,5.417a8.478,8.478,0,0,1-3.236-.1c-3-.83-4.511-3-5.031-5.906a15.223,15.223,0,0,1,1.044-7.846,27.945,27.945,0,0,1,6.6-10.453,19.16,19.16,0,0,1,8.26-5.14,12.38,12.38,0,0,1,5.261-.316c.659.093,1.328.112,1.988.2.394.054.537-.1.61-.465.528-2.672,1.072-5.341,1.611-8.011.211-1.045.431-2.089.631-3.137.067-.347.207-.534.6-.533,3.335.015,6.67.017,10.006.022Z" transform="translate(-4261.994 316.19)" fill="#ed1722"></path><path id="Trazado_231" data-name="Trazado 231" d="M3636.662-320.444a33.288,33.288,0,0,1,4.593.876c1.326.383,1.327.367,1.067,1.714-.271,1.4-.555,2.8-.792,4.212-.088.527-.223.658-.769.45a15.082,15.082,0,0,0-7.2-.819,4.056,4.056,0,0,0-3.317,2.493,16.318,16.318,0,0,0-.935,3.469c-.107.47.258.376.5.376,2,.007,4,0,6.005.007,1.048.005,1.134-.206.879,1.032-.285,1.381-.568,2.762-.815,4.15-.093.521-.293.733-.857.724-2.135-.033-4.271,0-6.406-.025-.538-.007-.762.147-.873.693q-3.021,14.9-6.068,29.8c-.118.58-.344.769-.939.763-2.993-.03-5.987-.012-8.98-.015-.776,0-.8-.024-.647-.77q2.832-13.889,5.671-27.777c.137-.672.273-1.344.412-2.016.133-.65.127-.661-.566-.664-.762,0-1.525-.012-2.288,0-.438.008-.626-.107-.521-.6.342-1.6.653-3.211.963-4.82a.505.505,0,0,1,.58-.48c.819.013,1.641-.024,2.458.013a.745.745,0,0,0,.887-.631,17.72,17.72,0,0,1,4.331-7.5,15.718,15.718,0,0,1,9.745-4.564c.149-.017.3-.058.443-.089Z" transform="translate(-3596.505 320.444)" fill="#ed1722"></path><path id="Trazado_232" data-name="Trazado 232" d="M3484-180.458c.5-1.957.83-3.948,1.229-5.925q2.2-10.89,4.37-21.787c.1-.523.309-.716.866-.711,3.029.028,6.06.012,9.089.014.736,0,.759.021.613.743q-2.758,13.75-5.512,27.5c-.114.572-.336.773-.937.767-3.239-.035-6.479-.024-9.718-.03Z" transform="translate(-3484 221.645)" fill="#ed1722"></path><path id="Trazado_233" data-name="Trazado 233" d="M4113-204.723a18.972,18.972,0,0,1-2.793,9.4,21.432,21.432,0,0,1-12.117,9.905,17.739,17.739,0,0,1-12.533-.306,9.044,9.044,0,0,1-5.734-6.1,11.849,11.849,0,0,1,.156-6.163c1.874-7.153,6.046-12.441,12.98-15.229a18.212,18.212,0,0,1,14.208-.086,8.754,8.754,0,0,1,5.749,7.182C4112.981-205.65,4112.975-205.17,4113-204.723Z" transform="translate(-4011.354 226.801)" fill="#ed1722"></path><path id="Trazado_234" data-name="Trazado 234" d="M3804.116-183.741a15.617,15.617,0,0,1-7.986-2.045,8.754,8.754,0,0,1-4.368-8.964,21.2,21.2,0,0,1,6.214-13.007,19.752,19.752,0,0,1,13.925-6.132,16.1,16.1,0,0,1,8.444,1.8,9.023,9.023,0,0,1,4.679,9.145,21.394,21.394,0,0,1-6.4,13.034,20.37,20.37,0,0,1-12.288,6.033A12.457,12.457,0,0,1,3804.116-183.741Z" transform="translate(-3756.498 226.092)" fill="#ed1722"></path><path id="Trazado_235" data-name="Trazado 235" d="M3820.389,136.713c-.26-.726-.506-1.4-.743-2.078q-1.047-2.995-2.09-5.992c-.229-.656-.234-.66-.765-.239a40.5,40.5,0,0,1-15.842,7.758,40.98,40.98,0,0,1-11.17,1.092,28.033,28.033,0,0,1-14.991-4.606,26.924,26.924,0,0,1-11.865-17.569c-.046-.229-.262-.555.138-.678.361-.111.488.188.623.449a26.058,26.058,0,0,0,26.494,14.053,38.766,38.766,0,0,0,15.89-5.406,27.1,27.1,0,0,0,4.364-3.221c.51-.466.515-.464-.058-.907q-2.94-2.274-5.879-4.55c-.122-.1-.376-.157-.291-.361.074-.178.308-.095.47-.095q9.865-.005,19.73,0c.719,0,.76.052.614.761q-2.19,10.577-4.385,21.153A.633.633,0,0,1,3820.389,136.713Z" transform="translate(-3730.923 -64.6)" fill="#ed1722"></path><path id="Trazado_236" data-name="Trazado 236" d="M3546.965-314.724c1.543,0,3.086.016,4.629-.009.506-.008.625.165.528.639q-.769,3.777-1.5,7.562a.6.6,0,0,1-.7.561q-4.686-.021-9.373,0c-.488,0-.638-.158-.537-.649.516-2.5,1.022-5,1.5-7.5.092-.482.307-.612.767-.606C3543.841-314.71,3545.4-314.724,3546.965-314.724Z" transform="translate(-3533.578 315.387)" fill="#ed1722"></path></g></g><rect id="Rect&#xE1;ngulo_71" data-name="Rect&#xE1;ngulo 71" width="788" height="518" transform="translate(-3405.15 2732.092)" fill="#fff" style="mix-blend-mode: color;isolation: isolate"></rect></g></g></svg>