<svg xmlns="http://www.w3.org/2000/svg" width="134.098" height="135.191" viewBox="0 0 134.098 135.191"><g id="I5KEKa" transform="translate(0.982 0.996)"><g id="Grupo_40" data-name="Grupo 40" transform="translate(0 0)"><path id="Trazado_74" data-name="Trazado 74" d="M5357.4,2183.319a3.178,3.178,0,0,1-1.594-3.655c1.677-7.959,1.192-16.026,1.306-24.07a81.091,81.091,0,0,0-1.1-15.253,4.42,4.42,0,0,0-1.091-2.164q-17.3-20.166-34.591-40.338c-.751-.875-1.44-1.776-1.074-3.029a2.62,2.62,0,0,1,2.524-2.059,39.236,39.236,0,0,1,14.825,2.015,33.078,33.078,0,0,1,20.008,16.681c.077.147.172.284.453.746a57.779,57.779,0,0,0-.376-9.708,59.946,59.946,0,0,1-.9-6.683c-.137-2.469.585-4.885.878-7.331a37.106,37.106,0,0,0,.416-4.519c-.017-6.541,0-13.081-.009-19.622,0-3.306-.794-6.521-1.167-9.784a13.594,13.594,0,0,1-.149-1.677,2.556,2.556,0,0,1,2.674-2.722q10.526-.042,21.051,0a2.517,2.517,0,0,1,2.686,2.946c-.3,2.968-.766,5.918-1.163,8.875a2.391,2.391,0,0,0-.049.255c-.16,7.923-.264,15.849.055,23.767.109,2.708.766,5.392,1.1,8.095.357,2.844-.539,5.58-.841,8.367a43.052,43.052,0,0,0-.426,4.777q.024,9.486,0,18.972a37.117,37.117,0,0,0,.861,7.6,24.241,24.241,0,0,1-.138,9.4,48.857,48.857,0,0,0-.731,9.43c.051,4.5.1,9.012-.013,13.514a71.249,71.249,0,0,0,1.234,12.769c.273,1.765.3,3.4-1.533,4.409Zm11.569-42.544c-2.079,0-4.158.021-6.236-.01-.862-.012-1.146.255-.974,1.159a60.276,60.276,0,0,1,.9,12.4c-.067,3.68-.076,7.363,0,11.042a56.541,56.541,0,0,1-.89,11.367c-.189,1.042.113,1.3,1.091,1.291,4.07-.032,8.142-.039,12.212,0,1.13.012,1.272-.424,1.1-1.427a54.632,54.632,0,0,1-.887-10.458c.068-3.55.05-7.1.006-10.653a64.074,64.074,0,0,1,.925-13.572c.18-.884-.163-1.17-1.016-1.157C5373.128,2140.8,5371.049,2140.775,5368.971,2140.775Zm-6.325-67.648c-.021,6.813.311,12.758-.909,18.621-.19.915.293,1.019,1.005,1.018,4.159-.01,8.317-.018,12.476,0,.868.005,1.18-.3,1-1.168a61.114,61.114,0,0,1-.916-13.445c.152-7.218-.529-14.471.937-21.631.151-.736-.175-1.022-.91-1.02q-6.368.021-12.736,0c-.746,0-.991.272-.862,1.032.268,1.577.49,3.164.677,4.752C5362.911,2065.523,5362.513,2069.774,5362.646,2073.127Zm6.264,62.256c2.035,0,4.072-.034,6.105.014,1.032.025,1.394-.264,1.18-1.363-.313-1.61-.511-3.247-.669-4.881-.458-4.708-.156-9.432-.211-14.148-.062-5.279-.18-10.566.917-15.779.17-.809-.166-1.093-.961-1.089q-6.3.027-12.6,0c-.8,0-1.084.254-.919,1.091a62.08,62.08,0,0,1,.9,13.442c-.162,7.258.53,14.553-.923,21.755-.168.835.284.961.945.958C5364.753,2135.375,5366.832,2135.381,5368.91,2135.383Zm-13.423-4.966c-.4-10.115-3.1-19.213-11.459-25.75-4.157-3.251-13.086-6.587-15.525-5.734Z" transform="translate(-5319.158 -2050.125)" fill="#fff" stroke="#fff" stroke-width="2"></path><path id="Trazado_75" data-name="Trazado 75" d="M5690.93,2369.84c-1.576-1.093-1.78-2.569-1.412-4.353,1.243-6.017,1.261-12.121,1.164-18.23-.034-2.165-.08-4.334.009-6.5a71.874,71.874,0,0,0-1.274-15.1c-.309-1.8.21-3.535.487-5.271a58.247,58.247,0,0,0,.786-9.949c-.053-4.2-.111-8.405.013-12.6a76.45,76.45,0,0,0-1.264-14.718c-.414-2.518.655-3.828,3.184-3.83q9.94-.01,19.88,0c2.6,0,3.6,1.173,3.249,3.739-.454,3.3-.831,6.61-1.35,9.9a2.654,2.654,0,0,1-4.264,1.773,2.772,2.772,0,0,1-1.092-2.382,41.445,41.445,0,0,1,.7-5.922c.235-1.572.128-1.724-1.457-1.725-3.942,0-7.883.024-11.824-.02-.928-.01-1.221.248-1.07,1.182,1.546,9.515.59,19.1.75,28.655a40.487,40.487,0,0,1-.778,6.433c-.112.763.105,1,.861,1,4.158-.022,8.316-.029,12.473,0,.943.007,1.249-.369,1.112-1.251-.223-1.454-.425-28.354-.638-29.809a2.809,2.809,0,0,1,2.146-3.448c1.769-.282,3.038.736,3.31,2.644.4,2.826.932,31.084,1.187,33.923.2,2.246-.461,4.459-.792,6.677a58.757,58.757,0,0,0-.562,11.17,40.376,40.376,0,0,1,3.914-6.378c5.457-6.972,12.711-10.947,21.275-12.711a38.794,38.794,0,0,1,9.925-.844,2.84,2.84,0,0,1,2.775,1.749,2.8,2.8,0,0,1-.73,3.1q-5.531,6.466-11.074,12.923-12.089,14.106-24.174,28.215a9.354,9.354,0,0,1-2.051,1.969Zm11.53-5.3c1.991,0,3.982.006,5.974,0,1.406-.006,1.541-.188,1.334-1.611a31.6,31.6,0,0,1-.665-5.008c.174-9.766-.826-19.563.709-29.294.167-1.057-.26-1.354-1.276-1.344q-6.04.062-12.079,0c-.946-.011-1.19.279-1.063,1.195a40.3,40.3,0,0,1,.786,6.432c-.223,9.549.765,19.134-.809,28.642-.151.916.259,1.01.984,1C5698.39,2364.52,5700.425,2364.536,5702.46,2364.537Zm40.746-36.413c-.074-.123-.148-.246-.221-.369-7.074,1.065-13.448,3.643-18.475,8.974-6.029,6.4-7.991,14.324-8.554,23.188C5725.207,2349.123,5734.205,2338.624,5743.206,2328.124Z" transform="translate(-5620.452 -2236.645)" fill="#fff" stroke="#fff" stroke-width="2"></path></g></g></svg>