<svg xmlns="http://www.w3.org/2000/svg" id="Layer_1" data-name="Layer 1" viewBox="0 0 1008.83 915.12"><defs><style>.cls-1{fill:#fff;}</style></defs><g id="_7xTlVL" data-name="7xTlVL"><path class="cls-1" d="M934.92,492.46c-3.29,26.65-7,53.21-14.52,79.09Q871.64,739.76,721.3,829.61a407.68,407.68,0,0,1-168.4,56c-109.69,11.25-209.93-15-299.91-79-6.7-4.77-12.4-6.49-20.67-4.45-28.6,7-55.86-11.5-61.68-41.07-5.31-27,14.37-54.6,42.09-59.1,29.09-4.72,55,14.52,59.24,43.57,1,7.14.84,14.12-1.58,20.67-2.32,6.28-.22,9.48,4.82,13C323.52,813.36,376.67,836,434.87,846.4a395.44,395.44,0,0,0,425-215.15A390.76,390.76,0,0,0,899.59,478c3.48-66.22-9-129.1-36.79-189.12-2-4.3-4.17-8.56-3.18-13.63,1.52-7.76,7.58-14.07,15.15-14.85,8.42-.87,14.7,2.69,18.47,10.3,12.32,24.92,21.5,51,28.77,77.82,6.39,23.55,9.47,47.67,12.91,71.73Z"></path><path class="cls-1" d="M541.72,27c25.7,3.77,51.42,7.3,76.56,14.25A427.91,427.91,0,0,1,755.4,106.84c5.57,4,10.62,5.62,17.73,4.42,27-4.55,52.84,15.19,57.55,43.17,4.39,26.09-14.64,53.06-41,57.75-19.49,3.46-36.2-2.15-49-17.25s-15.88-32.62-8.61-51.06c2.69-6.81,1-9.81-4.53-13.53C673.28,93.48,613.76,70.67,548.34,64.23c-121.46-12-227.29,23.46-316.23,107.07C164.34,235,124.86,314,112.5,406c-9.8,72.84.46,143.36,30.32,210.76,3.37,7.59,4.81,15-.47,22.25-8.12,11.08-24.34,8.7-30.6-4.76-10-21.36-18.25-43.43-23.63-66.35-38.83-165.34,1.8-308.42,123.94-426.32C278.2,77.69,358.94,41.3,450.44,29.63c5.8-.74,11.56-1.74,17.34-2.62Z"></path><path class="cls-1" d="M184.9,456.36C183.76,271.6,338.07,136.61,506.19,137.07c175.78.47,319.49,146.55,318.69,321.6-.79,173.79-144.56,319.58-321.7,318.63C326.84,776.35,183.18,630.52,184.9,456.36Zm302.45,1.24c0-25.17-.13-50.34.1-75.5.05-6-1.5-8.51-8-8.46-31.32.26-62.65.31-94,0-6.81-.08-8.91,3-9.44,8.77-.8,8.62-1.64,17.24-2.45,25.86-3.93,41.62-2.37,83.13,2.53,124.58.68,5.69,3.29,8,9.35,7.91,31-.27,62.08-.32,93.12,0,7.25.08,8.93-2.65,8.85-9.32C487.17,506.82,487.35,482.21,487.35,457.6Zm34.8-.82c0,25.17.13,50.34-.1,75.5-.06,6,1.56,8.49,8,8.43,31.32-.25,62.64-.31,94,0,6.83.08,8.87-3.07,9.41-8.8q1.2-12.93,2.43-25.85c3.94-41.62,2.39-83.13-2.52-124.58-.68-5.71-3.33-7.94-9.37-7.89-31,.27-62.08.32-93.12,0-7.29-.09-8.9,2.71-8.82,9.34C522.32,407.56,522.14,432.17,522.15,456.78ZM285.84,540.6c15.67,0,31.34-.21,47,.1,6.64.13,8.49-1.54,7.6-8.71a604.18,604.18,0,0,1,0-149.75c.92-7.38-1.32-8.62-7.74-8.58q-46.17.3-92.34,0c-5.71,0-8.54,1.72-10.07,7.38a288,288,0,0,0,0,152.44c1.56,5.79,4.57,7.35,10.16,7.24C255.61,540.41,270.73,540.6,285.84,540.6Zm436.51,0c15.67,0,31.34-.25,47,.12,5.91.14,8.51-2.09,9.89-7.61a338.11,338.11,0,0,0,8.23-42.78,286.18,286.18,0,0,0-8.71-110.45c-1.13-4.06-3-6.18-7.49-6.16q-48.27.15-96.53,0c-5.37,0-6.53,2.07-5.87,7.23a606.44,606.44,0,0,1,0,152.24c-.72,5.81.91,7.54,6.46,7.48C691,540.47,706.68,540.59,722.35,540.6Zm-235-283.77q0-36.54,0-73.08c0-8.39-.87-9-8.52-5.55-16.55,7.38-29.38,19.4-40.33,33.46-27.42,35.2-42,76.15-52.76,118.83-1.83,7.25.32,8.64,7,8.58,28.56-.26,57.13-.31,85.69,0,7.07.08,9.11-2.32,9-9.19C487.15,305.56,487.35,281.19,487.35,256.83Zm34.8.23c0,24.36.15,48.72-.11,73.08-.06,6.24,1.36,9,8.38,9,29.12-.34,58.24-.19,87.36-.1,5.13,0,7.81-.64,6.26-7.09-8.74-36.43-21-71.47-41-103.34C570.1,208,554.55,189.68,532,178.8c-9.08-4.38-9.85-3.83-9.86,6Q522.12,220.94,522.15,257.06Zm-34.8,400.69c0-24.64-.06-49.28,0-73.92,0-5.05-.41-8.58-7-8.53-30,.23-59.92.15-89.88.07-4.92,0-6.34,1.6-5.12,6.61,10.54,43.32,25.26,84.8,53,120.53,10.74,13.84,23.35,25.69,39.49,33.2,8.63,4,9.49,3.48,9.5-5.72Q487.4,693.87,487.35,657.75Zm34.8-.61c0,24.64.18,49.28-.12,73.92-.09,7.32,2.34,8.06,8.34,5.32,16.49-7.53,29.44-19.35,40.39-33.4,28-35.88,42.8-77.62,53.42-121.22,1.56-6.41-1.91-6.38-6.25-6.38-29.4,0-58.8.18-88.2-.1-6.85-.07-7.7,3.19-7.66,8.78C522.25,608.42,522.15,632.78,522.15,657.14ZM410.42,189.19c-3,.78-4.36,1-5.58,1.46Q300.19,231.44,249.3,331.58c-3.28,6.45-1.09,7.5,5,7.46,27.43-.18,54.86-.44,82.28.14,8.42.17,11.5-2.58,13.26-10.62,8.09-37.06,20.25-72.71,38.87-106C395,211.47,402.4,201.12,410.42,189.19Zm189.81-.1c.31,1.74.24,2.4.53,2.79,30.9,41.43,48.31,88.67,59.27,138.6,1.52,6.91,4.67,8.73,11.44,8.64,27.43-.38,54.86-.14,82.29-.17,9.85,0,10-.2,5.5-9.09q-46.89-91.62-140.85-133.68C612.67,193.6,606.68,191.59,600.23,189.09ZM411.08,725.73c-4.49-6.39-7.78-10.89-10.89-15.52C374.55,672,359.5,629.46,349.7,584.9c-1.64-7.43-4.67-9.83-12.3-9.69-26.85.47-53.71.17-80.57.19-11.15,0-11.19,0-6,10.35,20.62,40.68,49.59,74.34,86.22,101.32A266.26,266.26,0,0,0,411.08,725.73Zm188.76-2c1.14.34,1.69.72,2.13.61a36,36,0,0,0,4.81-1.45Q709.88,682,760.05,583.08c3.6-7,.93-7.81-5.38-7.77-28,.19-55.95.3-83.91-.07-6.66-.09-9.34,2.24-10.66,8.51a415.58,415.58,0,0,1-27.38,84.41A300.8,300.8,0,0,1,599.84,723.69Z"></path></g></svg>