<svg xmlns="http://www.w3.org/2000/svg" width="123.129" height="138.147" viewBox="0 0 123.129 138.147"><g id="XSCQHl" transform="translate(0)"><g id="Grupo_36" data-name="Grupo 36" transform="translate(0 0)"><path id="Trazado_62" data-name="Trazado 62" d="M4715.357,962.47c-3.079,0-6.16-.084-9.234.029a4.619,4.619,0,0,1-4.516-4.471c.157-4.218.044-8.445.043-12.669,0-1.017,0-1.034-.968-.916-2.7.329-5.4.653-8.093,1.016a4.526,4.526,0,0,1-4.951-3.475,4.293,4.293,0,0,1,3.552-5.1c4.66-.635,9.333-1.164,14-1.78,3.487-.46,5.136,2.2,5.1,4.7-.059,4.324-.017,8.65-.015,12.975,0,1.07,0,1.073,1.037,1.074q4.046,0,8.091,0c1.035,0,1.037,0,1.037-1.069,0-4.249.088-8.5-.028-12.746-.085-3.131,1.849-5.5,5.782-4.915a23.994,23.994,0,0,1,6.44,2.3,20.592,20.592,0,0,0,9.1,2.243A12.041,12.041,0,0,0,4753.3,927.96c.037-4.673-2.153-8.156-5.675-10.954a27.234,27.234,0,0,0-5.048-3.134c-.788-.383-.789-.456-.23-1.06a14.465,14.465,0,0,0,.568-19.132,13.519,13.519,0,0,0-10.043-5.218c-.516-.032-.691-.183-.714-.705a18.192,18.192,0,0,0-2-8.073,16.335,16.335,0,0,0-12.345-8.64,16.169,16.169,0,0,0-14.324,4.633,44.489,44.489,0,0,0-8.27,11.368c-4.541,8.379-7.751,17.3-10.637,26.352-3.287,10.306-5.945,20.781-8.4,31.311-.37,1.585-.733,3.171-1.127,4.75a4.684,4.684,0,0,1-1.788,2.763,4.092,4.092,0,0,1-5.673-.453c-2.123-2.047-4.193-4.149-6.284-6.23q-4.73-4.708-9.457-9.42c-1.062-1.06-2.124-2.12-3.151-3.213a4.479,4.479,0,0,1,.063-5.981,4.316,4.316,0,0,1,5.954-.273c1.611,1.472,3.127,3.048,4.674,4.59,1.816,1.811,3.617,3.638,5.431,5.451.97.969,1.989,1.892,2.918,2.9.519.562.623.337.767-.218,1.014-3.914,2.022-7.83,3.064-11.737a311.832,311.832,0,0,1,9.3-30.332,99.1,99.1,0,0,1,9.062-18.715,40.92,40.92,0,0,1,11.186-12.056,24.27,24.27,0,0,1,13.837-4.375,25.44,25.44,0,0,1,24.788,18.23,1.632,1.632,0,0,0,1.022,1.1c8.153,3.628,12.824,9.91,14.092,18.709a20.83,20.83,0,0,1-1.011,9.853,1.044,1.044,0,0,0,.376,1.356,20.814,20.814,0,0,1,7.53,12.882,20.361,20.361,0,0,1-10.1,21.277,21.156,21.156,0,0,1-16.44,2.04,22.994,22.994,0,0,1-5.492-2.039c-.562-.312-.672-.147-.67.429q.023,5.953.006,11.907a4.375,4.375,0,0,1-4.547,4.572C4721.464,962.477,4718.411,962.47,4715.357,962.47Z" transform="translate(-4647.588 -862.155)" fill="#fff"></path><path id="Trazado_63" data-name="Trazado 63" d="M4796.807,1586.167c3.561,0,7.122.014,10.682-.007a32.366,32.366,0,0,1,4.037-.009,1.182,1.182,0,0,1,1.094.781c.6,1.482,1.242,2.952,1.858,4.43.114.274.306.578.041.853a.977.977,0,0,1-.929.2,2.236,2.236,0,0,1-1.067-.559,48.333,48.333,0,0,0-4.127-3.01,6.239,6.239,0,0,0-3.511-1.093c-2.6-.038-5.185.121-7.777.181a1.133,1.133,0,0,0-1.228,1.094,10.433,10.433,0,0,0-.134,1.287c-.013,2.671.01,5.341-.02,8.012-.007.669.217.9.881.879a41.857,41.857,0,0,0,5.177-.187,7.807,7.807,0,0,0,1.61-.458,2,2,0,0,0,1.293-1.485c.155-.668.353-1.326.54-1.986.2-.718.763-.722,1.349-.651s.6.521.6.97c0,1.323.016,2.645,0,3.968a43.4,43.4,0,0,0,.233,5.1c.049.473.01.9-.558.991s-1.143.071-1.326-.669c-.129-.517-.263-1.033-.4-1.549a2.9,2.9,0,0,0-2.946-2.307c-1.931-.071-3.865-.046-5.8-.069-.444-.005-.637.186-.643.641-.038,2.976.035,5.95.167,8.922.037.817.607,1.105,1.317,1.235a18.741,18.741,0,0,0,3.194.178,3.54,3.54,0,0,1,1.2.168.734.734,0,0,1,.513.835c-.042.414-.333.539-.692.567-.2.016-.407.017-.61.017q-7.63,0-15.261.009c-.461,0-.825-.061-.861-.608a.794.794,0,0,1,.693-.936,4.348,4.348,0,0,1,.682-.057c.534-.014,1.069,0,1.6-.028,2.122-.1,2.428-.444,2.489-2.551.132-4.551.154-9.1.124-13.654-.013-1.932-.076-3.864-.137-5.795-.038-1.209-.457-1.667-1.649-1.922a16.134,16.134,0,0,0-2.813-.145c-.362-.014-.718-.032-.919-.41-.349-.653.07-1.218.892-1.217q5.569,0,11.139,0Z" transform="translate(-4763.728 -1475.563)" fill="#fff"></path><path id="Trazado_64" data-name="Trazado 64" d="M5022.469,1584.676a28,28,0,0,1,7.073.73c1.159.246,1.409.557,1.528,1.745.111,1.113.208,2.227.336,3.338a.984.984,0,0,1-.924,1.226c-1,.184-1.277.082-1.524-.734-1.175-3.885-4.132-4.715-7.317-4.654a9.2,9.2,0,0,0-3.291.581c-1.368.552-2.619,1.3-2.8,2.925-.175,1.55.851,2.5,2.015,3.253a51.239,51.239,0,0,0,5.963,3.077,37.86,37.86,0,0,1,6.982,4.051,12.536,12.536,0,0,1,1.974,1.9,4.755,4.755,0,0,1-.318,6.575,10.9,10.9,0,0,1-5.188,2.918,29.117,29.117,0,0,1-11.653.541c-1.261-.159-2.512-.39-3.771-.563a2.073,2.073,0,0,1-2.008-1.911c-.229-1.4-.663-2.769-.974-4.158-.247-1.1.17-1.572,1.3-1.607.511-.016.716.243.883.659a8.76,8.76,0,0,0,3.633,4.676,11.3,11.3,0,0,0,10.9.457c2.59-1.24,2.991-4.133,1.039-6.243a19.511,19.511,0,0,0-5.616-3.891c-2.509-1.291-5.116-2.4-7.505-3.915a9.738,9.738,0,0,1-2.65-2.271,4.078,4.078,0,0,1,.518-5.815,11.246,11.246,0,0,1,5.679-2.428A24.864,24.864,0,0,1,5022.469,1584.676Z" transform="translate(-4953.4 -1474.356)" fill="#fff"></path><path id="Trazado_65" data-name="Trazado 65" d="M5217.333,1584.656a29.5,29.5,0,0,1,5.811.447c1.135.2,1.352.479,1.354,1.634,0,1.2.006,2.391,0,3.586-.007.87-.275,1.111-1.142,1.15-.394.017-.627-.086-.7-.5-.521-2.917-2.544-4.17-5.231-4.516a15.672,15.672,0,0,0-9.683,1.669,10.027,10.027,0,0,0-5.537,8.631,12.8,12.8,0,0,0,2.177,8.541,12.184,12.184,0,0,0,9.616,5.144,19.408,19.408,0,0,0,9.38-1.6,1.169,1.169,0,0,1,1.516.709c.1.4-.258.454-.483.571a19.561,19.561,0,0,1-6.288,2.019,24.254,24.254,0,0,1-12.833-1.148c-4.643-1.886-7.93-5.077-8.8-10.186a11.428,11.428,0,0,1,3.578-10.6c3.528-3.421,7.919-4.826,12.669-5.392A38.975,38.975,0,0,1,5217.333,1584.656Z" transform="translate(-5112.526 -1474.348)" fill="#fff"></path><path id="Trazado_66" data-name="Trazado 66" d="M5343.791,873.271a8.423,8.423,0,1,1,8.417,8.3A8.344,8.344,0,0,1,5343.791,873.271Zm14.958-.011a6.539,6.539,0,1,0-6.618,6.722A6.557,6.557,0,0,0,5358.749,873.26Z" transform="translate(-5237.506 -864.494)" fill="#fff"></path><path id="Trazado_67" data-name="Trazado 67" d="M5368.68,890.649a4.764,4.764,0,0,1,6.756-4.646,3.588,3.588,0,0,1,2.03,2.157c.119.328.414.726-.04,1.007a1.307,1.307,0,0,1-1.48-.372,2.592,2.592,0,0,0-1.162-1.267,2.871,2.871,0,0,0-3.972,1.573,4.343,4.343,0,0,0,.4,3.879c.98,1.6,4.021,1.741,4.751-.3a1.3,1.3,0,0,1,1.565-.413c.247.21.1.476.037.708a4.17,4.17,0,0,1-4.489,2.9A4.837,4.837,0,0,1,5368.68,890.649Z" transform="translate(-5258.595 -882.021)" fill="#fff"></path></g></g></svg>